<mxfile host="65bd71144e">
    <diagram id="5H8bnV8YWOyIN_DTZEFX" name="Page-1">
        <mxGraphModel dx="1291" dy="878" grid="1" gridSize="10" guides="1" tooltips="1" connect="1" arrows="1" fold="1" page="1" pageScale="1" pageWidth="1169" pageHeight="827" math="0" shadow="0">
            <root>
                <mxCell id="0"/>
                <mxCell id="1" parent="0"/>
                <mxCell id="68" value="" style="rounded=0;whiteSpace=wrap;html=1;" vertex="1" parent="1">
                    <mxGeometry x="10" y="190" width="1180" height="650" as="geometry"/>
                </mxCell>
                <mxCell id="66" value="" style="rounded=1;whiteSpace=wrap;html=1;dashed=1;fillColor=none;" vertex="1" parent="1">
                    <mxGeometry x="153.74" y="240" width="1016.26" height="580" as="geometry"/>
                </mxCell>
                <mxCell id="2" value="" style="image;aspect=fixed;html=1;points=[];align=center;fontSize=12;image=img/lib/azure2/compute/Virtual_Machine.svg;" vertex="1" parent="1">
                    <mxGeometry x="40" y="320" width="43.13" height="40" as="geometry"/>
                </mxCell>
                <mxCell id="3" value="VM Client" style="text;strokeColor=none;align=center;fillColor=none;html=1;verticalAlign=middle;whiteSpace=wrap;rounded=0;" vertex="1" parent="1">
                    <mxGeometry x="31.569999999999993" y="360" width="60" height="30" as="geometry"/>
                </mxCell>
                <mxCell id="4" value="" style="endArrow=classic;html=1;exitX=1.031;exitY=0.373;exitDx=0;exitDy=0;exitPerimeter=0;" edge="1" parent="1">
                    <mxGeometry width="50" height="50" relative="1" as="geometry">
                        <mxPoint x="91.5670299999999" y="339.68000000000006" as="sourcePoint"/>
                        <mxPoint x="190" y="340" as="targetPoint"/>
                    </mxGeometry>
                </mxCell>
                <mxCell id="6" value="Keyword" style="text;strokeColor=none;align=center;fillColor=default;html=1;verticalAlign=middle;whiteSpace=wrap;rounded=0;" vertex="1" parent="1">
                    <mxGeometry x="110" y="342.5" width="60" height="30" as="geometry"/>
                </mxCell>
                <mxCell id="7" value="Azure Functions:&lt;div&gt;s01_web_crawler&lt;/div&gt;" style="html=1;dashed=0;whiteSpace=wrap;" vertex="1" parent="1">
                    <mxGeometry x="190" y="307.5" width="130" height="65" as="geometry"/>
                </mxCell>
                <mxCell id="5" value="" style="image;aspect=fixed;html=1;points=[];align=center;fontSize=12;image=img/lib/azure2/app_services/App_Services.svg;" vertex="1" parent="1">
                    <mxGeometry x="633.43" y="200" width="56.87" height="56.87" as="geometry"/>
                </mxCell>
                <mxCell id="8" value="Azure Functions:&lt;div&gt;s02_rag_indexer&lt;/div&gt;" style="html=1;dashed=0;whiteSpace=wrap;" vertex="1" parent="1">
                    <mxGeometry x="350" y="307.5" width="130" height="65" as="geometry"/>
                </mxCell>
                <mxCell id="9" value="" style="endArrow=classic;html=1;entryX=0;entryY=0.5;entryDx=0;entryDy=0;exitX=1;exitY=0.5;exitDx=0;exitDy=0;" edge="1" parent="1" source="7" target="8">
                    <mxGeometry width="50" height="50" relative="1" as="geometry">
                        <mxPoint x="320" y="340" as="sourcePoint"/>
                        <mxPoint x="390" y="340" as="targetPoint"/>
                    </mxGeometry>
                </mxCell>
                <mxCell id="13" value="Azure Functions:&lt;div&gt;s03_draft_generator&lt;/div&gt;" style="html=1;dashed=0;whiteSpace=wrap;" vertex="1" parent="1">
                    <mxGeometry x="540" y="307.5" width="130" height="65" as="geometry"/>
                </mxCell>
                <mxCell id="14" value="" style="endArrow=classic;html=1;entryX=0;entryY=0.5;entryDx=0;entryDy=0;exitX=1;exitY=0.5;exitDx=0;exitDy=0;" edge="1" parent="1" target="13" source="8">
                    <mxGeometry width="50" height="50" relative="1" as="geometry">
                        <mxPoint x="530" y="340" as="sourcePoint"/>
                        <mxPoint x="600" y="340" as="targetPoint"/>
                    </mxGeometry>
                </mxCell>
                <mxCell id="15" value="Azure Functions:&lt;div&gt;s04_image_picker&lt;/div&gt;" style="html=1;dashed=0;whiteSpace=wrap;" vertex="1" parent="1">
                    <mxGeometry x="695" y="495" width="130" height="65" as="geometry"/>
                </mxCell>
                <mxCell id="17" value="Azure Functions:&lt;div&gt;s05_seo_auditor&lt;/div&gt;" style="html=1;dashed=0;whiteSpace=wrap;" vertex="1" parent="1">
                    <mxGeometry x="850" y="307.5" width="130" height="65" as="geometry"/>
                </mxCell>
                <mxCell id="18" value="" style="endArrow=classic;html=1;entryX=0;entryY=0.5;entryDx=0;entryDy=0;exitX=1;exitY=0.5;exitDx=0;exitDy=0;" edge="1" parent="1" target="17" source="13">
                    <mxGeometry width="50" height="50" relative="1" as="geometry">
                        <mxPoint x="950" y="340" as="sourcePoint"/>
                        <mxPoint x="1020" y="340" as="targetPoint"/>
                    </mxGeometry>
                </mxCell>
                <mxCell id="19" value="Azure Functions:&lt;div&gt;s06_publisher&lt;/div&gt;" style="html=1;dashed=0;whiteSpace=wrap;" vertex="1" parent="1">
                    <mxGeometry x="1010" y="307.5" width="130" height="65" as="geometry"/>
                </mxCell>
                <mxCell id="20" value="" style="endArrow=classic;html=1;entryX=0;entryY=0.5;entryDx=0;entryDy=0;exitX=1;exitY=0.5;exitDx=0;exitDy=0;" edge="1" parent="1" target="19" source="17">
                    <mxGeometry width="50" height="50" relative="1" as="geometry">
                        <mxPoint x="1160" y="340" as="sourcePoint"/>
                        <mxPoint x="1230" y="340" as="targetPoint"/>
                    </mxGeometry>
                </mxCell>
                <mxCell id="22" value="" style="dashed=0;outlineConnect=0;html=1;align=center;labelPosition=center;verticalLabelPosition=bottom;verticalAlign=top;shape=mxgraph.weblogos.google" vertex="1" parent="1">
                    <mxGeometry x="233.00000000000003" y="541.08" width="44" height="46" as="geometry"/>
                </mxCell>
                <mxCell id="23" value="" style="endArrow=classic;html=1;exitX=0.389;exitY=0.997;exitDx=0;exitDy=0;exitPerimeter=0;" edge="1" parent="1" source="7">
                    <mxGeometry width="50" height="50" relative="1" as="geometry">
                        <mxPoint x="240.2900000000002" y="429.99500000000006" as="sourcePoint"/>
                        <mxPoint x="240" y="538.08" as="targetPoint"/>
                    </mxGeometry>
                </mxCell>
                <mxCell id="24" value="" style="endArrow=classic;html=1;entryX=0.613;entryY=0.998;entryDx=0;entryDy=0;entryPerimeter=0;" edge="1" parent="1" target="7">
                    <mxGeometry width="50" height="50" relative="1" as="geometry">
                        <mxPoint x="270" y="538.08" as="sourcePoint"/>
                        <mxPoint x="270.2900000000002" y="430.58500000000004" as="targetPoint"/>
                    </mxGeometry>
                </mxCell>
                <mxCell id="25" value="Google Custom Search API" style="rounded=1;whiteSpace=wrap;html=1;" vertex="1" parent="1">
                    <mxGeometry x="197.5" y="432" width="115" height="40" as="geometry"/>
                </mxCell>
                <mxCell id="27" value="" style="image;aspect=fixed;html=1;points=[];align=center;fontSize=12;image=img/lib/azure2/app_services/Search_Services.svg;" vertex="1" parent="1">
                    <mxGeometry x="469.82" y="402" width="55.37" height="40" as="geometry"/>
                </mxCell>
                <mxCell id="28" value="Google SERP" style="text;strokeColor=none;align=center;fillColor=none;html=1;verticalAlign=middle;whiteSpace=wrap;rounded=0;" vertex="1" parent="1">
                    <mxGeometry x="207.5" y="587.08" width="95" height="30" as="geometry"/>
                </mxCell>
                <mxCell id="29" value="Azure AI Search" style="text;strokeColor=none;align=center;fillColor=none;html=1;verticalAlign=middle;whiteSpace=wrap;rounded=0;" vertex="1" parent="1">
                    <mxGeometry x="450.00000000000006" y="442.00000000000006" width="95" height="30" as="geometry"/>
                </mxCell>
                <mxCell id="32" value="" style="endArrow=classic;html=1;exitX=0.5;exitY=1;exitDx=0;exitDy=0;" edge="1" parent="1" source="8" target="27">
                    <mxGeometry width="50" height="50" relative="1" as="geometry">
                        <mxPoint x="410" y="372.5" as="sourcePoint"/>
                        <mxPoint x="460" y="322.5" as="targetPoint"/>
                        <Array as="points">
                            <mxPoint x="415" y="420"/>
                        </Array>
                    </mxGeometry>
                </mxCell>
                <mxCell id="33" value="" style="endArrow=classic;html=1;entryX=0.157;entryY=1.003;entryDx=0;entryDy=0;entryPerimeter=0;" edge="1" parent="1" target="13">
                    <mxGeometry width="50" height="50" relative="1" as="geometry">
                        <mxPoint x="530" y="420" as="sourcePoint"/>
                        <mxPoint x="625" y="432" as="targetPoint"/>
                        <Array as="points">
                            <mxPoint x="560" y="420"/>
                        </Array>
                    </mxGeometry>
                </mxCell>
                <mxCell id="34" value="" style="image;aspect=fixed;html=1;points=[];align=center;fontSize=12;image=img/lib/azure2/ai_machine_learning/Azure_OpenAI.svg;" vertex="1" parent="1">
                    <mxGeometry x="590" y="510" width="50" height="50" as="geometry"/>
                </mxCell>
                <mxCell id="35" value="" style="endArrow=classic;html=1;exitX=0.389;exitY=0.997;exitDx=0;exitDy=0;exitPerimeter=0;" edge="1" parent="1">
                    <mxGeometry width="50" height="50" relative="1" as="geometry">
                        <mxPoint x="600.6600000000001" y="372.5" as="sourcePoint"/>
                        <mxPoint x="600" y="500" as="targetPoint"/>
                    </mxGeometry>
                </mxCell>
                <mxCell id="36" value="" style="endArrow=classic;html=1;entryX=0.613;entryY=0.998;entryDx=0;entryDy=0;entryPerimeter=0;" edge="1" parent="1">
                    <mxGeometry width="50" height="50" relative="1" as="geometry">
                        <mxPoint x="630" y="500" as="sourcePoint"/>
                        <mxPoint x="629.6600000000001" y="372.5" as="targetPoint"/>
                    </mxGeometry>
                </mxCell>
                <mxCell id="37" value="Azure OpenAI" style="text;strokeColor=none;align=center;fillColor=none;html=1;verticalAlign=middle;whiteSpace=wrap;rounded=0;" vertex="1" parent="1">
                    <mxGeometry x="567.5" y="560" width="95" height="30" as="geometry"/>
                </mxCell>
                <mxCell id="39" value="" style="shape=image;verticalLabelPosition=bottom;verticalAlign=top;imageAspect=0;aspect=fixed;image=data:image/jpeg,/9j/4QDKRXhpZgAATU0AKgAAAAgABgESAAMAAAABAAEAAAEaAAUAAAABAAAAVgEbAAUAAAABAAAAXgEoAAMAAAABAAIAAAITAAMAAAABAAEAAIdpAAQAAAABAAAAZgAAAAAAAABIAAAAAQAAAEgAAAABAAeQAAAHAAAABDAyMjGRAQAHAAAABAECAwCgAAAHAAAABDAxMDCgAQADAAAAAQABAACgAgAEAAAAAQAAAQCgAwAEAAAAAQAAAQCkBgADAAAAAQAAAAAAAAAAAAD/2wCEAAEBAQEBAQIBAQIDAgICAwQDAwMDBAYEBAQEBAYHBgYGBgYGBwcHBwcHBwcICAgICAgJCQkJCQsLCwsLCwsLCwsBAgICAwMDBQMDBQsIBggLCwsLCwsLCwsLCwsLCwsLCwsLCwsLCwsLCwsLCwsLCwsLCwsLCwsLCwsLCwsLCwsLC//dAAQAEP/AABEIAQABAAMBIgACEQEDEQH/xAGiAAABBQEBAQEBAQAAAAAAAAAAAQIDBAUGBwgJCgsQAAIBAwMCBAMFBQQEAAABfQECAwAEEQUSITFBBhNRYQcicRQygZGhCCNCscEVUtHwJDNicoIJChYXGBkaJSYnKCkqNDU2Nzg5OkNERUZHSElKU1RVVldYWVpjZGVmZ2hpanN0dXZ3eHl6g4SFhoeIiYqSk5SVlpeYmZqio6Slpqeoqaqys7S1tre4ubrCw8TFxsfIycrS09TV1tfY2drh4uPk5ebn6Onq8fLz9PX29/j5+gEAAwEBAQEBAQEBAQAAAAAAAAECAwQFBgcICQoLEQACAQIEBAMEBwUEBAABAncAAQIDEQQFITEGEkFRB2FxEyIygQgUQpGhscEJIzNS8BVictEKFiQ04SXxFxgZGiYnKCkqNTY3ODk6Q0RFRkdISUpTVFVWV1hZWmNkZWZnaGlqc3R1dnd4eXqCg4SFhoeIiYqSk5SVlpeYmZqio6Slpqeoqaqys7S1tre4ubrCw8TFxsfIycrS09TV1tfY2dri4+Tl5ufo6ery8/T19vf4+fr/2gAMAwEAAhEDEQA/AP7+KKKKACiiigAooooAKKKKACiiigAooooAKKKKACiiigAooooAKKKKACiiigAooooAKKKKACiiigAooooAKKKKAP/Q/v4ooooAKKKKACiiigAooooAKKKKACiiigAooooAKKKKACiiigAooooAKKKKACiiigAooooAKKKKACiiigAooooA/9H+/iiiigAooooAKKKKACiiigAooooAKKKKACiiigAooooAKKKKACiiigAooooAKKKKACiiigAooooAKKKKACiiigD/0v7+KKKKACiiigAooooAKKKKACiiigAooooA+B/+Cjv/AAUU+CX/AATB/Z5T9pb4/adrGpaA+q2ukeVokMM1yJroOynbPNAmwCNsnfn2r8Hf+IzP/glf/wBCn8Sf/BRY/wDyxruv+Dwb/lEhB/2POif+i7mv8qegD/UX/wCIzL/glf8A9Cn8Sf8AwU2H/wAsaP8AiMy/4JX/APQp/En/AMFNh/8ALGv8uiigD/UX/wCIzL/glf8A9Cn8Sf8AwU2H/wAsaP8AiMy/4JX/APQp/En/AMFNh/8ALGv8uiigD/Ue/wCIzP8A4JX/APQp/En/AMFFj/8ALGv3f/4Jxf8ABRn4G/8ABUD9nl/2l/2fNP1nTtATVbnSPK1yCG3ufPtAjMQsM067CJFx8+fYV/iFV/qhf8Gd3/KIZ/8AseNa/wDRVrQB/VdRRRQAUUUUAFFFFABRRRQAUUUUAFFFFAH/0/7+KKKKACiiigAooooAKKKKACiiigAooooA/lW/4PB/+USNv/2POi/+i7mv8rCv9U//AIPB/wDlEjb/APY86L/6Lua/ysKACiiigAooooAK/wBVD/gzs/5RCP8A9jxrX/ou1r/Kvr/VQ/4M7P8AlEI//Y8a1/6LtaAP6qKKKKACiiigAooooAKKKKACiiigAooooA//1P7+KKKKACiiigAooooAKKKKACiiigAooooA/lf/AODwf/lEhB/2POif+i7mv8qg9a/2PP8Agv7/AME+fjp/wUw/YQi/Zs/Z3udItfEK+JdN1bfrVxJbW32e1WZX+eKKZt2ZFwNmPcV/EUf+DNj/AIKvZ/5GD4c/+Dm7/wDlfQB/JvRX9Y//ABBsf8FXv+hg+HP/AIObv/5X0f8AEGx/wVe/6GD4c/8Ag5u//lfQB/JxRX9Y/wDxBsf8FXv+hg+HP/g5u/8A5X0f8QbH/BV7/oYPhz/4Obv/AOV9AH8nFf6qH/BnZ/yiEf8A7HjWv/RdrX8u3/EGx/wVe/6GD4c/+Dm7/wDlfX9un/Bv7/wTz+O3/BMn9gh/2af2iLnSLvxB/wAJNqWq+Zolw9za+RcrCqDfJFC24GM5GzjigD9vaKKKACiiigAooooAKKKKACiiigAooooA/9X+/iiiigAooooAKKKKACiiigAooooAKKKKACiiigAooooAKKKKACiiigAooooAKKKKACiiigAooooAKKKKACiiigD/1v7+KKKKACiiigAooooA5nxl4q03wL4S1TxprQf7FpFnPez+WNzeXboXbA4ycDgetfzBL/weGf8ABIYHEv8Awmq/9wVP/kiv6L/2nf8Ak3Lx4P8AqXtU/wDSWSv8IFlzQB/qqD/g8K/4JAf3/Gv/AIJE/wDkil/4jCf+CQH9/wAa/wDgkT/5Ir/KkooA/wBVv/iMJ/4JAf3/ABr/AOCRP/kij/iMJ/4JAf3/ABr/AOCRP/kiv8qSigD/AGOP+Cf/APwcD/sA/wDBSr49H9nH9ms+I28RLptxqp/tTTVtYBbWpRX+cSvzmRcDFfuBX+VZ/wAGeAP/AA93lx/0Iut/+jLWv9VBAR1oAfRRRQAUUUUAFfiH/wAFAf8Ag4D/AGAv+Cafx6H7OH7Sh8Rr4jbTbfVQNL00XUH2a6Lqh3mVOcxsCMcYr9vK/wAqz/g8Ibb/AMFb7X/sQ9D/APRl1QB/Vh/xGD/8Eg/73jX/AMEif/JFH/EYP/wSD/veNf8AwSJ/8kV/lVUUAf6rv/EYP/wSD/veNf8AwSJ/8kUf8Rg//BIP+941/wDBIn/yRX+VNv8Aajf7UAf6rP8AxGD/APBIP+941/8ABIn/AMkV/Tp4N8V6b458JaX400MP9i1ezgvbfzBtbyrhA65HY4IyO1f4Gitmv94X9mj/AJNz8A/9i5pX/pLHQB7bRRRQAUUUUAFFFFAH/9f+/iiiigAooooAKKKKAPEP2mP+Tc/Hv/Yu6p/6SyV/g7V/vE/tMf8AJufj3/sXdU/9JZK/wdqACiiigAooooA/qp/4M7B/xt4l/wCxF1r/ANG2tf6p9f5WH/BnZ/yl4l/7EXWv/RtrX+qfQAUUUUAFFFFABX+VV/weFf8AKW+1/wCxD0P/ANGXVf6qtf5VX/B4V/ylvtf+xD0P/wBGXVAH8rlFFFABRRRQBJHX+8J+zL/ybl4B/wCxc0r/ANJY6/we46/3hP2Zf+TcvAP/AGLmlf8ApLHQB7hRRRQAUUUUAFFFFAH/0P7+KKKKACiiigAooooA8L/ad/5Ny8ef9i9qn/pLJX+EHX+75+07/wAm5ePP+xe1T/0lkr/CDoAr0UUUAFFFFAH9VP8AwZ2f8peJf+xF1r/0ba1/qn1/jrf8G8/7f3wA/wCCbX/BQJv2i/2km1FPDj+GNS0kHS7X7XP9oungZP3YZflxG2Tniv7mD/wd/f8ABH9P9bceMl/7gf8A9voA/qRor+Wz/iMC/wCCPX/P34x/8Ef/ANuo/wCIwL/gj1/z9+Mf/BH/APbqAP6k6K/ls/4jAv8Agj1/z9+Mf/BH/wDbqP8AiMC/4I9f8/fjH/wR/wD26gD+pFvun6V/lX/8Hhv/AClvtP8AsQtD/wDRt1X9Xrf8HgP/AAR62kfavGX/AII//t9fw2/8HC37fPwB/wCCkH7fUH7RH7Nz6i/h2PwtpmkH+1LX7JP9otWmZ/3e5vlxIuD3oA/C6iiigAooooAkjr/eE/Zl/wCTcvAP/YuaV/6Sx1/g9x1/vCfsy/8AJuXgH/sXNK/9JY6APcKKKKACiiigAooooA//0f7+KKKKACiiigAooooA8Q/aY/5Nz8e/9i7qn/pLJX+DtX+8T+0x/wAm5+Pf+xd1T/0lkr/B2oAKKKKACiiigAooooAKKKKACiiigAooooAKKKKACiiigCSOv94T9mX/AJNy8A/9i5pX/pLHX+D3HX+8J+zL/wAm5eAf+xc0r/0ljoA9wooooAKKKKACiiigD//S/v4ooooAKKKKACiiigDwv9p3/k3Lx5/2L2qf+kslf4Qdf7vn7Tv/ACbl48/7F7VP/SWSv8IOgCvRRRQAUUUUAFFFFABRRRQAUUUUAFFFFABRRRQAUUUUASR1/vCfsy/8m5eAf+xc0r/0ljr/AAe46/3hP2Zf+TcvAP8A2Lmlf+ksdAHuFFFFABRRRQAUUUUAf//T/v4ooooAKKKKACiiigDyn46eHNV8ZfBjxZ4Q0GMS3+p6LqFrbRlggaWaB0QZbAALMOTgCv8AJz/4ha/+C3v/AESK2/8ACj0b/wCTa/14cDrTNlAH+RF/xCxf8Fv/APokVv8A+FFo3/ybR/xCxf8ABb//AKJFb/8AhRaN/wDJtf67u/2o3+1AH+RD/wAQtf8AwW9/6JFbf+FHo3/ybR/xC1/8Fvf+iRW3/hR6N/8AJtf673l0eXQB/kRf8QsX/Bb/AP6JFb/+FFo3/wAm0f8AELF/wW//AOiRW/8A4UWjf/Jtf67u/wBqN/tQB/kQ/wDELX/wW9/6JFbf+FHo3/ybR/xC1/8ABb3/AKJFbf8AhR6N/wDJtf673l0eXQB/kRf8QsX/AAW//wCiRW//AIUWjf8AybR/xCxf8Fv/APokVv8A+FFo3/ybX+u7v9qN/tQB/kQ/8Qtf/Bb3/okVt/4Uejf/ACbR/wAQtf8AwW9/6JFbf+FHo3/ybX+u95dHl0Af5EX/ABCxf8Fv/wDokVv/AOFFo3/ybR/xCxf8Fv8A/okVv/4UWjf/ACbX+u7v9qN/tQB/kQ/8Qtf/AAW9/wCiRW3/AIUejf8AybR/xC1/8Fvf+iRW3/hR6N/8m1/rveXR5dAH+Q7H/wAGtX/Bb7/okVt/4Uejf/Jtf6yPwL8O6v4P+CvhDwl4giEGoaXothaXMQZX2TQQIjruUlThgRkEj0r06JMHNTYA6UALRRRQAUUUUAFFFFAH/9T+/iiiigAooooAKKKKACiiigAooooAKKKKACiiigAooooAKKKKACiiigAooooAKKKKACiiigAooooAKKKKACiiigD/1f7+KKKKACiiigAooooAKKKKACiiigAooooAKKKKACiiigAooooAKKKKACiiigAooooAKKKKACiiigAooooAKKKKAP/W/v4ooooAKKKKACiiigAooooAKKKKACiiigAooooAKKKKACiiigAooooAKKKKACiiigAooooAKKKKACiiigAooooA/9k=;" vertex="1" parent="1">
                    <mxGeometry x="645" y="650" width="70" height="70" as="geometry"/>
                </mxCell>
                <mxCell id="40" value="" style="shape=image;verticalLabelPosition=bottom;verticalAlign=top;imageAspect=0;aspect=fixed;image=data:image/jpeg,UklGRsYEAABXRUJQVlA4ILoEAAAQJwCdASoAAQABPm02l0gkIyIhKHLoAIANiWlu/HyZUcADOzrr/Uj/E9pv935S5IT9qv13CXta/5PeB4MaSyZf/6f8T55fpv2D+k36D369C2eyyqy0LZVZaFsqstC2VWWhbJOovREL3j7dkv/0kKQjGdb8GbB+hqHVSomtzHhp9JCkDUU/wJ6yWzuuFCcP1MjZVAYTWVWWQdKLEfUYKDfZude7OUzwyxaHo4BRrcOybDPuVQ2lhD+/NdkBtjshXeb+4bN0DU5kLrnTNjBTF1cFZHac8LDkFYh44nk+HV2iMu/gm7vOWe7GhbIEY+bv+kiFpSlOqYdAkCB+AHwYsOSYgWSQvTlIcB3X+POEG8axQtlVbR95FywFaFVloWuptYs39w7LQrv55EtC2VWWgl8HdZaFsqsslO/8lJNcktC2SQAA/vVswDJUubQ8/NYLH4HdR9jsS18rfZ22L8ajXVA74gacGG2Hd82hjkLiDxr5ZsmvnB7y+LYmN/wM0O3h0z7/CK//aBCeX5fDFX7rI117VTUIl1YUNJtGjo1BMiyQwQE1cW7QdlzF6bpj/acUIe+wnrdzLa/3PM7KU6UnoScRDgVnOWP/xBolyihhsbcwix2vkj4UV5L6C1/WEyEyzOoaqOu5n/NP+f/8p6lOfybEEwfzVKqiznu13/16OB6VBfSp134aSXy6aJKbVYmUumCyagD2MZ3HVdqOnwB67LeRJH5eWXBydhrauQ81Mb59tep1boraHFjZZNeeM4EpoSS5ufe6OPog6A+01lvxDIKTK3XZsbk6aXuT4o1fZ8EP/qD4ogvtBpBD2AYruOrLPWya5GipbTHiyvokMDVPDkVzimoEFctW9OwtT8ihsMiMZ2ePi5aD9B9Uyv5ydtd1taea9Yt2mT/t6WLv8I38XcPYbYDZXtLQfVKIjt0jlg1ckxhwuuSInGCSylanFm5qJAPAbIAhO3Pv7vTbFDIRg+YBAU82P8viaLUgOygra9oxkE1o9Hn0dapJ9/mSLI3h42dcpmWF74AIMXMHNnzesxXrvhLBJa1KZ6vSgsG8O5D1x85iDcWHBxcm+mDhk4Y/AXR7P/vnR3ZpQxySP6IjmtveK2dNmCMC4gT3XDFhBcDMp68p79YQFQiRqdVAzGsM+B3rk4d8ln2o+bxd3w0/AsQchwopDC+PY9QxgBtF2PKgvXl190yFAjXisPTHGLPL+9Jh26Rr7///PpHb8uk+GBL5+pt4wxdP3L3s+u7BTt/QAIRaWzLeLYcUcuH0dNQ5ouBPo2Qzlf5br6ENzDll4e6wY11HEWk0NM7AR4G4w4B4hJIaxwe45WIP2v194vqBlpeiBhaesWoJqCtU97lZya2sHxxuLZnQFzxzTV+Xzt8Sv3saaX6VWnIma2GJK0Jam0lbjkdT9HwGHvNQDo/Z99jPUP/5ya7/oCoEL/6auH8T/fydTmphfZQRv+3/+M43nX980ZN43EO6Xj7wC0oykLY1gKLmANHhAqBm7gZPPy9CLrnePJzIxKuMvLv9IXwOyd4Qqm7GC5xQWphP5WHj7FH0/O8m9s0WZGHjw5QAt0ZRcgxgiAXUlJYEwgwABcH3nF+OTk719OxfAAAA;" vertex="1" parent="1">
                    <mxGeometry x="735" y="660" width="50" height="50" as="geometry"/>
                </mxCell>
                <mxCell id="41" value="" style="shape=image;verticalLabelPosition=bottom;verticalAlign=top;imageAspect=0;aspect=fixed;image=data:image/png,iVBORw0KGgoAAAANSUhEUgAABLAAAASwCAYAAADrIbPPAAAAAXNSR0IArs4c6QAAIABJREFUeF7s3Qe4VeWVOO516R2kF6MiNhQVEFTsjeikTBLTy6RM5pdkBMTee+8VNMkkmWQmmWjGtEkzghUUwY4K2AtN6U063P9/H5OZFAuXe8653z773c/jw5Szv2+td30orHvW3nXH3H50fbgIECBAgAABAgQIECBAgAABAgQIJCpQp4GVaGWERYAAAQIECBAgQIAAAQIECBAgUBLQwHIQCBAgQIAAAQIECBAgQIAAAQIEkhbQwEq6PIIjQIAAAQIECBAgQIAAAQIECBDQwHIGCBAgQIAAAQIECBAgQIAAAQIEkhbQwEq6PIIjQIAAAQIECBAgQIAAAQIECBDQwHIGCBAgQIAAAQIECBAgQIAAAQIEkhbQwEq6PIIjQIAAAQIECBAgQIAAAQIECBDQwHIGCBAgQIAAAQIECBAgQIAAAQIEkhbQwEq6PIIjQIAAAQIECBAgQIAAAQIECBDQwHIGCBAgQIAAAQIECBAgQIAAAQIEkhbQwEq6PIIjQIAAAQIECBAgQIAAAQIECBDQwHIGCBAgQIAAAQIECBAgQIAAAQIEkhbQwEq6PIIjQIAAAQIECBAgQIAAAQIECBDQwHIGCBAgQIAAAQIECBAgQIAAAQIEkhbQwEq6PIIjQIAAAQIECBAgQIAAAQIECBDQwHIGCBAgQIAAAQIECBAgQIAAAQIEkhbQwEq6PIIjQIAAAQIECBAgQIAAAQIECBDQwHIGCBAgQIAAAQIECBAgQIAAAQIEkhbQwEq6PIIjQIAAAQIECBAgQIAAAQIECBDQwHIGCBAgQIAAAQIECBAgQIAAAQIEkhbQwEq6PIIjQIAAAQIECBAgQIAAAQIECBDQwHIGCBAgQIAAAQIECBAgQIAAAQIEkhbQwEq6PIIjQIAAAQIECBAgQIAAAQIECBDQwHIGCBAgQIAAAQIECBAgQIAAAQIEkhbQwEq6PIIjQIAAAQIECBAgQIAAAQIECBDQwHIGCBAgQIAAAQIECBAgQIAAAQIEkhbQwEq6PIIjQIAAAQIECBAgQIAAAQIECBDQwHIGCBAgQIAAAQIECBAgQIAAAQIEkhbQwEq6PIIjQIAAAQIECBAgQIAAAQIECBDQwHIGCBAgQIAAAQIECBAgQIAAAQIEkhbQwEq6PIIjQIAAAQIECBAgQIAAAQIECBDQwHIGCBAgQIAAAQIECBAgQIAAAQIEkhbQwEq6PIIjQIAAAQIECBAgQIAAAQIECBDQwHIGCBAgQIAAAQIECBAgQIAAAQIEkhbQwEq6PIIjQIAAAQIECBAgQIAAAQIECBDQwHIGCBAgQIAAAQIECBAgQIAAAQIEkhbQwEq6PIIjQIAAAQIECBAgQIAAAQIECBDQwHIGCBAgQIAAAQIECBAgQIAAAQIEkhbQwEq6PIIjQIAAAQIECBAgQIAAAQIECBDQwHIGCBAgQIAAAQIECBAgQIAAAQIEkhbQwEq6PIIjQIAAAQIECBAgQIAAAQIECBDQwHIGCBAgQIAAAQIECBAgQIAAAQIEkhbQwEq6PIIjQIAAAQIECBAgQIAAAQIECBDQwHIGCBAgQIAAAQIECBAgQIAAAQIEkhbQwEq6PIIjQIAAAQIECBAgQIAAAQIECBDQwHIGCBAgQIAAAQIECBAgQIAAAQIEkhbQwEq6PIIjQIAAAQIECBAgQIAAAQIECBDQwHIGCBAgQIAAAQIECBAgQIAAAQIEkhbQwEq6PIIjQIAAAQIECBAgQIAAAQIECBDQwHIGCBAgQIAAAQIECBAgQIAAAQIEkhbQwEq6PIIjQIAAAQIECBAgQIAAAQIECBDQwHIGCBAgQIAAAQIECBAgQIAAAQIEkhbQwEq6PIIjQIAAAQIECBAgQIAAAQIECBDQwHIGCBAgQIAAAQIECBAgQIAAAQIEkhbQwEq6PIIjQIAAAQIECBAgQIAAAQIECBDQwHIGCBAgQIAAAQIECBAgQIAAAQIEkhbQwEq6PIIjQIAAAQIECBAgQIAAAQIECBDQwHIGCBAgQIAAAQIECBAgQIAAAQIEkhbQwEq6PIIjQIAAAQIECBAgQIAAAQIECBDQwHIGCBAgQIAAAQIECBAgQIAAAQIEkhbQwEq6PIIjQIAAAQIECBAgQIAAAQIECBDQwHIGCBAgQIAAAQIECBAgQIAAAQIEkhbQwEq6PIIjQIAAAQIECBAgQIAAAQIECBDQwHIGCBAgQIAAAQIECBAgQIAAAQIEkhbQwEq6PIIjQIAAAQIECBAgQIAAAQIECBDQwHIGCBAgQIAAAQIECBAgQIAAAQIEkhbQwEq6PIIjQIAAAQIECBAgQIAAAQIECBDQwHIGCBAgQIAAAQIECBAgQIAAAQIEkhbQwEq6PIIjQIAAAQIECBAgQIAAAQIECBDQwHIGCBAgQIAAAQIECBAgQIAAAQIEkhbQwEq6PIIjQIAAAQIECBAgQIAAAQIECBDQwHIGCBAgQIAAAQIECBAgQIAAAQIEkhbQwEq6PIIjQIAAAQIECBAgQIAAAQIECBDQwHIGCBAgQIAAAQIECBAgQIAAAQIEkhbQwEq6PIIjQIAAAQIECBAgQIAAAQIECBDQwHIGCBAgQIAAAQIECBAgQIAAAQIEkhbQwEq6PIIjQIAAAQIECBAgQIAAAQIECBDQwHIGCBAgQIAAAQIECBAgQIAAAQIEkhbQwEq6PIIjQIAAAQIECBAgQIAAAQIECBDQwHIGCBAgQIAAAQIECBAgQIAAAQIEkhbQwEq6PIIjQIAAAQIECBAgQIAAAQIECBDQwHIGCBAgQIAAAQIECBAgQIAAAQIEkhbQwEq6PIIjQIAAAQIECBAgQIAAAQIECBDQwHIGCBAgQIAAAQIECBAgQIAAAQIEkhbQwEq6PIIjQIAAAQIECBAgQIAAAQIECBDQwHIGCBAgQIAAAQIECBAgQIAAAQIEkhbQwEq6PIIjQIAAAQIECBAgQIAAAQIECBDQwHIGCBAgQIAAAQIECBAgQIAAAQIEkhbQwEq6PIIjQIAAAQIECBAgQIAAAQIECBDQwHIGCBAgQIAAAQIECBAgQIAAAQIEkhbQwEq6PIIjQIAAAQIECBAgQIAAAQIECBDQwHIGCBAgQIAAAQIECBAgQIAAAQIEkhbQwEq6PIIjQIAAAQIECBAgQIAAAQIECBDQwHIGCBAgQIAAAQIECBAgQIAAAQIEkhbQwEq6PIIjQIAAAQIECBAgQIAAAQIECBDQwHIGCBAgQIAAAQIECBAgQIAAAQIEkhbQwEq6PIIjQIAAAQIECBAgQIAAAQIECBDQwHIGCBAgQIAAAQIECBAgQIAAAQIEkhbQwEq6PIIjQIAAAQIECBAgQIAAAQIECBDQwHIGCBAgQIAAAQIECBAgQIAAAQIEkhbQwEq6PIIjQIAAAQIECBAgQIAAAQIECBDQwHIGCBAgQIAAAQIECBAgQIAAAQIEkhbQwEq6PIIjQIAAAQIECBAgQIAAAQIECBDQwHIGCBAgQIAAAQIECBAgQIAAAQIEkhbQwEq6PIIjQIAAAQIECBAgQIAAAQIECBDQwHIGCBAgQIAAAQIECBAgQIAAAQIEkhbQwEq6PIIjQIAAAQIECBAgQIAAAQIECBDQwHIGCBAgQIAAAQIECBAgQIAAAQIEkhbQwEq6PIIjQIAAAQIECBAgQIAAAQIECBDQwHIGCBAgQIAAAQIECBAgQIAAAQIEkhbQwEq6PIIjQIAAAQIECBAgQIAAAQIECBDQwHIGCBAgQIAAAQIECBAgQIAAAQIEkhbQwEq6PIIjQIAAAQIECBAgQIAAAQIECBDQwHIGCBAgQIAAAQIECBAgQIAAAQIEkhbQwEq6PIIjQIAAAQIECBAgQIAAAQIECBDQwHIGCBAgQIAAAQIECBAgQIAAAQIEkhbQwEq6PIIjQIAAAQIECBAgQIAAAQIECBDQwHIGCBAgQIAAAQIECBAgQIAAAQIEkhbQwEq6PIIjQIAAAQIECBAgQIAAAQIECBDQwHIGCBAgQIAAAQIECBAgQIAAAQIEkhbQwEq6PIIjQIAAAQIECBAgQIAAAQIECBDQwHIGCBAgQIAAAQIECBAgQIAAAQIEkhbQwEq6PIIjQIAAAQIECBAgQIAAAQIECBDQwHIGCBAgQIAAAQIECBAgQIAAAQIEkhbQwEq6PIIjQIAAAQIECBAgQIAAAQIECBDQwHIGCBAgQIAAAQIECBAgQIAAAQIEkhbQwEq6PIIjQIAAAQIECBAgQIAAAQIECBDQwHIGCBAgQIAAAQIECBAgQIAAAQIEkhbQwEq6PIIjQIAAAQIECBAgQIAAAQIECBDQwHIGCBAgQIAAAQIECBAgQIAAAQIEkhbQwEq6PIIjQIAAAQIECBAgQIAAAQIECBDQwHIGCBAgQIAAAQIECBAgQIAAAQIEkhbQwEq6PIIjQIAAAQIECBAgQIAAAQIECBDQwHIGCBAgQIAAAQIECBAgQIAAAQIEkhbQwEq6PIIjQIAAAQIECBAgQIAAAQIECBDQwHIGCBAgQIAAAQIECBAgQIAAAQIEkhbQwEq6PIIjQIAAAQIECBAgQIAAAQIECBDQwHIGCBAgQIAAAQIECBAgQIAAAQIEkhbQwEq6PIIjQIAAAQIECBAgQIAAAQIECBDQwHIGCBAgQIAAAQIECBAgQIAAAQIEkhbQwEq6PIIjQIAAAQIECBAgQIAAAQIECBDQwHIGCBAgQIAAAQIECBAgQIAAAQIEkhbQwEq6PIIjQIAAAQIECBAgQIAAAQIECBDQwHIGCBAgQIAAAQIECBAgQIAAAQIEkhbQwEq6PIIjQIAAAQIECBAgQIAAAQIECBDQwHIGCBAgQIAAAQIECBAgQIAAAQIEkhbQwEq6PIIjQIAAAQIECBAgQIAAAQIECBDQwHIGCBAgQIAAAQIECBAgQIAAAQIEkhbQwEq6PIIjQIAAAQIECBAgQIAAAQIECBDQwHIGCBAgQIAAAQIECBAgQIAAAQIEkhbQwEq6PIIjQIAAAQIECBAgQIAAAQIECBDQwHIGCBAgQIAAAQIECBAgQIAAAQIEkhbQwEq6PIIjQIAAAQIECBAgQIAAAQIECBDQwHIGCBAgQIAAAQIECBAgQIAAAQIEkhbQwEq6PIIjQIAAAQIECBAgQIAAAQIECBDQwHIGCBAgQIAAAQIECBAgQIAAAQIEkhbQwEq6PIIjQIAAAQIECBAgQIAAAQIECBDQwHIGCBAgQIAAAQIECBAgQIAAAQIEkhbQwEq6PIIjQIAAAQIECBAgQIAAAQIECBDQwHIGCBAgQIAAAQIECBAgQIAAAQIEkhbQwEq6PIIjQIAAAQIECBAgQIAAAQIECBDQwHIGCBAgQIAAAQIECBAgQIAAAQIEkhbQwEq6PIIjQIAAAQIECBAgQIAAAQIECBDQwHIGCBAgQIAAAQIECBAgQIAAAQIEkhbQwEq6PIIjQIAAAQIECBAgQIAAAQIECBDQwHIGCBAgQIAAAQIECBAgQIAAAQIEkhbQwEq6PIIjQIAAAQIECBAgQIAAAQIECBDQwHIGCBAgQIAAAQIECBAgQIAAAQIEkhbQwEq6PIIjQIAAAQIECBAgQIAAAQIECBDQwHIGCBAgQIAAAQIECBAgQIAAAQIEkhbQwEq6PIIjQIAAAQIECBAgQIAAAQIECBDQwHIGCBAgQIAAAQIECBAgQIAAAQIEkhbQwEq6PIIjQIAAAQIECBAgQIAAAQIECBDQwHIGCBAgQIAAAQIECBAgQIAAAQIEkhbQwEq6PIIjQIAAAQIECBAgQIAAAQIECBDQwHIGCBAgQIAAAQIECBAgQIAAAQIEkhbQwEq6PIIjQIAAAQIECBAgQIAAAQIECBDQwHIGCBAgQIAAAQIECBAgQIAAAQIEkhbQwEq6PIIjQIAAAQIECBAgQIAAAQIECBDQwHIGCBAgQIAAAQIECBAgQIAAAQIEkhbQwEq6PIIjQIAAAQIECBAgQIAAAQIECBDQwHIGCBAgQIAAAQIECBAgQIAAAQIEkhbQwEq6PIIjQIAAAQIECBAgQIAAAQIECBDQwHIGCBAgQIAAAQIECBAgQIAAAQIEkhbQwEq6PIIjQIAAAQIECBAgQIAAAQIECBDQwHIGCBAgQIAAAQIECBAgQIAAAQIEkhbQwEq6PIIjQIAAAQIECBAgQIAAAQIECBDQwHIGCBAgQIAAAQIECBAgQIAAAQIEkhbQwEq6PIIjQIAAAQIECBAgQIAAAQIECBDQwHIGCBAgQIAAAQIECBAgQIAAAQIEkhbQwEq6PIIjQIAAAQIECBAgQIAAAQIECBDQwHIGCBAgQIAAAQIECBAgQIAAAQIEkhbQwEq6PIIjQIAAAQIECBAgQIAAAQIECBDQwHIGCBAgQIAAAQIECBAgQIAAAQIEkhbQwEq6PIIjQIAAAQIECBAgQIAAAQIECBDQwHIGCBAgQIAAAQIECBAgQIAAAQIEkhbQwEq6PIIjQIAAAQIECBAgQIAAAQIECBDQwHIGCBAgQIAAAQIECBAgQIAAAQIEkhbQwEq6PIIjQIAAAQIECBAgQIAAAQIECBDQwHIGCBAgQIAAAQIECBAgQIAAAQIEkhbQwEq6PIIjQIAAAQIECBAgQIAAAQIECBDQwHIGCBAgQIAAAQIECBAgQIAAAQIEkhbQwEq6PIIjQIAAAQIECBAgQIAAAQIECBDQwHIGCBAgQIAAAQIECBAgQIAAAQIEkhbQwEq6PIIjQIAAAQIECBAgQIAAAQIECBDQwHIGCBAgQIAAAQIECBAgQIAAAQIEkhbQwEq6PIIjQIAAAQIECBAgQIAAAQIECBDQwHIGCBAgQIAAAQIECBAgQIAAAQIEkhbQwEq6PIIjQIAAAQIECBAgQIAAAQIECBDQwHIGCBAgQIAAAQIECBAgQIAAAQIEkhbQwEq6PIIjQIAAAQIECBAgQIAAAQIECBDQwHIGCBAgQIAAAQIECBAgQIAAAQIEkhbQwEq6PIIjQIAAAQIECBAgQIAAAQIECBDQwHIGCBAgQIAAAQIECBAgQIAAAQIEkhbQwEq6PIIjQIAAAQIECBAgQIAAAQIECBDQwHIGCBAgQIAAAQIECBAgQIAAAQIEkhbQwEq6PIIjQIAAAQIECBAgQIAAAQIECBDQwHIGCBAgQIAAAQIECBAgQIAAAQIEkhbQwEq6PIIjQIAAAQIECBAgQIAAAQIECBDQwHIGCBAgQIAAAQIECBAgQIAAAQIEkhbQwEq6PIIjQIAAAQIECBAgQIAAAQIECBDQwHIGCBAgQIAAAQIECBAgQIAAAQIEkhbQwEq6PIIjQIAAAQIECBAgQIAAAQIECBDQwHIGCBAgQIAAAQIECBAgQIAAAQIEkhbQwEq6PIIjQIAAAQIECBAgQIAAAQIECBDQwHIGCBAgQIAAAQIECBAgQIAAAQIEkhbQwEq6PIIjQIAAAQIECBAgQIAAAQIECBDQwHIGCBAgQIAAAQIECBAgQIAAAQIEkhbQwEq6PIIjQIAAAQIECBAgQIAAAQIECBDQwHIGCBAgQIAAAQIECBAgQIAAAQIEkhbQwEq6PIIjQIAAAQIECBAgQIAAAQIECBDQwHIGCBAgQIAAAQIECBAgQIAAAQIEkhbQwEq6PIIjQIAAAQIECBAgQIAAAQIECBDQwHIGCBAgQIAAAQIECBAgQIAAAQIEkhbQwEq6PIIjQIAAAQIECBAgQIAAAQIECBDQwHIGCBAgQIAAAQIECBAgQIAAAQIEkhbQwEq6PIIjQIAAAQIECBAgQIAAAQIECBDQwHIGCBAgQIAAAQIECBAgQIAAAQIEkhbQwEq6PIIjQIAAAQIECBAgQIAAAQIECBDQwHIGCBAgQIAAAQIECBAgQIAAAQIEkhbQwEq6PIIjQIAAAQIECBAgQIAAAQIECBDQwHIGCBAgQIAAAQIECBAgQIAAAQIEkhbQwEq6PIIjQIAAAQIECBAgQIAAAQIECBDQwHIGCBAgQIAAAQIECBAgQIAAAQIEkhbQwEq6PIIjQIAAAQIECBAgQIAAAQIECBDQwHIGCBAgQIAAAQIECBAgQIAAAQIEkhbQwEq6PIIjQIAAAQIECBAgQIAAAQIECBDQwHIGCBAgQIAAAQIECBAgQIAAAQIEkhbQwEq6PIIjQIAAAQIECBAgQIAAAQIECBDQwHIGCBAgQIAAAQIECBAgQIAAAQIEkhbQwEq6PIIjQIAAAQIECBAgQIAAAQIECBDQwHIGCBAgQIAAAQIECBAgQIAAAQIEkhbQwEq6PIIjQIAAAQIECBAgQIAAAQIECBDQwHIGCBAgQIAAAQIECBAgQIAAAQIEkhbQwEq6PIIjQIAAAQIECBAgQIAAAQIECBDQwHIGCBAgQIAAAQIECBAgQIAAAQIEkhbQwEq6PIIjQIAAAQIECBAgQIAAAQIECBDQwHIGCBAgQIAAAQIECBAgQIAAAQIEkhbQwEq6PIIjQIAAAQIECBAgQIAAAQIECBDQwHIGCBAgQIAAAQIECBAgQIAAAQIEkhbQwEq6PIIjQIAAAQIECBAgQIAAAQIECBDQwHIGCBAgQIAAAQIECBAgQIAAAQIEkhbQwEq6PIIjQIAAAQIECBAgQIAAAQIECBDQwHIGCBAgQIAAAQIECBAgQIAAAQIEkhbQwEq6PIIjQIAAAQIECBAgQIAAAQIECBDQwHIGCBAgQIAAAQIECBAgQIAAAQIEkhbQwEq6PIIjQIAAAQIECBAgQIAAAQIECBDQwHIGCBAgQIAAAQIECBAgQIAAAQIEkhbQwEq6PIIjQIAAAQIECBAgQIAAAQIECBDQwHIGCBAgQIAAAQIECBAgQIAAAQIEkhbQwEq6PIIjQIAAAQIECBAgQIAAAQIECBDQwHIGCBAgQIAAAQIECBAgQIAAAQIEkhbQwEq6PIIjQIAAAQIECBAgQIAAAQIECBDQwHIGCBAgQIAAAQIECBAgQIAAAQIEkhbQwEq6PIIjQIAAAQIECBAgQIAAAQIECBDQwHIGCBAgQIAAAQIECBAgQIAAAQIEkhbQwEq6PIIjQIAAAQIECBAgQIAAAQIECBDQwHIGCBAgQIAAAQIECBAgQIAAAQIEkhbQwEq6PIIjQIAAAQIECBAgQIAAAQIECBDQwHIGCBAgQIAAAQIECBAgQIAAAQIEkhbQwEq6PIIjQIAAAQIECBAgQIAAAQIECBDQwHIGCBAgQIAAAQIECBAgQIAAAQIEkhbQwEq6PIIjQIAAAQIECBAgQIAAAQIECBDQwHIGCBAgQIAAAQIECBAgQIAAAQIEkhbQwEq6PIIjQIAAAQIECBAgQIAAAQIECBDQwHIGCBAgQIAAAQIECBAgQIAAAQIEkhbQwEq6PIIjQIAAAQIECBAgQIAAAQIECBDQwHIGCBAgQIAAAQIECBAgQIAAAQIEkhbQwEq6PIIjQIAAAQIECBAgQIAAAQIECBDQwHIGCBAgQIAAAQIECBAgQIAAAQIEkhbQwEq6PIIjQIAAAQIECBAgQIAAAQIECBDQwHIGCBAgQIAAAQIECBAgQIAAAQIEkhbQwEq6PIIjQIAAAQIECBAgQIAAAQIECBDQwHIGCBAgQIAAAQIECBAgQIAAAQIEkhbQwEq6PIIjQIAAAQIECBAgQIAAAQIECBDQwHIGCBAgQIAAAQIECBAgQIAAAQIEkhbQwEq6PIIjQIAAAQIECBAgQIAAAQIECBDQwHIGCBAgQIAAAQIECBAgQIAAAQIEkhbQwEq6PIIjQIAAAQIECBAgQIAAAQIECBDQwHIGCBAgQKDsAi2btYy6urq/Wrd5XYtoXtcsNtVvKv2zftP6su9rQQIECBAgQIAAAQIEalNAA6s26yorAgQIbJVAy+YtY5vW28Q2bbaJTq06RftWHaJDyw7RoVX70q9//t/bt2wXrZq3jlbNW0Xrv/k1a15t6bVx88ZSM2vj5g2xfvOGyP73NRvWxJqNa2L1htWxZtOaWLNhdaz+0/9txfoVsWLd8li+bnlk/3Pp13UrYsPmDVu6pc8RqGmB/l36xy5dd63pHCX39wKTZj9Q+nemiwCB2hEY1md4dGvbrXYSksn7Cjy/5Ll4Zdkr7/u5In9AA6vI1Zc7AQKFEmjTok30bNczerXrFT3b9yz9z9u06VpqVv25adWhVYdcmqze8FYsXbs0Fq1Z9Kd/FseiNQtj0epFsXjN4liwekGpKeYiUOsCnVp3ivEjb4nOrTvXeqry+wuBu175Y4x7fBwTAgRqRGCXrrvEVYddHc3qmtVIRtJ4P4Hsh7KjJ4wq/XDW9e4CGlhOBwECBGpIoF3LdtGvw7axbcd+sW3HbaNPhz7RM2tYtetZ+L/QLlu7NOa9NT/mr5of8//866p5MW/VPM2tGvo9IJWIA/odEGfsfyaKgglcMPn8ePzNxwuWtXQJ1J5A9u32G468sfTnOFdxBK6aemVMnjO5OAlvZaYaWFsJ5zYCBAg0pUDWqNqhc//YofMO0a9D39Ifcvp26FdqVLkaJlAf9bFkzZKYvfL1eG35a/HK8lfitRWvx5yVsz2nq2GUPp2QwGn7nR4HbXtQQhEJpdIC2TdOx0wcHW9teKvSW1mfAIEKCnx1z6/FsbscW8EdLJ2awJS5D8XlD1+eWlhJxqOBlWRZBEWAAIH/E8ief9C/846xY5f+pV+zZ9z0bt876uKvH5LOrLwCm+s3l76p9dLSF+PFZS/Fi0tfjJeXvRxrNnrOTHmlrVYJAaOElVBNf82Jr06Imx67Kf1ARUiAwDsK7NZtt7ji0CuNDhbofGTPdB1113FGB7ew5hpYWwjlYwQIEKiGQPacqp267BS7dt01BmyzU+zWdTcP8KwG/BbukX1ba8FbC+LFZS/GrMUzY+bimaVvbGUPn3cRSE3AKGFqFalOPBc9eGE8+saj1dnMLgQIlE0gGx288cgbo5/RwbKZ5mGhq6ZeFZPnTMpDqEnEqIEI3bPlAAAgAElEQVSVRBkEQYBAUQV6tOsRg7oPiuxhnbt23a00Eti8rnlROXKZ9/rN6+OFJS/EzMUzYsaiGTFrySwjPLmsZG0Gfdp+p8VB2x5cm8nJ6h0FspdZjJlglNDxIJA3gX/e6+vx8Z0/nrewxdsIAaODDcfTwGq4mTsIECCw1QLZOOCePfaMvXrsFYN67Fl6I6CrtgTq6+vjtRWvxvSF02P6wqdj5qIZsWrDqtpKUja5ETBKmJtSlTXQu1+7O2589IayrmkxAgQqJ2B0sHK2qa68cv3KOO6ufzU62MACaWA1EMzHCRAg0BCBjq06xpBeQ2LPHnvF7t1290aZhuDVyGezZ2llY4ZPvPlEPLngiZi1eFZs2LyhRrKTRh4ERvQ7IM70VsI8lKqsMV7y0MUxbf60sq5pMQIEyi/QunnruPGom6Jvh77lX9yKyQpcPe2qmDTb6GBDC6SB1VAxnydAgMB7CDSraxY7dtkxhvQaGvv02qf0LKvs/+Yi8GeBbOTw6QXT49E3His9p2bB6jfhEKi4gFHCihMnt8HiNYtjzMQxsWr9yuRiExABAv8n8PW9/yU+ttPHkBRIYMq8KXH5lMsKlHH5UtXAKp+llQgQKKhAh1YdYnjv4bF3z8ExtNfQ6Ny6c0ElpL01ArNXvh6PzH80HnljWjy3+LnYVL9pa5ZxD4H3FOjUqlOM/+At/v1UsHNyz2v3xA2PXl+wrKVLID8CA7sPjCsOuTLq6rxZOj9Va1yk2ehg9tbBZeuWNW6hgt6tgVXQwkubAIHGCXRt2zX27b1v7N9vROzZfc9o0axF4xZ0N4GI0sPfp86fGg/NfTCefPNJo4ZORVkFjBKWlTM3i1065dKYOu/h3MQrUAJFEchGB2866ubo06FPUVKWZ0QYHWzcMdDAapyfuwkQKJBAn/Z9YkS/EbFvn/0ie9hmXfhpWYHKX/VU12xcE4+98Vg8NO+heHT+I7Fu07qqx2DD2hMwSlh7NX2/jJasXVJ6K2H2U38XAQLpCHxj8DfiIwM+mk5AIqm4gNHBxhNrYDXe0AoECNSwQNa0Omjbg+KQDxwa23XaroYzlVrKAlnz6pH50+LBuQ+WHsq8cfPGlMMVW8ICRgkTLk4FQ7vv9fviukeureAOliZAoCECe3QfFJcdcpnRwYag5fyzRgfLU0ANrPI4WoUAgRoS6NmuZxy87cFx4LYHxoAuO9VQZlKpBYHVG96KyXMfjPtevzdmLJ4R9fX1tZCWHKooYJSwitgJbXXZlEvjYaOECVVEKEUVaN2iddx81Ljo3b53UQkKmfc1066OB2Y/UMjcy5m0BlY5Na1FgEBuBdq2aBsH9DswDtvusNizx57GA3NbyWIFnr1lbPKcyTHxtQnx+orXi5W8bBslcOp+p5Ua9a7iCCxduzTGTBwdK9atKE7SMiWQoMA3B38zPjzgIwlGJqRKCTw8b0pc5q2DZeHVwCoLo0UIEMijQLO6ZjGk55A4dLvDYkTfEdGqeas8piFmAiWBF5a+EHe+cmepobV24xoqBN5ToGPprYTjo0vrLqQKJPDA7PvjmmnXFChjqRJIS2BQjz3j0kMu9YPStMpS0WhKo4MTjotla711sBzQGljlULQGAQK5EujRrkcctf3IOGL7IyIbF3QRqCWB7HlZ2bOy7nrlrpi5eEYtpSaXMgsYJSwzaE6Wu/zhy2PK3IdyEq0wCdSOQJsWbUqjg73a96qdpGTyvgLXTrsm7p99//t+zge2TEADa8ucfIoAgZwLtGjWIvbru38c0/8YI4I5r6Xwt1wgGyv84yt3xj2v3xvZs7NcBP5WwChh8c7EsnXLYvSEUUYJi1d6GTexwDcHfys+PODDTRyF7aspkD13MHv+oKt8AhpY5bO0EgECCQp0b9s9Ru7wwRi5w8jo1rZbghEKiUDlBdZsXFP66d/vX/pdvLbitcpvaIfcCBglzE2pyhropNkPxNXTri7rmhYjQODdBfbqsVdcfMglRgcLdEjeHh0cFcvWLi1Q1pVPVQOr8sZ2IECgygJ1URd79dw7PjLgwzGs9/DInnXlIkDgbYGnFz4dv3/5dzF13tTYVL8JC4HYv++IOGvEWSQKJnDl1CvjwTmTC5a1dAlUXyB7UdDNI2+Onu2MDlZfv+l2vPaRa+L+140OlrsCGljlFrUeAQJNJpA9hP2QDxwSHxnw0ejfuX+TxWFjAnkQWLh6Yfz2pd/GXa/+MVZvWJ2HkMVYQYFT9j219O9PV3EElq9bXholzH51ESBQOYHjhoyKY3Y8pnIbWDk5AaODlSuJBlblbK1MgECVBLq26Rof2vFD8cH+R0fn1p2rtKttCNSGQNa8yppY//Pi/8TiNYtrIylZNFjAKGGDyWrihgfnPBhXTr2iJnKRBIEUBfbuuXdcdPDFRgdTLE6FYspGB7MfDiw1OlgRYQ2sirBalACBaghs2/ED8bGdPxaHb3d4tGzWshpb2oNAzQps3LwxHpr7UPz8+Tvi1eWv1myeEnt3AaOExTwdV029MiYbJSxm8WVdUYF2LduV3jqYvf3aVRyB6x65Nu57/b7iJFzlTDWwqgxuOwIEGi8wsNvA+NjOH4/9++wfdXV1jV/QCgQI/JXAo288GrfN/Gm8sPQFMgUTMEpYsIJHxIr1K2LUXccZJSxe6WVcYYFRQ0fH0f2PrvAulk9JYNr8qXHJQ5ekFFLNxaKBVXMllRCB2hUY1H1QfGa3z0b2dWwXAQKVF5i+cHr896yfRfarqxgCnVp1inEfHB9dWncpRsKyLAlMmTclLp9yGQ0CBMokMLjnkLjo4IvKtJpl8iCwasOq0g8DjA5WtloaWJX1tToBAo0UyN4ouE/vYfHp3T4du3XdrZGruZ0Aga0RmLl4Ztw267Z48s0ntuZ29+RMwChhzgpWpnCvnnZVTJo9qUyrWYZAcQWy0cFxI8dH97bdi4tQwMyNDlan6BpY1XG2CwECWyEwpNfQ+PzAz8euXXfdirvdQoBAuQVmLZ4ZP57x43h64dPlXtp6iQkYJUysIFUIJ3vw8KgJx8WytcuqsJstCNSuwJh9jo+RO4ys3QRl9ncC0+ZPi0seuphMFQQ0sKqAbAsCBBomkI0IZo2rgd12b9iNPk2AQFUEnlrwVPxkxk/iuSWzqrKfTaovYJSw+uYp7OjV7ylUQQx5Fhjaa2hccNCFeU5B7A0UeHt0MHvr4JIG3unjWyOggbU1au4hQKAiAjtvs0t8bc+vxR7d96jI+hYlQKC8Atlfdm+fdVu8vOzl8i5stSQE9u+7f5w14uwkYhFE9QSunXZN3D/7/uptaCcCNSLQrmX7GD9yfHRr261GMpLGlghc/8h1ce/r927JR32mDAIaWGVAtAQBAo0T6NexX3x10Fdj3z77NW4hdxMgUHWB+vr6uG/2ffFfM34SC1YvqPr+NqyswMn7nhKHfuDQym5i9aQEslHC0ROybxMsTSouwRBIXeD4fcbGUTsclXqY4iujwCPzp8XFRgfLKPr+S2lgvb+RTxAgUCGBHu16xGd3+1wcuf2R0ayuWYV2sSwBAtUQ2LB5Q/zmxd/Efz/3s1i9YXU1trRHFQQ6tuoY40feEl3aeCthFbiT2cKr4JMphUByIjCs97A478DzcxKtMMshkI0Ojr5rVCwxOlgOzi1eQwNri6l8kACBcgm0bdE2jt3lk/HxnT8erZq3Ktey1iFAIAGB7Nsbt838adz5yp2xcfPGBCISQmMFjBI2VjCf91/3yHVxn7GYfBZP1FUV6NCyQ4z74Ljo2sboYFXhm3gzo4NNUwANrKZxtyuBQgpk37I6fLsj4kt7fCm6tulaSANJEyiKwNxVc+NHz/wwps6bWpSUazpPo4Q1Xd53TM63C4pXcxlvncAJw06II7Y/cutudlcuBYwONl3ZNLCazt7OBAolMKj7oPjG3t+M7TtvX6i8JUug6AKPvfFY/ODp78eclXOKTpHr/I0S5rp8Wx28v6RtNZ0bCyIwvM++ce4B5xYkW2lmAm/96a2DRgeb5jxoYDWNu10JFEage9vu8ZVBX4lDPAS4MDWXKIG/FchGCX/z0m/iZ7Nu93ysHB8Po4Q5Ll4jQr/h0RvintfubsQKbiVQmwIdWnWIcSPHmyqozfK+a1b+ndi0BdfAalp/uxOoWYHs2VbZM64+ueunok3zNjWbp8QIENhygWVrl8UPnv5BPDD7/qiP+i2/0SeTETBKmEwpqhZI9m2D0RNGx+I1i6u2p40I5EHgpOEnxWHbHZ6HUMVYJoFH33g0LnrwwjKtZpmtEdDA2ho19xAg8J4Cg3sOiW8N+Vb0ad+HFAECBP5O4NlFz8StT94as1fMppMzgbdHCcdHlzbb5Cxy4TZGwF/aGqPn3loU2LfPfnHOAefUYmpyeheB0ujghFGxZM0SRk0ooIHVhPi2JlBrAtu02Sa+uufX4rAPHFZrqcmHAIEyC2Rjhb984Zdx+6zbYsOmDWVe3XKVFNiv7/5x9oizK7mFtRMUuOmxG2PiqxMTjExIBKorkI0Ojh95S2R/7nUVR+DGR2+Iu41TN3nBNbCavAQCIJB/geztgkf3Pzr+aY8vR/uW7fOfkAwIEKiawPxV82P8E+Pj6YXTq7anjRovcPLwk+PQ7fywovGS+Vlh9YbVpW8fLF6zKD9Bi5RABQROHn5KHLrdoRVY2ZKpCvgWajqV0cBKpxYiIZBLgQ90+kCMGjI6BnYbmMv4BU2AQBoC982+N74//fuxYt2KNAISxXsKZKOE2cOLfQOhWAfl8TcfjwsnX+AZdsUqu2z/QmD/viPirBFnMSmQwFsb3orRpea95wCmUHYNrBSqIAYCORRo3qx5fGLnT8TnBn4+WjZrmcMMhEyAQGoCy9ctj+88+e14cO6DqYUmnncQ2K/PfnG2Z8AU7mzc/NhNMeHVCYXLW8IEOrbqFOM/OD66tO4Co0ACNz52Q9z9qjexplJyDaxUKiEOAjkSGNBlQIwdNja277RDjqIWKgECeRGYPGdyfPep70TW0HKlLWCUMO36VCK61RtXl95KuGj1wkosb00CyQqcsu+pccgHDkk2PoGVX8DoYPlNG7uiBlZjBd1PoEACLZq1iE/v+un49G6fieZ1zQuUuVQJEKi2QOnbWE99Ox6c49tY1bZvyH4eZtwQrdr57JMLnojzJ51vlLB2SiqT9xEY0e+AOHP/MzkVSMDoYJrF1sBKsy6iIpCcQP/O/WPssBMi+9VFgACBaglMmTclbn3iFt/Gqhb4VuxjlHAr0GrglvGPj48/vnJnDWQiBQLvLdCpdafSWwc7t+6MqkAC3ryaZrE1sNKsi6gIJCOQvWHwE7t8Ir4w8IuRfQPLRYAAgWoLLFu7NG5+fFw8+sYj1d7aflsocNLwk+MwbyXcQq3a+NiaP40SLjRKWBsFlcW7Cpy23+lx0LYHESqQwGNvPBYXPnhBgTLOT6oaWPmplUgJVF2gR7seceKwk2KP7ntUfW8bEiBA4G8F/vDyH+Lfn/5BrNu0Dk5iAkYJEytIlcJ5asFTcd7kc6O+vr5KO9qGQHUFDuh3QJxhdLC66E282+oNq2PUhOO8dbCJ6/Bu22tgJVoYYRFoaoHsIZXfGvyv0b5l+6YOxf4ECBD4X4F5q+bGdY9cFy8sfYFKYgL79tkvzvFWwsSqUvlwbnnilrjz5T9UfiM7EKiyQDYyOH7k+OhkdLDK8k273U2P3RQTvWm1aYvwHrtrYCVbGoERaBqBdi3bxXFDRsXB2x7cNAHYlQABAu8jsHHzxvivmT+JXz7/y9hcv5lXQgJGCRMqRpVCWbtxbYyZODrefOvNKu1oGwLVETh9/zPiwH4HVmczuyQh8Pibj8UFk40OJlGMdwlCAyvl6oiNQJUFduqyU5y87ynRt0PfKu9sOwIECDRc4OmFT8d1j1wbS9YuafjN7qiIgFHCirAmv+j0hdPj3EnnGCVMvlIC3FKBg7Y9OE7b77Qt/bjP1YBANjo4esKoWLRmUQ1kU7spaGDVbm1lRmCLBeqiLj6600fjK4O+6kHtW6zmgwQIpCCwbN2y0kjhUwueTCEcMUTEvn32jXMOOJdFwQS+8+S343cv/a5gWUu3FgW6tOkS447KRgc71WJ6cnoXgZsfuykmGB1M/nxoYCVfIgESqKxA+5Yd4sThJ8bw3sMru5HVCRAgUCGBbIzwjufuiNtm/jQ21W+q0C6WbYjAScNPisO2O7wht/hszgXeHiUcE2++9UbOMxF+0QXO3P+sGNFvRNEZCpX/428+HhdMPr9QOec1WQ2svFZO3ATKILDTNjvFqfueFr3b9y7DapYgQIBA0wo8s+iZ0kjh4jWLmzYQu4dRwmIegmcWPh1nTzrbKGExy18TWR/6gUNLj9NwFUdg9cbVMfouo4N5qbgGVl4qJU4CZRb4hx3/If5lr/9nZLDMrpYjQKBpBZavWx7XPHJNTF/wVNMGYnejhAU9A9958jvxu5d+W9DspZ1ngW3abBM3jxwXnVoZHcxzHRsau9HBhoo17ec1sJrW3+4Eqi7QunnrGD10dBzygUOrvrcNCRAgUA2BbIzwP5/9z/jl87+oxnb2eA8Bo4TFOx7rNq2LMRPGxBtvzS9e8jLOtcBZI86O/fvun+scBN8wgWx08MLJF0R91DfsRp9uMgENrCajtzGB6gv0aNcjztr/7Nixy47V39yOBAgQqLLAg3MfjOwnq2s2rqnyzrb7s0A2Sjhu5Pjo2qYrlAIJPLvo2Tj7gbMiez6di0AeBA7d7rA4efjJeQhVjGUSKI0OThgdi1YvLNOKlqmGgAZWNZTtQSABgb177h2n7Huqr0UnUAshECBQPYHZK2fHFQ9fHnNWzqnepnb6KwFvJSzmgfjuU9+N3774m2ImL+tcCWQN9mx0sGOrjrmKW7CNExj3+Li465U/Nm4Rd1ddQAOr6uQ2JFB9gY/v/In48qAvR/O65tXf3I4ECBBoYoHVG1bHdY9eF4/Mn9bEkRR3+xOHnxSHeythoQ5ANkp4/MQxMX+VUcJCFT6HyZ59wNmxXx+jgzks3VaH/OSCJ+L8SecbHdxqwaa7UQOr6eztTKDiAi2btYx/HfKvceT2R1V8LxsQIEAgZYH6+vr48Yz/jDueuyPlMGs2NqOENVva90xs5uKZceb9ZxglLGb5c5H1EdsfEScMOzEXsQqyPALZ6OCYCaNjodHB8oBWeRUNrCqD245AtQQ6t+5cet7Vbt12q9aW9iFAgEDyAve+fk+Mf2J8bNi0IflYay1Ao4S1VtEty+f7078Xv37h11v2YZ8iUEWBbm27xc1HjYuswe4qjsD4x8fFH40O5rbgGli5LZ3ACby7QP/O/SN7k0rPdj0xESBAgMDfCMxaPDMue/iyWL5uOZsqCxglrDJ4Attlo4RjJx4f81bNSyAaIRD4P4FzDzw3hvfeF0mBBJ5c8GScP+k8o4M5rrkGVo6LJ3QC7ySwT6994tT9Tou2LdoCIkCAAIF3EVi4ZmFc8tDF8eryVxlVUaBDyw4x7oPeSlhF8iS2mrV4Vpxx/+lGCZOohiAygSO3PzLGDjsBRoEEjA7WRrE1sGqjjrIgUBI4uv8x8c3B3/SwdueBAAECWyCwZuOauGrqlfH4m49vwad9pFwCw3oPj/MOPK9cy1knJwI/mP79+NULv8pJtMKsZYHubbuX3jrYvmX7Wk5Tbn8jYHSwNo6EBlZt1FEWBReoq6uLL+/x5Th2l08WXEL6BAgQaJjApvpNcesTt8aEV+9q2I0+3SiBE4adEEdsf2Sj1nBzvgTWb1ofY+8eG3NXzslX4KKtOYHzDjw/hvUeVnN5SejdBYwO1s7p0MCqnVrKpKACLZq1KL095eBtDy6ogLQJECDQeIHbZt4Wt838qediNJ5yi1YwSrhFTDX3oecWz4rTjRLWXF3zlNBROxwVx+8zNk8hi7WRAms2ro7R3jrYSMV0btfASqcWIiHQYIHsOVdn7H9mDO45uMH3uoEAAQIE/lrgnteyNxSOi42bN6KpgoBRwiogJ7jFD5/+9/jF879IMDIh1bpAj3Y94qajbjY6WOuF/pv8bnl8fNz5yp0Fy7p209XAqt3ayqzGBbZps02cc8C5sVOXnWo8U+kRIECgegJPLXgyLn/48siej+WqvIBRwsobp7bDhk0bSqOEc1bOTi008dS4wAUHXRhDew2t8Syl95cCRgdr7zxoYNVeTWVUAIE+HfrE+QdcENmvLgIECBAor8CLS1+MCx+6IFasW1Heha32dwJGCYt5KJ5f8nycdt+p3kpYzPI3SdYf7H90jB46ukn2tmnTCGQ/iBozYXQsWL2gaQKwa0UENLAqwmpRApUT2L7T9nHhQRdF9g0sFwECBAhURiB70PR5k8+LRWsWVWYDq/6vgFHCYh6GHz3zo/j5c3cUM3lZV1UgGx28+ahx0a5lu6rua7OmFbjliVvizpf/0LRB2L3sAhpYZSe1IIHKCey8zc5xwYEXRodWHSq3iZUJECBAoCSwaM3COHfyeTFv5VwiFRYwSlhh4ASXz541d8LdY+P1Fa8nGJ2QakWgLuriwoMvjME9h9RKSvLYAoGnFjwV500+N+rr67fg0z6SJwENrDxVS6yFFhjUY1CcM+KcaNvCT48KfRAkT4BAVQVWrF8RFz54Yby49IWq7lu0zYwSFq3ib+eb/b469d5TY1P9pmICyLriAkfveEyMGjKq4vvYIB2BtRvXxuiJo2LBW0YH06lK+SLRwCqfpZUIVExgn17D4owRZ0SrZq0qtoeFCRAgQOCdBVZvWB0XT7k4Zix6FlEFBYwSVhA34aX/45n/iDue+++EIxRaXgV6te9Veutg9tZuV3EEjA7Wdq01sGq7vrKrAYF9e+8bp+9/RrRo1qIGspECAQIE8imwbtO6uGTKJTF9wVP5TCAnUY8ddkIcuf2ROYlWmOUQyEYJT7z7hHhtxWvlWM4aBEoCb48OXhSDew4mUiCB6Qumx7mTzzE6WMM118Cq4eJKLf8C+/cdEafue6rmVf5LKQMCBGpAYP2m9XH5w5fF428+XgPZpJnC26OE46Jrm25pBiiqighkb/489b5TYtNmo4QVAS7goh/a8UPxrSH/WsDMi5tyNjo4ZuLoePOtN4uLUIDMNbAKUGQp5lPgoG0PipOGnxzN65rnMwFREyBAoAYFNmzeEFc8fHk8+sajNZhdGikN6z0szjvw/DSCEUXVBH7y7I/j9lm3V20/G9WugNHB2q3te2V26xO3xB+8dbDmi6+BVfMllmAeBQ7od0Ccsu+pmld5LJ6YCRCoeYFs5OnqaVfFw/MervlcmypBo4RNJd90+2a/r06658R4dfmrTReEnXMvkI0OXnzIJbFXj71yn4sEtlxg+sLpce4ko4NbLpbfT2pg5bd2Iq9RgWxs8LR9T4vmzXzzqkZLLC0CBGpAIPvL9jXTro4p86bUQDbppWCUML2aVCOil5e9FCffe7JRwmpg1+geHxrw4fjW4G/VaHbSeicBo4PFOhcaWMWqt2wTFxjee3icsf+ZnnmVeJ2ER4AAgUwga2JdNfXKmDp/KpAKCBglrABqDpb8rxk/idtm3paDSIWYmkDv9r3jppE3R5vmbVILTTwVFLj1iVvjDy//voI7WDolAQ2slKohlkILDO01NM4ecY7mVaFPgeQJEMibQPZMrMumXOrB7hUqnFHCCsEmvGzWGD75npPileWvJByl0FITqKuri0sOvjT27LFnaqGJp4ICTy98Os6ZdLa3DlbQOLWlNbBSq4h4Cimwe/fd44IDL4zWzVsXMn9JEyBAIM8C2dsJL55yUWSv73aVVyAbJbx55Ljo1tZbCcsrm/Zqryx7JU6+96TStxxdBLZE4CMDPhLfGPzNLfmoz9SIgNHBGilkA9PQwGogmI8TKLfAgC4DSj8xateyXbmXth4BAgQIVEkg+4P0hQ9dGDMWPVulHYuzjVHC4tT6LzP96cz/ip/O+Gkxk5d1gwT6dOgTNx51k9HBBqnl/8PfefLb8buXfpf/RGTQIAENrAZx+TCB8gps32n7uPSQy6Jjq47lXdhqBAgQIFB1gdUbV8d5k86NF5a+UPW9a33DscPGxpHbH1XracrvLwQ2bd4Up9x7cry07CUuBN5VIBsdvOyQy2OP7ntQKpDAMwufjrONDhao4v+XqgZWIcsu6RQEerXvFVccemV0bdM1hXDEQIAAAQJlEFixfkWcdf+ZMXvl7DKsZok/C7Rv2T7GjRxvlLBgRyJ7Dlb2PCyjhAUrfAPS/ced/jH+Ze//14A7fDTvAm+PDo6JN996I++piH8rBDSwtgLNLQQaK9Cpdae48tAro2+Hfo1dyv0ECBAgkJjAojUL4/T7To9FaxYlFlm+wxnaa5+44KAL8p2E6BsscPus2+Mnz/64wfe5ofYF+nboWxod9AzZ2q/1X2ZodLBY9f7bbDWwil1/2TeBQJsWbeKSgy+JnbfZpQl2tyUBAgQIVENgzso5cdYDZ8bydcursV1h9jh+n7Fx1A5GCQtT8IjYVL8pTr33lHhx6YtFSluu7yPQrK5ZXH7I5THw/38Rkqs4AkYHi1Prd8tUA8sZIFBFgRbNWsS5I86Lwb0GV3FXWxEgQIBAUwg8v/T5OHfSubF245qm2L4m92zXsn2MN0pYk7V9r6ReW/FqnHT3SbFh84bC5S7hdxb42M4fj6/v9XU8BRLw1sECFfs9UtXAcg4IVEmgLuri+GFj44jtjqjSjrYhQIAAgaYWeGrBU3HRQxd6hk8ZC2GUsIyYOVrqZ7Nujx8bJcxRxSoXar+O/eLGI2+KVs1bVW4TKycn8J0nvxO/e+m3ycUloOoKaGBV19tuBRb4wu5fiM/u9rkCC0idAAECxRS4f/Z9cf0j10d91BcToAJZGyWsAGriSxolTLxAVQqvNDp46BUxsNvAKu1omxQEnln0TJz9wFlRX++/oynUoylj0MBqSmiWZyMAACAASURBVH17F0bgyO2PjOwP2y4CBAgQKKbAz2b9LH4yw4Ooy1V9o4TlkszXOq+veC1OvOfE2LDJKGG+Kle+aD+xy7HxtT2/Vr4FrZS8wLpN62LMhNHxhrcOJl+ragSogVUNZXsUWmBwz8Fx7gHnRfb8KxcBAgQIFFdg3OPjYsKrdxUXoMyZGyUsM2hOlrvjuTviP575UU6iFWY5BbbtuG3ccOSNRgfLiZqDtYwO5qBIVQxRA6uK2LYqnkD2H9qrDrs62rdsX7zkZUyAAAECfyWQjUBd/NDF8cSbj5Mpk8Dx+xwfR+0wskyrWSYPApvrN8dp950azy95Pg/hirFMAtno4JWHXRW7dt21TCtaJg8Czy56tjQ6mP2+dxHIBDSwnAMCFRLo2KpjXHP4NdG7fZ8K7WBZAgQIEMibwJqNa+LM+8+IV5a/krfQk4y3Xct2MX7kLdGtbbck4xNUZQRmr3g9TrjnBKOEleFNctVjd/lkfHXPryYZm6AqI/D26OCYeOOt+ZXZwKq5FNDAymXZBJ26QDYueMGBF8aePfZMPVTxESBAgECVBRatWRSn3ntKLFm7pMo71+Z2Q3sNjQsOurA2k5PVuwr8/Lmfx4+e+SGhAghs12m7uP7IG6Jls5YFyFaKfxb47lPfid++6K2DTsRfC2hgOREEKiAwasio+GD/oyuwsiUJECBAoBYEsvGnsyad6RskZSqmUcIyQeZomWyk6PT7T4vnFj+Xo6iF2lCB5nXNS6ODu3TdpaG3+nyOBYwO5rh4FQ5dA6vCwJYvnsCHB3w4vrH3N4uXuIwJECBAoEEC971+b1z/6PUNuseH31nAKGExT8aclXPihLvHxvpN64sJUICsP7Xrp+LLg75SgEyl+GeBbHTw+IljYv4qo4NOxd8LaGA5FQTKKLB7993j4oMu8cbBMppaigABArUskI1A/eL5X9RyilXLzShh1aiT2uiXz/8i/v3pf08qJsGUR2D7TtvHdUdeb3SwPJy5WeW7T303fvvib3ITr0CrK6CBVV1vu9WwQI92PeLaw6+Lzq0713CWUiNAgACBcgrU19fHZQ9fGtPmTyvnsoVda8w+x8dIbyUsVP2zUcLsxQgzF88sVN61nmw2Onj14dfETtvsVOupyu8vBIwOOg7vJ6CB9X5C/v8EtkCgVfNWccWhV8SALv4juwVcPkKAAAECfyGweuPqOO2+U2P2itlcGimQjRKOGzk+urft3siV3J4ngbmr5sYJE8dGNnrkqg2Bz+z22fjSHl+qjWRksUUCRge3iKnwH9LAKvwRAFAOgTH7jImjth9ZjqWsQYAAAQIFFJi7cm6cct8psXrDWwXMvrwpGyUsr2deVvv1C7+K70//fl7CFed7CGzfeYe47ojrjA4W7JT821Pfjd8YHSxY1RuergZWw83cQeCvBLJRhdFDx1AhQIAAAQKNEpgyb0pc+fAVUR/1jVrHzRFGCYt3CrJRwrMeODNmLJpRvORrKOMWzVqURgcHdBlQQ1lJ5f0EshHgbBQ4+33sIvBeAhpYzgeBRgjs2GXH0qt9WzVr1YhV3EqAAAECBN4W8FD38pwEo4TlcczbKvNWzYuxdx8f6zYaJcxb7f4c72cHfi6+uPsX8xq+uLdCwOjgVqAV+BYNrAIXX+qNE2jfskNcf8T10at9r8Yt5G4CBAgQIPAngeynz+dPPi+mL5zOpJECRgkbCZjT2//nxf+J7z31bzmNvthh9+/cP6494jpv8y7YMfjeU9+L/3nx1wXLWrpbK6CBtbVy7iu8wBn7nRkj+o0ovAMAAgQIECivwPJ1y+PEe06IxWsWl3fhAq5mlLB4Rc9GcM+6/8zI3mbmyo+A0cH81KqckRodLKdmMdbSwCpGnWVZZoEP7fjh+Obgb5Z5VcsRIECAAIG3BWYtmRVnP3BWbNy8EUkjBIwSNgIvx7fOf2t+jJ1wfKzdtDbHWRQr9M8N/Hx8YfcvFCvpgmf79ujg8TF/1byCS0i/IQIaWA3R8lkCEZE99+qqw672ZhSngQABAgQqKvCL539ReiaWq3ECRgkb55fXu3/70m/ju09+J6/hFyru7M/W1xx+rdHBQlU94vvTvxe/fsHoYMHK3uh0NbAaTWiBIgm0bdG29NyrPh36FiltuRJ4X4HsWyJrNq4p/bR746aNpW+NbKzfGJvrN/3vvc3rWkTzuubRsnnLaFX6p3W0ad7GH1jfV9cHiiqQjUJd9NBF8fgbjxWVoGx5Z28L/mD/D5ZtPQulL5D9/jnngbPj6YVPpx9sgSPMRgez515lz79yFUfA6GBxal3uTDWwyi1qvZoWOGHYCXH4dkfUdI6SI/Bngbc2vBULVi+IBW+9GYvXLo5la5fF0rVLY9m6ZbFy/crSPyvWrYjVG1b/qVFV10C87K8XEa2at4oOLTtEu5bto2OrDtGlTZfo3LpLdGndJbq17RY92vWIHm17RPd23aN189YN3MPHCeRbIHseVvZWtez3nmvrBYwSbr1dnu9846034viJY2LtRqOEqdbxC7t/MT438HOphieuCghko4NjJx4f2VtDXQQaKqCB1VAxny+swEHbHhSn7ntaYfOXeG0KbNi8IeasnBOvLX+t9AeJP/+TPY8gpT/wZ42uiPrIvgXZt2Pf6NehX/Tr2C+27fiB2KHzDtGnfZ9oVtesNoskq8ILTF/4VJw/+fzI3lDo2nqBIb2GxIUHXbT1C7gzlwK/f/l38e0nvp3L2Gs9aKODtV7hd87v+9O/H79+4VfFTF7WjRbQwGo0oQWKIJB9A+TGI2+K9i3bFyFdOdaoQDbe98qyl+O5Jc/FS8teileWvVp6cGbe/1KcfY8r+2bWdp22KzWz+nfZMXbtumts32l744k1epaLmNZ/zfhJ3D7r9iKmXtacRw8dHR/sf3RZ17RY2gLZfyPOnXROTF8wPe1ACxZdy2YtS6OD2X+3XcURmLV4Zpxx/xm5/7NncSqWXqYaWOnVRESJCWTf6rj44EtiUPdBiUUmHALvLTB31dzSa8SfX/xcZM8aKNJXtd8eTWwR/bsMiIHddouBXQfGbt0GRufWnR0bArkU2FS/Kc68/4xSA9q19QJGCbfeLs93vrn6zTh+wpjSsxpdaQh8aY8vxWd2+2wawYiiKgLrN60vjfQW6c+jVYEt2CYaWAUruHQbLnDsLsfGVwZ9teE3uoNAlQWy14Y/ueDJmLHo2XhqwVOxct3KKkeQ/nZ9O/aLvXrsVfpnUI9B0bFVx/SDFiGBPwlkv8dPuHtsUuO9eSzO4J5D4qKDjRLmsXaNifn3L/8+vv3ErY1Zwr1lEhiwzYDSWwezF7u4iiPwg+nfj18ZHSxOwSuUqQZWhWAtWxsC2QhS9vXm7GvOLgKpCWQPwcwaVU+++UQ8+sajsXD1wtRCTDqeurq60rjhPr2GxtBe+8QuXXfxHK2kKya4TOCuV++K8Y+Pg9FIgVFDR8fRRgkbqZiv27NRwvMnnVf6QY+r6QSyP1Nff+T1sV2n7ZsuCDtXXWDW4llxxv2nGx2sunztbaiBVXs1lVGZBLLX+l592DWRPWDSRSAVgeyNZFPnTY1p86eWmlcbN29MJbRcx5GNHGZvQBzaa2gM7zO89Gv2VkQXgRQFLp1yaenfAa6tF8hGCW8+alzpLaeu4ghkb9YdM2G0UcImLPmXB305PrXrp5swAltXWyAbHczepjt35dxqb22/GhTQwKrBokqpPAJf2v1L8endPlOexaxCoBECWdNq8pzJMXnOpNLzb+rr334nn6tSAvXRsnmr2Kvn3rFfn/1iRN8R0aFVh0ptZl0CDRZYtm5Z6Tki2b8bXFsvYJRw6+3yfOcfX7kzxj8+Ps8p5Db2nbfZOa46/Gqjg7mt4NYF/oPpP4hfvfDLrbvZXQT+RkADy5Eg8A4C2X9grzzsKv+BdTqaTGD1xtUxefakeGD2AzFj8QxNqyarRESL5i1iSM8hcfC2B8e+ffcrvfHQRaCpBabOnxqXTbm0qcPI/f5GCXNfwgYnkI0SXjD5/HjizScafK8btl7g7dHBG0pvDHYVR8DoYHFqXa1MNbCqJW2f3Ahko4PXHXF9ZM+/chGopkD2zarH3nws7nv93tKYoPHAaupv2V5tW7SNEduOiMO3OyL26L5H1EXdlt3oUwQqIHDjYzfEPa/dU4GVi7OkUcLi1PovM82eGTlm4phYveGtYgI0QdbZC5E+uesnm2BnWzaVwNujg2Nj7so5TRWCfWtQQAOrBosqpcYJfH7g5+NzAz/fuEXcTaABAovWLIoJr9wVE1+dGEvWLmnAnT7aVALZEGfP9j1j5A4j48jtj4yubbo2VSj2LbDAqg2rSs/z8e+Nxh0Co4SN88vr3X985Y9eiFCl4mUvSbnqsKu9KKVK3qls8+/TfxC/NDqYSjlqJg4NrJoppUTKIbBD5x3i2sOvi+xbWC4ClRTIRhgef/PxUuNq2vxpRgQriV3htZvVNYuhvfeJD+34oRjca7BvZVXY2/J/LWCUsDwnwihheRzztko2Spj9t9hVOYFWzVvFDUfeGNt23LZym1g5OYHnFs+K0711MLm61EJAGli1UEU5lEUg+0to9tbBnbbZqSzrWYTAOwms27Qu7nrlrvj9S7+LN956A1JNCdRH34794kMDPhxHbHdEZOOGLgLVELjmkatj0uxJ1diqZvcwSlizpX3PxBatXhRjJo6Ot4wSVuwAfHXPr8WxuxxbsfUtnJ5ANjp4wt1jY47RwfSKUwMRaWDVQBGlUB6Bf9zpY/H1vb5ensWsQuBvBLIRn9+++Nu485U/xJoNa/jUuEDblm1L44Uf3ekfo3vb7jWerfSaWmDFuhUxeuIobyVsZCEG9xwcFx18cSNXcXveBCa+OiFueuymvIWdi3h367ZbXHHolUYHc1Gt8gVpdLB8llb6ewENLKeCQET0aNcjbj5qnG9MOA1lF5i3al7p1cH3vHpPbKrfVPb1LZi2QPNmzWNEvwPik7t8MrIRZReBSgk8OGdyXDXtqkotX5h1jRIWptR/lehFD14Yj77xaDGTr1DW2ejgjUfeGP2MDlZIOM1ln1/yXJx232mxuX5zmgGKKvcCGli5L6EEyiFwzohzYniffcuxlDUIlAReW/Fa/Pesn8VDcx/yfCtnoiQwvO++8eldPx07b7MzEQIVEbhkyiXxyPxpFVm7KIsaJSxKpf86z+xlKtkLEYwSlq/+/7zX1+PjO3+8fAtaKXmBDZs2xNi7jzc6mHyl8h2gBla+6yf6Mggc0O+AOH2/M8qwkiUIRMxeOTt+Nuv2eHDOgxpXDsQ7Cuzda+/4/MAvxK5ddyVEoKwCC1YvKP0lfO2mtWVdt2iLGSUsWsXfzvfu1+6OGx+9oZjJlzlro4NlBs3Jcj98+ofxi+d/npNohZlXAQ2svFZO3GURaNOiTdwy8tbo1rZbWdazSHEFFq5eED9+9scxac4kjaviHoMGZb5Pn2HxuYGfi526eHFEg+B8+D0Ffvn8L+KHz/yQUiMFRg0dFUf3P6aRq7g9bwKXPHRx6c3Arq0XaN28ddx41E3Rt0PfrV/EnbkTeH7J83HafacaHcxd5fIXsAZW/mom4jIKfGXQV70ZpYyeRVxq1fpVcdvMn8adL9/pGVdFPACNzbmuLrJvgX5x9y/6w35jLd1fEsietXfiPSfGa8tfJdIIAaOEjcDL8a2L1yyOMRPHxKr1K3OcRdOG/vW9/yU+ttPHmjYIu1dV4O3Rweytg7Oruq/NiimggVXMuss6Irbt+IHSwyVbNGvBg0CDBTZt3hS/fvFX8bOZP4t1m9Y1+H43EPhLgexh70fveEx8ZtfPROfWneEQaJTArCWz4oz7T/dt0EYpRhglbCRgTm+/57V74oZHr89p9E0b9sDuA+OKQ66Murq6pg3E7lUV+NEzP4yfP2d0sKroBd5MA6vAxS966hcddHHs3XPvojPIfysEJs+ZHD96+oeRPfTVRaCcAtm3Pj6z22fiwwM+orleTtgCrjX+ifFx1yt/LGDm5U3ZKGF5PfOy2iUPXRLT5k/NS7hJxJmNDt501M3Rp0OfJOIRRHUEnl/6fJx2r9HB6mjbJRPQwHIOCilwYL8D47T9Ti9k7pLeeoHsq9G3PnFrzFg0Y+sXcSeBLRDo27FvfG3Pf45hvYdtwad9hMDfC2Tjzd+661uxcv0KPI0QaNuibdw8clz0bNezEau4NW8CS9YuKb0QYaVRwi0u3TcGfyM+MuCjW/x5H8y/wIbNG+KEiWNLLzByEaiWgAZWtaTtk4xAq+atYvzIW/xhNJmKpB/I2o1r48fP/mf8/uXfG8lJv1w1FGF9DOszPP7f3t/w76saqmo1U/nDy7+Pbz/57WpuWZN7Zd/Wvujgi6MujEXVZIHfJan7Xr8vrnvk2iKlvNW57tF9UFx2yGVGB7daMJ83/uiZH8XPn7sjn8GLOrcCGli5LZ3At1YgG8/54u5f2trb3VcwganzpsZ3nvx2LF27tGCZSzcVgazp/qldPxWf2OVYY4WpFCUncWyu3xwn3nNCvOqB7o2u2HFDR8Ux3krYaMe8LXDZlEvj4XkP5y3sqsbbukXruPmocdG7fe+q7muzphV4YenzcarRwaYtQkF318AqaOGLmna3tt3ilpG3RpsWbYpKIO8tFMjeRPTtJ2+NR+c/uoV3+BiBygps22nbGDV0dOzWdbfKbmT1mhJ4ZtHTcfYDZ9dUTk2RjFHCplBv+j2zH16NnjDKKOF7lOKbg79Zem6jqzgCRgeLU+sUM9XASrEqYqqYwAnDTozDtzu8YutbuDYEJr42Mb7/1PciGx10EUhJIHuz0zE7HhNf3uMrGvEpFSbxWK6aemU8OPfBxKNMPzyjhOnXqBIRPjD7/rhm2jWVWDr3aw7qsWdcesilxmtzX8mGJfAfz/wo7jA62DA0ny6bgAZW2SgtlLrAgC47xbVHXOs/sqkXqgnjW7JmSdz42I0xfcFTTRiFrQm8v0CPdj1K38byJtX3t/KJiIWrF8SoCaNi3aZ1OBopYJSwkYA5vf3yhy+PKXMfymn0lQk7m2bIRgd7te9VmQ2smqTAi0tfKI0ObqrflGR8gqp9AQ2s2q+xDP8kcPHBl8RePfbiQeAdBe6ffX/c+sQtsW6jv+A5IvkQqKuL+NCAj8Q/7fFPkb2+3EXgvQT+a8ZP4vZZt0NqpIBRwkYC5vT2ZeuWlUYJV6zzVs8/l/Bbg78VHxrw4ZxWVNhbI7Bx88Y44e6x8fqK17fmdvcQKIuABlZZGC2SukD2KvpzDzgv9TDF1wQCqzasilseHx9T5k5pgt1tSaDxAr079I6Thp8cO2+zc+MXs0LNCmQj0d+86xuxbO2yms2xWokZJayWdFr7TJr9QFw97eq0gmqiaPbquXdc7M2cTaTfdNsaHWw6ezv/n4AGltNQ8wLN6prFjUfeFNt12q7mc5VgwwSeWfRMXDvtGn+haxibTyco0LxZ8/jswM/GJ3f5VGT/znMReCeB37/8+9JbVV2NFzhuyKjS8+hcxRK4Mnue3JzJxUr6b7J9+1uIN0fPdkYHi3QQXlz6Ypx67ylGB4tU9ERz1cBKtDDCKp/AUTuMjDFDx5RvQSvlXqA+6uMnz/4kfvHczyP7n10EakVgUI9BceLwk6Jrm661kpI8yiiQPbNk9ITRMW/V3DKuWsyljBIWs+7L1y0vjRJmvxb10rwtXuWNDhav5ilnrIGVcnXE1miBls1axq0f/HZkDzx2EcgElqxZXHqb0MzFM4EQqEmBTq07xYnDTozBvYbUZH6SapzAlHkPxRUPX9G4RdxdEjBKWMyD8OCcB+PKqcX8PeTMF/PM/+ez/xH/Peu/i5m8rJMT0MBKriQCKqfAR3f6x/iXvf6lnEtaK8cCzy56Jq6aepWHsOa4hkLfMoG6uro4dtdPxhcGfsFI4ZaRFepTp99/WsxaPKtQOVcq2eOGHBfH7PgPlVreuokKXDX1yphcsFHCdi3bld466IfCiR7KCoVVGh2875TYtNlbBytEbNkGCmhgNRDMx/Mj0KZF2/ju0d+Nzq075ydokVZM4I7n7ojsLVz19UYGK4Zs4eQE9uy5V5yy7ynRqVWn5GITUNMJzFg8I868/4ymC6CGdjZKWEPFbEAqK9aviFF3HVeoUcJRQ0fH0f2PboCSj+ZdIBsdPPHuE+K1Fa/lPRXx15CABlYNFVMqfy3wmd0+G1/c/YtYCi6wftP60oPap82fVnAJ6RdVoHu77nHG/mfGgC4Dikog73cQuOihC+OxNx5jUwYBb2QrA2IOl5gyb0pcPuWyHEbe8JAH9xwSFx18UcNvdEeuBYwO5rp8NRu8BlbNlrbYibVv2T7+7ZjvRfarq7gC89+aH1dMuTxeX/F6cRFkTiAiWjZvGaOGjopDP3AYDwIlgReXvhCn3HuKF1mU6Tz865Dj4h+MEpZJMz/LXD3tqpg0e1J+At6KSLPRwXEjx0f3tt234m635FXA6GBeK1f7cWtg1X6NC5nh5wZ+Lj4/8AuFzF3SbwtkIzKXPnRJrN6wGgkBAn8SOHbXY+NLu/9TZM/IchG47OFLY+q8qSDKIPD2KOHN0bNdrzKsZom8CKxcvzJGTTgulq1dlpeQGxznmH2Oj5E7jGzwfW7Ir4DRwfzWrgiRa2AVocoFy7Fdy/bxPd++KljV/zrde1+/N8Y9dnNsrt9caAfJE3gngeF9hseJw0+K7C/crmILvLr81TjhnrGeDVimY2CUsEyQOVvm4XlT4rIaHSUc2mtoXHDQhTmriHAbK/DjZ38cP5t1e2OXcT+BighoYFWE1aJNKeDbV02p3/R7/+iZH8avnv9V0wciAgIJC/TvsmOce8C5sU2bbRKOUmjVEMjepvbg3AersVUh9jBKWIgy/12S2bM27599f00ln/1AePzI8dGtbbeayksy7y3w0rKX4pR7T/bWQQfl/2PvLuOzONY2gF8xPFiR4k5xd5dAKVQoFUoLxVqcJAQNrsUhIWiLtQUK1PAiSXAt7u7uEAKB2PvbtOetIc/zZGVm9tov58PZmfu6/7PntAzP7AorwA0sYZeGwVwR4LuvXFFTY4z2a6sJv4/H1sv8g5gaK8oujBZInzx9wt+s5/DOYXQpzi+wgPaOQL8wX/5iVac10r6AHOITgswpeZRQJ1IpptGOEnZZ1xn3ou5JkdeRkL5l/eCT28eRW3mPIgIJRwfD/XHhAb86qMiSKtkGN7CUXFb7NvXhGx+hRdEW9gWwaedRMVEYsX04Dt86bFMBtk0B1wS0Tf/AyoEomqGYaxNwlBIC43aNxebLar+I2syF4lFCM7XFqbXr2k4M3zZcnECJSFLu9XIYWHVQImbgUBkFeHRQxlWzX2ZuYNlvzZXtOKlH0oQvD6ZJmkbZHtnYfwUePH2AIVsH49z9c+ShAAVcEPBy90L3ij1QMUtFF0ZziAoCCe/CCvPjFwl1XEweJdQRU6KpJvw+ARsurpco8X+jpvJKhcn1JyN9Mh4dlHohnQzPo4NOgvF2ywS4gWUZPQvrLfB2/rfxZYl2ek/L+QQWuPX4FgZvHYSrEVcFTsloFBBfwM3NHR1Ld+SXpsRfKsMSDt8+DL9f+92w+e02MY8S2m3F/+j3UfQjdFnbGXej7koL4F/OH3Vy1ZU2P4M7L6AdHQwI7wbtLzN4UUB0AW5gib5CzOeQgKe7J2a8+TUyJM/g0P28SX6BKxFXMGjLQNx5ckf+ZtgBBQQRaF2iDd7N/64gaRjDTIHjd46h98beZpZUvlbxjCUwvMZwuMFN+V7Z4F8Cv1/bhWHbhklJUj5LhYQPfPCyl8D8o/Ow6Bi/OmivVZe3W25gybt2TP43gbq56kJ72SQvewhcengJAzb3h3Z8kBcFKKCvwKdFP8NHb3yk76ScTQqBfpv64vBtvktQz8XqUKoDGuZrpOeUnEsCgaDdQQi/ECZB0r8ipkqSCpPrTUH6ZOmlys2wiRPg0cHE+XG0+QLcwDLfnBV1FtD+ZnOSTwhyps6p88ycTkQB7efNAzcPgPbFH14UoIAxAh8W+hCfFWluzOScVViB/Tf3J/yylZd+AjxKqJ+lTDNFakcJ13WR6lfiAeUDUCtnbZmYmTWRAjw6mEhADrdEgBtYlrCzqJ4CZV8vi4FV+KUUPU1Fnevcg3MYuKk/HkVHihqRuSigjAA3sZRZSqca6R4egNP3Tzs1hje/XKB4xuIYXmMEjxLa7EHZfX03hm4dIkXX2kc8+lXpL0VWhtRPYMHR+Vh4bKF+E3ImCpggwA0sE5BZwliBYdWHo0TGEsYW4eyWC1x8eBH9N/XjL68sXwkGsJPAB298gOZFW9ipZdv3uvnyJozbNc72DnoD8Cih3qJyzDdpTzBCz4cKHdY7iXfC0cF0ydIJnZPh9BU4e/8seqzvDu1XWLwoIJMAN7BkWi1m/Y9A3rR5MbFOEGUUF7gccTlh84rvvFJ8odmekALNijTDx4WaCpmNofQXiI2PRbvV7XD7yS39J7fxjMk8kyHEZzIyp8xsYwX7tf44+jE6r+uMO09uC9t89wo9UDNHTWHzMZj+AtqmlfZrW+1kAy8KyCbADSzZVox5/yHQrVw3ntdX/Jm4+fgmAjf0kfqT1IovEduzgUCr4q3wXoHGNuiULWoCv5z6Bd8emksMnQV4lFBnUEmm23tjL4ZsGYx4xAuXuFLWyuhbua9wuRjIWAEeHTTWl7MbK8ANLGN9ObuBAtpPnWc2mAVPd08Dq3BqKwW0X1wFbuyDa4+uWRmDtSlAAQAdSnfEm3nepIUNBCKjI9HmtzaIinlig27NbbF9qQ5oxK8SmosuQLWQPZOw7vw6AZL8FcE7SWpMqT8FaZOmFSoXwxgrwKODxvpyduMFuIFlvDErGCTwSeFmaFa4mUGzc1qrBbSf3WufdNe+OsiLAhSwXsDNzQ3aUZOq2apaH4YJDBf4+sAMrDyz0vA6kj/KqAAAIABJREFUdivAo4R2W/E/+n0c8zjhq4S3H4tzNLdnxV6onr26PRfEpl3z6KBNF16xtrmBpdiC2qUd7VdX2q+v+MJJNVdcewfLgM39cez2MTUbZFcUkFTA090DA6oO4oczJF0/Z2Jrv3zttK4j4uLjnBnGex0Q4FFCB5AUvGX/zX0YtHmQEEcJK2ergsBKgQoqs6WXCSw4ugALj/1AJApILcANLKmXz77ha+WohW7lA+wLoHjnY3aOxvYr2xXvku1RQE6BFF4pMKLGCOROk0fOBpjaYYER24dj17VdDt/PGx0X4FFCx61UunPK3slYc26NpS2lTpoaU+pNRZqkaSzNweLmCpy7fw7d1wfwq4PmsrOaAQLcwDIAlVMaLzC61hgUSl/I+EKsYLrArIOzsOL0ctPrsiAFKOC4gPbr1zG1xyJD8gyOD+Kd0gkkvHx662DpcssQmEcJZVgl/TM++fMo4S0LjxL2qtgb1bJX0785ziisQGxcbMLmlfb+K14UkF2AG1iyr6AN82t/6x9cN9iGnavfsvaC06l7p6jfKDukgAICOVLnwKhao5HCM4UC3bCF5wloX03rsKY9rkdeJ5ABAjxKaACqBFMeuHkAA7cMQHy8+V8lrJq9KnpX7COBEiPqKfDD0QX4gUcH9STlXBYKcAPLQnyWdk2gQ6mOeCvvW64N5ihhBQ7dOojBWwbzfSvCrhCDUeC/AqUyl0L/KgPg4eZBHkUFfjn5C749PFfR7qxvi0cJrV8DKxJM3TcVq8/+Zmpp7cjglHpTkJpHB011t7rYuQfn0D2cRwetXgfW10+AG1j6WXImEwSSeSbH3IZzkdwzuQnVWMIsgcsRl9FzfQ9ExUSZVZJ1KEABnQQa5muIL0u202k2TiOawMOnD9FmdWtEx0aLFk2JPDxKqMQyOt2E9u87XUO74EbkDafHujqgd6U+/Iqsq3iSjuPRQUkXjrFfKsANLD4gUgm8macBOpXuJFVmhn25wJOYJwmbV1cirpCKAhSQVKBjmU6on7u+pOkZ+1UCE34fj42XNr7qNv73LgoUy1g84cMIbnBzcQYOk1Hg4K2DCV9cNuMoYbXs1dGrYi8ZmZg5EQILjy3EgqPzEzEDh1JAPAFuYIm3Jkz0EoHxtScgf7r8NFJIYNi2Ydh7fY9CHbEVCthPwMPdA0OrD0OR14rYr3kbdHz0zlEEbuR7c4xcah4lNFJX3Lmn75+GVWdWGRowbbK0mOyjHR1MbWgdTi6WAI8OirUeTKOfADew9LPkTAYL5E6TG8F1JxlchdObKbDg6AL8eHyxmSVZiwIUMEhA+0PS+DoTkD5ZeoMqcForBbqs64xLEZesjKB0bR4lVHp5X9jcH0cJu+KGgR9KCKzUF5WzVbYnsE271o4O9ljfHWfun7GpANtWWYAbWCqvrmK9fVHyS7yT7x3FurJvO/tv7sfQLUOgfeWKFwUooIZAwdcKYkT1r+Dp7qlGQ+zi/wV+PfUr5h6aQxEDBYplLIYRNb7iUUIDjUWc+vCtQ+i3uZ8hRwlr5qiJ7hV6iNg2MxkowKODBuJyassFuIFl+RIwgCMCXu5emNNwLryTeDtyO+8RXOD2k9vwD/VDZHSk4EkZjwIUcFagYb5G+LLkl84O4/2CC9yLuoe2v7VBbHys4Enljte+VHs0yve23E0wvdMCM/bPwMozK5we97IB6ZKlQ0i9yUidhEcHdYUVfDIeHRR8gRgv0QLcwEo0IScwQ6Ba9mroWYEvnzTD2ugacfFxCNzQByfvnTS6FOenAAUsEuhRoQeqZq9mUXWWNUpg+LZh+P3670ZNz3kB/HGUMASZU75ODxsJPI19iq7ruuJ65DXduu5buR8qZa2k23ycSHwB7S8YeqzvgTP3Tosflgkp4KIAN7BchOMwcwUGVhmIsq+XM7coqxki8O3huVhycokhc3NSClBADIHkXskxoc5EvM4/hIuxIDql2HZlG0bvHKXTbJzmRQLFMhTDiJo8Smi3J+TI7SPot6kvtL/oS+xVM2ctdC/fPbHTcLxkAouOL8T8I/zqoGTLxrhOCnADy0kw3m6+QNqkaTG74Rx4uHmYX5wVdRU4dOsQBm0eyPde6arKySggpkDedPkwuuZovg9LzOVxKVVMXAxar2qFh88eujSegxwX4FFCx61UuvPrA19jxenliWpJ+5CGdnSQr91IFKN0g88/OIeA8ABo/z/NiwIqC3ADS+XVVaS3d/K/gy9K8H0qsi9nxLMI+IZ2xf2o+7K3wvwUoICDAu8WeA+ti7d28G7eJoPAzIPfYHki/4AtQ59WZ0zqmRQhPpP5K0arF8Lk+tpRQu3fla49cv0oYb8q/VAxC48Omrx0lpbTjg72XN8Dp3l00NJ1YHFzBLiBZY4zqyRCYEKdCciXNn8iZuBQEQRG7RiJnVd3ihCFGShAAZME3NyAQVWHoGSmkiZVZBmjBU7dO5XweXZexgskHCXUvkqo/Q+Jl20Ejt05hsCNfVw6SlgnVx34l+tmGys2+ofA4uOLMO/IPHJQwBYC3MCyxTLL22QO7xyYXG+KvA0weYLA5kubMOH3CdSgAAVsKJA++WsIrhuMVElS2bB7NVvusLZ9on4hoqaKMV21K9Ueb/OrhMbgCjzrrAMzsfT0UqcSvpb8tYRf7fH/a51ik/7m8w/OIyC8G48OSr+SbMBRAW5gOSrF+ywR+LTIp2ha6BNLarOoPgJ3ntxGl3VdERXzRJ8JOQsFKCCdQJXsVfglWelW7cWB5x+dn/A3/ryMF+BRQuONRaygHSX0C/XF1UdXHY43oOoAlH+9gsP380b5BXh0UP41ZAfOC3ADy3kzjjBRYFr9aciaKpuJFVlKb4GhW4dg3419ek/L+ShAAckEelTogarZq0mWmnGfJ3Ap4iK6rOtCHJMEimYohq94lNAkbXHKHL9zHH029nboKGHdXHXhV85fnPBMYorAouOLMJ9HB02xZhFxBLiBJc5aMMm/BPKlzZfwGXZe8gpsvLgBQbuD5G2AySlAAd0EvJN6JxxvSZM0jW5zciLrBPzCfKEdXeFljgCPEprjLFqV2QdnYcmpJS+NlSF5hoSvDqb0SilafOYxUODCw/MICAtAdFy0gVU4NQXEE+AGlnhrwkR/CrQs1gpNCjahh6QCD54+QKe1HfE4+rGkHTA2BSigt0ClbJXQu2IfvaflfBYI/HziJ3x35DsLKtuzJI8S2nPdn8U+g1+YH65EXH4hwMCqg1Du9XL2BLJp1zw6aNOFZ9sJAtzA4oMgpIAb3PB1g2+QKUUmIfMx1KsFxu0ci61Xtr76Rt5BAQrYSqBPpT6omJWfeJd90W9E3kD7Ne0Qj3jZW5EmP48SSrNUugY9cec4er/gKKFP7nrwLeuraz1OJr7A4uOLMe/I9+IHZUIKGCDADSwDUDll4gXypyuA8bXHJ34izmCJwIGbBzB4yyBLarMoBSggtkD65OkTjhKm8EohdlCme6VA9/UBOH3v9Cvv4w36CfAooX6WMs0059Bs/Hry139EzpgiIyb5hPDooEwLqUPWCw8vICCsG48O6mDJKeQU4AaWnOumfOoWRVvgwzc+Ur5PFRvUftbcZV1nXH90XcX22BMFKKCDQIO8DdC+VAcdZuIUVgr8qP0K4Og8KyPYrvYfRwlD8HrKLLbr3c4NR8dGQ3vv3OW/HSUcXG0IymQuY2cW2/XOo4O2W3I2/BwBbmDxsRBSYGr9qciWKruQ2Rjq5QKLji3CwmM/kIkCFKDACwXc3NwwptYYaL+25SWvwMWHF9E1lF8jNHsFeZTQbHEx6p28exK9NvRM+Crhm3neROcy/N+eGCtjXgoeHTTPmpXEFeAGlrhrY9tkOVPnTDhewks+gTtPbqPjmo78WbN8S8fEFDBdIF+6fBhTayzc3dxNr82C+gl0XNsBVx9d1W9CzuSQAI8SOsSk3E3fHv4Wmy5t5DFs5Vb21Q3x6OCrjXiHPQS4gWWPdZaqy48LfYzPijSXKjPD/iEwbtdYbL3MF7fzeaAABRwT6FC6Y8IvCXjJKzD38Fz8evIXeRuQNLl2lFB7/1EWHiWUdAVdix0dF41z98+hYPqCrk3AUVIK8OiglMvG0AYJcAPLIFhO67rAuNrjUYDHSlwHtGjk0TtH0W9jX4uqsywFKCCjgHeSVJhafzpSJUklY3xmBnA84QtpvWhhgUDRDEXxVY2R0I7k8qIABdQV+OnEj/ju8HfqNsjOKOCEADewnMDircYLpE+WHrMbzoEb+C9jxmvrW0F7L8Opu6f0nZSzUYACygs0zNcIX5b8Uvk+VW0wHvFovaoV7kXdU7VFoftqV6od3s73jtAZGY4CFHBdQHvXYLdwf2gv8udFAQoA3MDiUyCUQL3c9dGFL6UUak0cCbP18haM2zXOkVt5DwUoQIF/CLi7eyC4bjCye/PDHbI+GpP3hmDd+XWyxpc6d1KPP48SpuJXCaVeSIanwHMEtKODvTf0gvYCf14UoMAfAtzA4pMglEC/yv1RIUsFoTIxzMsFtH+4dl7bCTcib5CKAhSggEsCZbKUxYDKA1way0HWC2y7shWjd462PohNE/AooU0Xnm0rL/DTiZ/w3eFvle+TDVLAGQFuYDmjxXsNFUjikQTz3p4P7W8Teckj8NvZ3/D1/hnyBGZSClBASIFhNYahWIbiQmZjqJcLREZHosXK5oiNiyWVRQJflmyHd/LzKKFF/CxLAd0FeHRQd1JOqIgAN7AUWUgV2iiTuSwGVR2kQiu26SEmLgZfrv4C96Pu26ZnNkoBChgjkD9dfoypPZbvQDSG1/BZAzf1wdHbRw2vwwLPF+BRQj4ZFFBHIC4+Dtq7ZXl0UJ01ZSf6CXADSz9LzpRIgbYlvsC7+d9N5CwcbqbAstNLMefgHDNLshYFKKCwQI+KPVE1W1WFO1S3Ne0rWd8f+V7dBiXorEiGIhhZYxS/SijBWjEiBV4m8POJn/Atjw7yIaHAcwW4gcUHQxiBKfWm8iW+wqzGq4NExz1D21VtEfEs4tU38w4KUIACDghk9c6KEJ/JcHdzd+Bu3iKSwNn7ZxO+lMXLWoEvSmp/GfietSFYnQIUcFng0sOL8OdXB13240D1BbiBpf4aS9FhphSZ8E2DmVJkZcg/BJafXo7ZB2eRgwIUoICuAn7l/FArZ21d5+RkxgvEIx6tV7XCvah7xhdjhRcK8CghHw4KyCvwx9FB7auDJ+RtgskpYLAAN7AMBub0jgm8macBOpXu5NjNvMtyAe1Fvdq7r/gHFcuXggEooJzA66myYHK9yfBw81CuN9Ubmrh7IjZcXK96m8L3x6OEwi8RA1LguQI/n/gZ3x6eSx0KUOAlAtzA4uMhhEDvin1QJVsVIbIwxKsFVp9djRn7p7/6Rt5BAQpQwAWBLmW7om6uui6M5BArBUIvhCJkzyQrI7D2nwI8SshHgQJyCVx6eAn+4X6Ijo2WKzjTUsBkAW5gmQzOcv8VcHNzw/eN5sE7iTd5JBDQjol0WtMR1yOvS5CWESlAARkFtHdhTfaZwpdRS7Z4Nx7fQLvVX0qWWs24PEqo5rqyKzUFtKODvTf0wgkeHVRzgdmVrgLcwNKVk5O5IpA3bV5MrBPkylCOsUBgx9UdGL1jlAWVWZICFLCTQI+KPVA1WzU7taxEr9rx8puPbyrRi+xNFM5QGKNqjOZGsOwLyfzKC/xy8mfMPcSjg8ovNBvURYAbWLowcpLECDQu0Biti7dJzBQca6JA4MZAHL9zzMSKLEUBCthRIHfa3PzLDQkXftKeYIRdCJMwuZqReZRQzXVlV+oIXI64BP8wfzyLfaZOU+yEAgYKcAPLQFxO7ZjAwKqDUDZzWcdu5l2WCpy+dxo91/ewNAOLU4AC9hEYVG0QSmUqbZ+GFeh0/YVwBO3hr6pFWco/jhJOQpZUWUWJxBwUoMCfAglHBzf2wok7/OogHwoKOCrADSxHpXifIQLaV6bmv7MAyT2TGzI/J9VXQHs5b/iFcH0n5WwUoAAFXiBQKnMpDKo6mD4SCdx+fBttV/NX1SItGY8SirQazEKBvwR+OfkL5h6aQxIKUMAJAW5gOYHFW/UXyJ8uP8bXnqD/xJxRd4FHzx6h9apWiImL0X1uTkgBClDgRQJBPsHIlToXgSQSaL+mHT/0Idh6tS35Bd7L/55gqRiHAvYVuBxxGf5hfjw6aN9HgJ27KMANLBfhOEwfgfcKvIc2xdvqMxlnMVTg5xM/Y96R7w2twckpQAEK/FugTq466FrWlzASCUzYPQEbL26QKLH6UbWjhME+k5CVRwnVX2x2KLzAH0cHe+PEnePCZ2VACogmwA0s0VbEZnkCK/VFpayVbNa1nO12WNMeNyJvyBmeqSlAAWkFvDy8MOut2fBO4i1tD3YLvursKszYP91ubQvfL48SCr9EDGgTAR4dtMlCs01DBLiBZQgrJ3VEwA1u+O7t75E6SWpHbuc9FgocunUIAzcPsDABS1OAAnYWaFHsczQp2MTOBFL1fvb+WXQL95cqs13C8iihXVaafYoqwKODoq4Mc8kiwA0sWVZKwZw5vHNgcr0pCnamXkvBu4OwgcdB1FtYdkQBSQQypsiE6W9Oh7ubuySJ7R0zNj4Wny5vhqiYKHtDCNg9jxIKuCiMZBsB7ehgn429cZxHB22z5mxUfwFuYOlvyhkdFPDJ5cP3mjhoZeVtT2KeoOWKzxEdF21lDNamAAVsLtC/6gCUzVzW5grytN9/cz9ov97lJZ4AjxKKtyZMZA+BJad+xeyDs+3RLLukgEEC3MAyCJbTvlqgc5nOqJ/7zVffyDssFQg9H4opeydbmoHFKUABClTIWhGBlQIJIYmA9tGPH0/8KEla+8VsW6It3ivQ2H6Ns2MKWCRwJeIK/MJ8+dVBi/xZVh0BbmCps5bSdTLJJ4SfRpdg1QZuHohDtw5KkJQRKUABlQW044Mz35qFdMnSqdymMr3turYLI7YPV6Yf1RrhUULVVpT9iCygHR0M3NgHx+4cEzkms1FACgFuYEmxTOqFTOGZAvPfWcD3mQi+tPei7qHtb20QHx8veFLGowAF7CDQolgLNCn4gR1alb7Hu1F30XpVK+n7ULmBwq8Vxqiao+Hm5qZym+yNApYLLDm1BLMPzrI8BwNQQAUBbmCpsIoS9lAyY0kMrT5MwuT2irzs9DLM4Vl9ey06u6WAwALZvbMhhB//EHiF/hmt5arPcT/qvjR57RiURwntuOrs2UyBK4+uwC+URwfNNGcttQW4gaX2+grb3QdvfIjPi34ubD4G+0NA+7kzv5TCp4ECFBBJYFydcciXNr9IkZjlBQJDtg7B3ht76COwAI8SCrw4jCa9AI8OSr+EbEBAAW5gCbgodojUq2JvVM1W1Q6tStuj9rfmbX5rzeOD0q4gg1NATYFG+Rrhi5JfqtmcYl3NO/o9fjzOF7mLvqyFXiuUcJRQe88cLwpQQD8BHh3Uz5IzUeB/AtzA4rNgicDXb36DzCkzW1KbRR0TWHVmJb458I1jN/MuClCAAiYJpEmaBrMazoaHm4dJFVnGVYFtV7Zh9M5Rrg7nOBMFeJTQRGyWsoWAdnTQP9QPT2Of2qJfNkkBswS4gWWWNOv8v4B3Em/Me3s+RQQXGLp1CPbd2Cd4SsajAAXsKDC42hCUzFTSjq1L1fP1yOtov6adVJntGjaJRxIE+0xCtlTZ7ErAvimgm4B2dLDvpkAcvX1Utzk5EQUo8IcAN7D4JJguUDJTKQytNtT0uizouEBUTBRarGiOmLgYxwfxTgpQgAImCfjk9kHnMl1MqsYyiRH4dHkzREZHJmYKjjVJgEcJTYJmGeUFlp5eilkHZirfJxukgBUC3MCyQt3mNd8v2AStivHT2iI/BtuvbMeYnaNFjshsFKCAjQW8k3pjTsO5PEYowTMQuKkPf4UgwTr9L2KbEm3RuEBjiRIzKgXEErj66GrCVwd5dFCsdWEadQS4gaXOWkrTSUD5ANTMUUuavHYMOnXvFKw7v86OrbNnClBAEgEeI5Rjoabum4I159bIEZYpwaOEfAgo4LpAfHw8AhOODh5xfRKOpAAFXirADSw+IKYLTPIJQa7UuUyvy4KOC3z52xe4/eS24wN4JwUoQAGTBd7K1xDtSvL9SiazO11u+enlmHmQHwRxGs7CATxKaCE+S0stsOz0Uszk0UGp15DhxRfgBpb4a6RUQk93Tyx6dzG0/+QlpsC1yGvotKajmOGYigIUoMCfAq8lfw0z35pFD8EF9t/cj0FbBgqekvH+LcCjhHwmKOCcQMLRwTBfPI3hVwedk+PdFHBOgBtYznnx7kQK5E6TB8F1gxM5C4cbKbDqzEp8c4B/W26kMeemAAX0ERhXZzzypc2nz2ScxRCBO0/uoM1vrQ2Zm5MaJ8CjhMbZcmb1BOIRj74bA3GERwfVW1x2JJwAN7CEWxK1A9XKWQvdygWo3aTk3Y3bNRZbL2+VvAvGpwAF7CDQrEgzfFyoqR1albpHfolQzuXjUUI5142pzRdYdnoZZvIvf82HZ0VbCnADy5bLbl3TzYu2wEdvfGRdAFZ+pUDLlS3x8OmDV97HGyhAAQpYLfDGa29gVE1+MdXqdXhV/V4beuHE3eOvuo3/vYACbUq0QeMC7wuYjJEoIIbAtUfX4BvWlUcHxVgOprCBADewbLDIIrUYWKkvKmWtJFIkZvmbgHZ+v/PaTjShAAUoIIWAm5sbvmv0PVIlSSVFXruGDNkzCaEXQu3avtR9JxwlrDsJ2byzSd0Hw1PACAEeHTRClXNS4OUC3MDiE2KqwJR6U5HdO7upNVnMcYG159Zi2r6pjg/gnRSgAAUsFuheoQeqZa9mcQqWf5nAjycWY96ReUSSVIBHCSVdOMY2XGD56WV8b6zhyixAgX8KcAOLT4RpAtqXBxe/9yM83DxMq8lCzglM3TsF686vc24Q76YABShgoUC9PPXRqTR/OWrhEryy9ObLm6G9X5GXvAI8Sijv2jG5MQLaV7v91vkiKjbKmAKclQIUeK4AN7D4YJgmkDN1ToT4TDatHgs5L+Af5ocLDy44P5AjKEABClgk8HqqLJhWf5pF1VnWEYFT906hx/rujtzKewQV+OMoYTCy8Vf0gq4QY5kpwKODZmqzFgX+KcANLD4Rpglo777S3oHFS0yBp7FP8emyZoiLjxMzIFNRgAIUeIHANw1mIkOKDPQRVCDiWQSar/hM0HSM5agAjxI6KsX7VBfg0UHVV5j9iSzADSyRV0exbO8XbIJWxVop1pU67Ry7cwx9Nwaq0xA7oQAFbCPgW84PtXPWtk2/Mjb66fJmiIyOlDE6M/9NgEcJ+TjYXYBHB+3+BLB/qwW4gWX1CtiofqfSnfFmnjdt1LFcra48sxIzD3wjV2impQAFKACgfp766Mj3YAn9LHQL74az988InZHhXi2gHSUMqhvMD/K8mop3KCigHR3sv6kfDt06pGB3bIkCcghwA0uOdVIi5fDqI1A8Y3ElelGxiWl7p2Lt+bUqtsaeKEABxQVypM6BST4hincpd3ujd47Ctivb5G6C6RMEeJSQD4JdBVaeWYEZ+2fYtX32TQEhBLiBJcQy2CPErLdmI0NyvqNE1NXuvaEXTt49KWo85qIABSjwUoHv35mHVF6pqCSowJxDs7Hk1BJB0zGWswKtS7TB+wXed3YY76eAtALXI6/BN9QXUTH86qC0i8jgSghwA0uJZRS/CS8PL/z43k9wg5v4YW2YUPtJdLOln0B7kTsvClCAAjIKDKg6EGUyl5Exui0yLz29FLMPzrJFr3ZokkcJ7bDK7PF/Ajw6yGeBAuIIcANLnLVQOknWVNn4mXOBV/j2k9v48rcvBE7IaBSgAAVeLvBJkWZoWqgpmQQV2HJ5C8buGiNoOsZyRYBHCV1R4xgZBbT3xM7YP13G6MxMAeUEuIGl3JKK2VCpTKUwpNpQMcMxFQ7cPIDBWwZRggIUoIC0AuWzVEDfyn2lza968GN3jqLPxj6qt2m7/loVb40mBZvYrm82bB+B65HX4RvalUcH7bPk7FRwAW5gCb5AqsSrn+dNdC7dWZV2lOuDXyBUbknZEAVsJ5AueTrMfmuO7fqWpeEbkTfQbs2XssRlTgcFeJTQQSjeJqUAjw5KuWwMrbgAN7AUX2BR2mtetDk+euNjUeIwx78EZh2chRWnl9OFAhSggNQCcxrNRdqkaaXuQdXwMXEx+HDJB9D+QMhLLYGC6QtiTK2xcHdzV6sxdmN7AR4dtP0jQAABBbiBJeCiqBgpoHwAauaopWJrSvQ0asdI7Ly6U4le2AQFKGBfgUHVBkM7ss5LTIHPV7bAg6cPxAzHVIkSaFW8FZoU/CBRc3AwBUQS4NFBkVaDWSjwlwA3sPg0mCIwovoIFMtY3JRaLOK8QEBYN5x7cM75gRxBAQpQQCCBlsVboXGBxgIlYpS/C/iH+fGfNYo+EjxKqOjC2rQt7ZeiAzb3x8GbB20qwLYpIK4AN7DEXRulkk2rPx1ZU2VVqieVmvls+ad4HP1YpZbYCwUoYEOBmjlrwb+cvw07l6PlQVsHYf+NfXKEZUqnBXiU0GkyDhBUYNXZlZi+j18dFHR5GMvmAtzAsvkDYFb7i9/7EUk9kppVjnWcEHgS8wSfLmvmxAjeSgEKUEBMgXzp8mFc7fFihmMqTPh9PDZe2kgJhQV4lFDhxbVJa9oHJ7SvDmr/fsyLAhQQT4AbWOKtiXKJUiVJhflvL1CuL1UauvroKjqv7aRKO+yDAhSwsUAyz2T44d2FNhYQu/WZB2di+ellYodkukQJ8Chhovg42GIBHh20eAFYngIOCHADywEk3pI4gZypcyHEJyRxk3C0YQJHbx9Fv019DZufE1OAAhQwU2BWw9lInyy9mSVZy0GBH08sxrwj8xy8m7fJKsCjhLKuHHOvOrsK0/dNIwQFKCCwADewBF4cVaKVzFTPGIfRAAAgAElEQVQKQ6sNVaUd5frYenkrxu0aq1xfbIgCFLCnwNDqQ1E8Ywl7Ni9412vOrcHUfVMET8l4egjwKKEeipzDTIEbj2/Adx2PDpppzloUcEWAG1iuqHGMUwI1c9REQPnuTo3hzeYJrDyzAjMPzDSvICtRgAIUMFCgY5lOqJ+7voEVOLWrAtuvbMOonaNcHc5xEgnwKKFEi8Wo+OPo4AAcvHmAGhSggOAC3MASfIFUiPdu/nfRtsQXKrSiZA+Lji3EwmN8Z4ySi8umKGBDgQ/e+ADNi7awYefit3zw1sGET9PzsocAjxLaY51V6JJHB1VYRfZgFwFuYNllpS3ss0XRz/HhGx9amIClXyYw68BMrDizgkgUoAAFlBColr0aulfooUQvqjVx5v4ZBIR3U60t9vMSgZbFWkHbVOZFAVEF+NVBUVeGuSjwfAFuYPHJMFyga5mu8Mldz/A6LOCaQNDuidh4kZ81d02PoyhAAdEECqQviDG1xogWi3kAXI+8jvZr2tHCRgJeHl4IrjsJ2b2z26hrtiqLgHZ0cODmATjAo4OyLBlzUgDcwOJDYLhAv8r9USFLBcPrsIBrAsO2DcPe63tcG8xRFKAABQQTSJ88PWa9NVuwVIyjCTx69gifrfiUGDYT4FFCmy24RO3+dnYVpvGrgxKtGKNSANzA4kNgvMDomqNR6LXCxhdiBZcEem/ohZN3T7o0loMoQAEKiCbg5uaGnxr/DHc3d9Gi2T5PXHwcmix5H/Hx8ba3sBsAjxLabcXF75dfHRR/jZiQAs8T4C+w+FwYLjC53hTk8M5heB0WcE2g45oOCcc6eFGAAhRQQyAesxrOQfpk6dVoR7Eumi77GFExUYp1xXZeJfDHUcJgZOe/D76Kiv+9CQLa0cFBmwdi/839JlRjCQpQQE8BbmDpqcm5niswt9G3SJc0HXUEFfhs+ad4HP1Y0HSMRQEKUMB5gbG1xyF/uvzOD+QIwwVarvwc95/eN7wOC4gnwKOE4q2JXROtPrsaU/dNsWv77JsCUgtwA0vq5ZMjvHaUw8vdS46wNkupHef4cMkHPM5hs3VnuxRQXaB/lQEo+3pZ1duUsr92a9rhBn/1K+Xa6RG6ZbGW+IBfptaDknO4KHDz8U10XdcFT2KeuDgDh1GAAlYKcAPLSn0b1E7mmQyL3l1sg07lbDHiWQQ+X9FCzvBMTQEKUOAFAr7l/FA7Z236CCjgG+aLCw/OC5iMkcwQ0I4SBtUN5qslzMBmjf8I8OggHwoKyC/ADSz511DoDrR3kMxpOFfojHYOd/XRVXRe28nOBOydAhRQUKBl8VZoXKCxgp3J31KvDT1x4u4J+RthBy4L8Cihy3QcmEiBNedWY8peHh1MJCOHU8BSAW5gWcqvfvFs3tkwtd409RuVtMNT906h1/qekqZnbApQgALPF2jyRhO0KPo5eQQUGLhlAA7cPCBgMkYyU4BHCc3UZi1NgEcH+RxQQA0BbmCpsY7CdpE/bX6MrzNB2Hx2D6b9IWLwlkF2Z2D/FKCAYgIN8jZA+1IdFOtKjXaGbRuK3dd3q9EMu3BZQHs3alDdIORIndPlOTiQAo4K8Oigo1K8jwLiC3ADS/w1kjph8YzFMbz6CKl7UDn8tivbMHbnGJVbZG8UoIANBWrmrAn/ct1s2Ln4LY/cMRI7rm4XPygTGi5QIF0BjKk9Fh5uHobXYgF7C6w5twZT9k62NwK7p4AiAtzAUmQhRW2jfJby6F95gKjxbJ9r7fm1mLZ3qu0dCEABCqgloP2zp2/lfmo1pUg343aNxebLmxXphm0kVuDzYi3xIb9KmFhGjn+JgHZ00HddVzyOeUwnClBAAQFuYCmwiCK3UCNHDXQv30PkiLbOtvTUUsw9NMfWBmyeAhRQT6BYxuIYVn2Yeo0p0FHw7iCEXwxXoBO2oIdA2xJt8R4/uKAHJed4gcDtJ7fhF+oL7cvbvChAAfkFuIEl/xoK3YFPbh90LeMrdEY7h1t8bDF+OLbAzgTsnQIUUFBA+8rZ6Fo8Hi3i0k7ZNxlrz60VMRozmSxQKlMpDKk+FG5wM7kyy9lNQHtlxqgdI+3WNvulgJIC3MBSclnFaaph3oZ8ka44y/GfJN8emoslp5YInJDRKEABCjgvkCdtHkyoM9H5gRxhuMCM/dOx6uwqw+uwgNgC3km8EVJvMtInSy92UKZTRmDSnmCEng9Vph82QgG7CnADy64rb1Lf7+VvjDYl2phUjWWcFZi2bxrWnlvj7DDeTwEKUEBogeypsyPEhy/sFXGRvj7wNVaeWSFiNGYyUaBPpUBUyVbFxIosZXeBJzFP4B/mh2uPrtmdgv1TQGoBbmBJvXzih//wjY/QomgL8YPaNOGEXeP5Ml2brj3bpoDKAplTZsb0N2eo3KK0vX1z8BusOL1c2vwMnniB+nnqo0uZromfiDNQwEmBk3dPovfGXoiNi3VyJG+nAAVEEeAGligroWiOT4t8hqaFmiranfxtDd82DHuu75G/EXZAAQpQ4G8CGVNmxNdvfkMTAQVmHvwGy7mBJeDKmBMpa6qsCKobjGSeycwpyCoU+JfA4uOLMO/IPLpQgAKSCnADS9KFkyV2y2It0aTgB7LEtV3OvhsDcezOMdv1zYYpQAG1BTKmyIivG3ADS8RVnnVwFpadXipiNGYyWMDT3TPh4woF0hUwuBKnp8CLBeLi49BvU18cuX2ETBSggIQC3MCScNFkity6eGs0LvC+TJFtldU3tCsuPbxkq57ZLAUooL4AN7DEXePZh2ZjKT8eIu4CGZisedEW+LjQxwZW4NQUcEzg5uOb8Av1RWR0pGMDeBcFKCCMADewhFkKNYO0LdEW7+Z/T83mFOjqy9Vf4Pbj2wp0whYoQAEK/CWQIUUGfNNgJkkEFJh9cBaW8hdYAq6MsZGKZCiCr2qMhLubu7GFODsFHBTYdGkjxu0a5+DdvI0CFBBFgBtYoqyEojm+LNEOb+d/W9Hu5G/r8xUtEPEsQv5G2AEFKECBvwnwJe7iPg58ibu4a2NUspReKTHJZxIypshkVAnOSwGXBMb/Pg4bL250aSwHUYAC1ghwA8sad9tUbV+yAxrma2ibfmVr9JOlTfE09qlssZmXAhSgwEsFsnlnw+R6U6gkoMCMA9Ox6swqAZMxklECPSr0RI0cNYyanvNSwGWBx9GP4RfmixuRN1yegwMpQAFzBbiBZa637ap1LN0JDfI0sF3fsjT8wa9NoL3MkhcFKEABlQRypsmF4LrBKrWkTC/T9k3F6nOrlemHjbxcoFbO2ggoH0AmCggroH3MSPuoUWx8rLAZGYwCFPhLgBtYfBoMFehcujPq53nT0Bqc3DUB7R/UH/7KL0S6psdRFKCAyAJ50+bD+DrjRY5o22xT9k7G2vNrbdu/nRrXjvIG1Q2GdoSQFwVEFph/dD4WHVsockRmowAF/hTgBhYfBUMFOpfpgvq56xtag5O7JqD9bPqz5Z+6NpijKEABCggsUDhD4YQXRvMST2DSnkkIuxAqXjAm0lVAe1n7iBpfoWiGorrOy8koYISA9pe6gRv74Pid40ZMzzkpQAEdBbiBpSMmp/qvADewxH0q7kXdQ5tVrcUNyGQUoAAFXBQo/XppDKwyyMXRHGakgPbS5E2XNhlZgnMLINC0cFN8VqS5AEkYgQKOCVyLvIZuof54HPPYsQG8iwIUsESAG1iWsNunaJcyXVCPv8AScsGvR15HxzUdhMzGUBSgAAUSI1A5WxX0qtgrMVNwrEECI3d8hR1Xdxg0O6cVQaBg+oIYXWsMPNw8RIjDDBRwWCD8QhiCdgc5fD9vpAAFzBfgBpb55raq2KVMV9TLXc9WPcvS7IUHF+Af5idLXOakAAUo4LBAnVx10LWsr8P380bzBIZsG4K91/eYV5CVTBVI7pkcQT7ByJIyi6l1WYwCegmM2TkGWy5v1ms6zkMBCugswA0snUE53T8FuIEl7hNx8u4J9N7QW9yATEYBClDARYF38r+DNiXaujiaw4wU6L+5Hw7dOmRkCc5toYBvWT/45PaxMAFLUyBxAo+iH8F3XVfcfnI7cRNxNAUoYIgAN7AMYeWk/xPgBpa4z8L+G/sxZOtgcQMyGQUoQAEXBZoV+RQfF/rYxdEcZqRArw09ceLuCSNLcG6LBLSju4GVAi2qzrIU0E9A22QfsLk/4uLj9JuUM1GAAroIcANLF0ZO8iKBrmW6wodHCIV8QHZe3YFRO0YJmY2hKEABCiRG4MtS7dAwb8PETMGxBgn4hfni/IPzBs3Oaa0SyJA8A4J9JsE7ibdVEViXAroKfHv4W/x84idd5+RkFKBA4gW4gZV4Q87wEgHtHSQ+ufhTchEfks2XN2HCrgkiRmMmClCAAokS6F6hO6plr56oOTjYGIF2a9rhRuR1YybnrJYIuLm5YWi1YSiZqaQl9VmUAkYIxMTFoPeGXjh175QR03NOClDARQFuYLkIx2GOCXADyzEnK+7SvrQSsifEitKsSQEKUMBQgaHVh6F4xuKG1uDkrgm0WNEcD589dG0wRwkp0KRgE7Qq3lrIbAxFgcQIXIm4gm7h/oiKiUrMNBxLAQroKMANLB0xOdV/BbiBJe5TsebcakzfN13cgExGAQpQwEWByfWmIJt3NhdHc5iRAh8u/QDRsdFGluDcJgrkSZsX42uPh6e7p4lVWYoC5gmsPbcGk/dONq8gK1GAAi8V4AYWHxBDBXzL+qIujxAaauzq5CvPrMDMAzNdHc5xFKAABQQViMf8d35ACq8UguazbyztSM4HS5rYF0CxzpN4JMHEukHI4Z1Dsc7YDgX+KTBqx0hsu7KNLBSggAAC3MASYBFUjqB9Trlurroqtyhtb0tPLcXcQ3Okzc/gFKAABZ4n4OXhhcXv/UgcAQUinkWg+YrPBEzGSK4IdCjVAQ3zNXJlKMdQQCoB7diz77quuBt1V6rcDEsBFQW4gaXiqgrUEzewBFqMf0X55cTP+P7I9+IGZDIKUIACLghkSZUFU+tPc2EkhxgtcD3yOtqvaWd0Gc5vgkD5LOUxoMpAEyqxBAXEENh/cz8GbRmI+Ph4MQIxBQVsKsANLJsuvFltcwPLLGnn6/x4/EcsODrf+YEcQQEKUEBggRKZSmJItSECJ7RvNO1rXj3Wd7cvgCKdp02WDiE+IUiTNI0iHbENCjgmMOvgLCw9tcSxm3kXBShgiAA3sAxh5aT/E/Ar64c6PEIo5AOx6NgiLDz2g5DZGIoCFKCAqwI+ueuhc5nOrg7nOAMF9t3Yh8FbBxlYgVObITCw6iCUe72cGaVYgwJCCWjv8dM24c/ePytULoahgJ0EuIFlp9W2oFe/cn6ok5PvwLKA/pUl5x+dj5+O8z0xr4TiDRSggFQCzYo0w8eFmkqV2S5hN13ehPG7xtmlXSX7bJTvbbQv1V7J3tgUBRwRuPjwIrqHB+Bp7FNHbuc9FKCAzgLcwNIZlNP9U4AbWOI+Ed8enoslJ/kzaHFXiMkoQAFXBPzLd0PNHDVdGcoxBgusOrsSM/bPMLgKpzdKIGfqnJhQZyK0rw/yooCdBVadWYnp+6fbmYC9U8AyAW5gWUZvj8J+5fxRJ2cdezQrWZezD87C8tPLJUvNuBSgAAVeLjC2zjjkT5ufTAIKLDq+EAuOLhAwGSO9SsDL3Qvj6oxDnjR5X3Ur/3sK2EJg+LZh2HVtly16ZZMUEEmAG1girYaCWbiBJe6ifnPgG2h/g8SLAhSggEoCC979Ack9k6vUkjK9zNg/HavOrlKmHzs10rZEW7xXoLGdWmavFHipwIOnD9A1tAvuR92nFAUoYKIAN7BMxLZjKf9y/qjNX2AJufTaHyRWn10tZDaGogAFKOCKQLpk6TC74RxXhnKMCQKjd47CtivbTKjEEnoKlMpUCkOqD4Ub3PSclnNRQHqB3dd3Y9jWoYhHvPS9sAEKyCLADSxZVkrSnP7luqF2ztqSplc79tS9U7Du/Dq1m2R3FKCArQRKZiqJwdWG2KpnmZoN3NQHR28flSmy7bN6J/FGSL3JSJ8sve0tCECB5wl8vX8GVpxZQRwKUMAkAW5gmQRt1zLdynVDLW5gCbn8IXtCEH4hTMhsDEUBClDAFYF3CryDNsXbujKUY0wQ6Li2A64+umpCJZbQS6BPpUBUyVZFr+k4DwWUE3gW+wwB4d2gfZ2QFwUoYLwAN7CMN7Z1BW5gibv8wbuDsOHiBnEDMhkFKEABJwU6lemMernrOTmKt5sl0Gz5J3gc/discqyTSIH6eeqjS5muiZyFwymgvsD5B+fRfX0AomOj1W+WHVLAYgFuYFm8AKqX71Y+ALVy1FK9TSn7m/D7eGy+tFnK7AxNAQpQ4HkCY2uPRf50BYgjoEBUTBSaLvtYwGSM9DyBrKmyIqhuMJJ5JiMQBSjggMCy00sx88BMB+7kLRSgQGIEuIGVGD2OfaUAN7BeSWTZDaN3jMaOq9stq8/CFKAABfQUcHdzx8L3FsHL3UvPaTmXTgJXIi6j07pOOs3GaYwU8HT3xOhaY1CAm8FGMnNuxQS0F7kP2TIYe2/sVawztkMBsQS4gSXWeiiXJqB8AGryF1hCruuIbcOhfT2FFwUoQAEVBHKlyY2gukEqtKJkDwduHsDALQOU7E21ppoXbYGPC/HXcqqtK/sxXuBu1F34hfriwdMHxhdjBQrYVIAbWDZdeLPaDijfHTVz1DSrHOs4IaD9LdH+m/udGMFbKUABCogrUCdXHXQt6ytuQJsnC78QjuA93GAU/TEokqEIvqoxEtovGnlRgALOC+y8thPaXxLzogAFjBHgBpYxrpz1TwFuYIn7KPTf3B9Hbh0WNyCTUYACFHBC4MtS7dAwb0MnRvBWMwUWH1+M+UfnmVmStZwUSOmVEpN8JiFjikxOjuTtFKDA3wWm7p2C1edWE4UCFDBAgBtYBqByyr8EuIEl7tMQuDEQx+8cEzcgk1GAAhRwQmBcnfHIlzafEyN4q5kC0/ZN5R/ozAR3oVaPCj1RI0cNF0ZyCAUo8HeBp7FP4R/mhysRVwhDAQroLMANLJ1BOd0/BbqX744aPEIo5GPRZ0NvnLh7QshsDEUBClDAGQHtxe0/vLcQHm4ezgzjvSYKDN46CPtu7DOxIks5I1ArZ21o7y3lRQEK6CNw5v4Z9FzfAzFxMfpMyFkoQIEEAW5g8UEwVIAbWIbyJmry3ht64eTdk4mag4MpQAEKiCBQOEPhhPf28BJXoOPaDrj66Kq4AW2cLHPKzAiqGwztCCEvClBAP4FfTv6MuYfm6jchZ6IABbiBxWfAWIHuFXqgRnb+HN1YZddm77m+J07fO+XaYI6iAAUoIJBAkzeaoEXRzwVKxCh/F4iPj8dHSz9EdFw0YQQT0F7WPqLGVyiaoahgyRiHAvILaP/fp319VfsKKy8KUEAfAf4CSx9HzvICAW5gifto9FjfHWfunRE3IJNRgAIUcFCgf9UBKJu5rIN38zazBe48uY02v7UxuyzrOSDQtHBTfFakuQN38hYKUMAVgdtPbsMv1BcRzyJcGc4xFKDAvwS4gcVHwlCBHhV6oDp/gWWosauTdw8PwNn7Z10dznEUoAAFhBBwc3PDvHfmI4VnCiHyMMR/BY7eOQLtwyG8xBIomL4gRtcaw3fHibUsTKOgwLYr2zBqB4+5K7i0bMkCAW5gWYBup5LaF22qZ69up5al6TUgvBvO3T8nTV4GpQAFKPA8gXzp8mFc7fHEEVgg9EIoQvZMEjih/aIl90yOIJ9gZEmZxX7Ns2MKWCAwaU8wQs+HWlCZJSmglgA3sNRaT+G64QaWcEvy/4G6hfnj/IPz4gZkMgpQgAIOCDQu+D5aFmvpwJ28xSqB7458h59P/GRVedZ9joBvWT/45PahDQUoYJLAk5gn8A/zw7VH10yqyDIUUFOAG1hqrqswXXEDS5il+E8Q/1A/XHh4QdyATEYBClDAAYGBVQehdObSDtzJW6wS0I7ObL+63aryrPsvgcrZqiCwEo908sGggNkC2te/+2zsjZi4GLNLsx4FlBHgBpYySylmIz0r9EQ1HiEUcnF8Q31x6eFFIbMxFAUoQAFHBDzcPTD/nQVI6pHUkdt5j0UCXUO74CL/eWOR/j/LZkieAcE+k+CdxFuIPAxBAbsJLD6+CPOOzLNb2+yXAroJcANLN0pO9DyBnhV7oVq2asQRUKDrui64HHFZwGSMRAEKUMAxgZKZSmJwtSGO3cy7LBHQPiP/8bKP8Cz2mSX1WfQvAe2DB0OrDYP2vxteFKCANQJx8XHot6kvjtw+Yk0AVqWA5ALcwJJ8AUWPzw0scVeoy7ouuMINLHEXiMkoQIFXCrQs3hKNC7z/yvt4g3UC1yOvo/2adtYFYOX/F2hSsAlaFW9NEQpQwGKBm49vwi/UF5HRkRYnYXkKyCfADSz51kyqxL0q9kbVbFWlymyXsPwFll1Wmn1SQF2BkHqTkd07u7oNKtDZ79d2Yfj24Qp0IncLedLmxfja4+Hp7il3I0xPAUUENl/ajLG7xijSDduggHkC3MAyz9qWlbiBJe6ycwNL3LVhMgpQ4NUCmVJkxIwG37z6Rt5hqYD29UHtK4S8rBNI4pEEE+sGIYd3DutCsDIFKPAfgfG/j8fGixsoQwEKOCHADSwnsHir8wLcwHLezKwRvqFdcenhJbPKsQ4FKEABXQXezv8O2pZoq+ucnEx/gYm7J2LDxfX6T8wZHRboUKoDGuZr5PD9vJECFDBH4HH0Y/iF+eJG5A1zCrIKBRQQ4AaWAosocgu9K/ZGFR4hFHKJ+BVCIZeFoShAAQcFhlYfiuIZSzh4N2+zSqBbeDecvX/GqvK2r1s+S3kMqDLQ9g4EoICoAsfuHEPfjYGIjY8VNSJzUUAoAW5gCbUc6oXhBpa4a6q9PJKfNRd3fZiMAhR4sUCKJCnxXaPv4OHmQSaBBbSvbTVd9jG/QGjRGqVNlg4hPiFIkzSNRQlYlgIUcERgwdH5WHhsoSO38h4K2F6AG1i2fwSMBehdqQ+qZK1ibBHO7pKAf5gfLjy44NJYDqIABShgpUDd3D7oUqaLlRFY2wGBSxGX0GVdZwfu5C1GCAysOgjlXi9nxNSckwIU0FFA+/VV4MY+OH7nuI6zcioKqCnADSw111WYrriBJcxS/CeIf5g/Ljw4L25AJqMABSjwAoH+VfqjLP9gLvzzsenSJoz/fZzwOVUM2Cjf22hfqr2KrbEnCigpcD3yOrS/XNbei8WLAhR4sQA3sPh0GCrQp1IfVOYvsAw1dnXybmH+OM8NLFf5OI4CFLBIIIVXcnzb6Ht4untalIBlHRX49vBc/HLyF0dv5306CeRMnRMT6kyE9vVBXhSggDwC4RfCELQ7SJ7ATEoBCwS4gWUBup1K9qkUiMpZK9upZWl67RbWDecfnJMmL4NSgAIU0AR88vigc2keH5ThaRi0ZSD239wvQ1RlMnq5e2FcnXHIkyavMj2xEQrYSWDsrrHYfGmTnVpmrxRwSoAbWE5x8WZnBbiB5ayYefcHhHfDufvcwDJPnJUoQAE9BIZUH4oS/PqgHpSGz/H5yhZ48PSB4XVY4C+BtiXa4r0CjUlCAQpIKvAo+hF8Q7vi9uPbknbA2BQwVoAbWMb62n52bmCJ+wh0Dw/A2ftnxQ3IZBSgAAX+JZA2WVrMfmsO3NzcaCO4wK0nt/DFb20FT6lWvFKZSkHb4HUD//eh1sqyG7sJHLp1CAM294f2JVdeFKDAPwW4gcUnwlCBwEqBqMQjhIYauzp5j/U9cObeaVeHcxwFKEAB0wUaF2yMlsVamV6XBZ0X2HZlG0bvHOX8QI5wScA7iTdC6k1G+mTpXRrPQRSggFgC3x7+Fj+f+EmsUExDAQEEuIElwCKoHCGwUl9UylpJ5Ral7a33hl44efektPkZnAIUsJ/AlPpTkTVVVvs1LmHH3x3+Dj+f5B++zFo67RfvVbJVMasc61CAAgYLxMTFQPt39VP3ThlcidNTQC4BbmDJtV7SpQ2s3BeVsnADS8SFC9zYB8fvHBcxGjNRgAIU+I9AodcKYWRN/qJHlkdjwJb+OHjzoCxxpc5ZP099dCnTVeoeGJ4CFPivwJWIK+gW7o+omCjyUIACfwpwA4uPgqECfSv3Q8UsFQ2twcldE+i3qS+O3j7q2mCOogAFKGCyQKcynVEvdz2Tq7KcKwLxiMdnyz9FZHSkK8M5xgkB7ReJQXWDkcwzmROjeCsFKCCLwNpzazB572RZ4jInBQwX4AaW4cT2LtC3Uj9UzMoNLBGfggGbB+DwrUMiRmMmClCAAv8QSOqZFN81+h5JPJJQRgKBSxGX0GVdZwmSyh3R090To2uNQYF0BeRuhOkpQIGXCozaMRLaewV5UYACADew+BQYKsANLEN5EzX54C2DcODmgUTNwcEUoAAFzBB4M8+b6FC6oxmlWEMHgXXn1/IXAzo4vmqK5kVb4ONCH7/qNv73FKCA5AIRzyLQNbQL7j65K3knjE+BxAtwAyvxhpzhJQL9KvdDBR4hFPIZGbZtKPZe3ytkNoaiAAUo8HeBMbXH8lcmEj0Sk/YEI+xCmESJ5YtaJEMRfFVjJNzd3OULz8QUoIDTAvtv7segLQMRHx/v9FgOoIBKAtzAUmk1BeylX+X+qJClgoDJGGnE9hHYfe13QlCAAhQQWiBf2nwYV2e80BkZ7p8CHdd2xNVHV8hikEBKr5SY5DMJGVNkMqgCp6UABUQUmH1wFpacWiJiNGaigGkC3MAyjdqehbiBJe66a+fpd17dKW5AJqMABSgAoGtZX9TJVYcWkgg8fPoAn6/8HNqL3HkZI9CjQk/UyFHDmMk5KwUoIKxATFwMeqzvjrP3zwqbkcEoYLQAN7CMFrb5/NzAEvcBGLtzDF8IKe7yMBkFKADAO4k3ZjecA+1l1bzkENh5bQe+2v6VHGElTFkrZ20ElNshkk4AACAASURBVA+QMDkjU4ACeghcengRAeEBeBr7VI/pOAcFpBPgBpZ0SyZX4P6V+6M8jxAKuWgTdo3H5subhczGUBSgAAU0gY8KfYxPi3xKDIkEZh2ciWWnl0mUWJ6omVNmRlDdYGhHCHlRgAL2FVh1ZiWm759uXwB2bmsBbmDZevmNb54bWMYbu1oheHcQNlzc4OpwjqMABShgqID2q6tZb81G6qSpDa3DyfUV6Bbuz+Mt+pImzKa9rF17abv28nZe9haIjI6EG9yQwiuFvSFs3v2wbcPw+7VdNldg+3YU4AaWHVfdxJ77Vx6A8lnKm1iRpRwVmLJ3CkLPr3P0dt5HAQpQwFQBn9w+6Fymi6k1WSxxAo+iH6HFiuaIi49L3EQc/R+BpoWb4rMizSljcwHtC3TDtw1DUs+k6FWxt8017N3+g6cP0DW0C+5H3bc3BLu3nQA3sGy35OY2zA0sc72dqfbNga+x6swqZ4bwXgpQgAKmCGi/LphULwTZvbObUo9F9BHYdW0XRmwfrs9knOX/BQqmL4jRtcbAw82DKjYXWHB0PhYeW5ig0LVsV9TLXd/mIvZuf/f13Ri2dSg/mmHvx8B23XMDy3ZLbm7DA6oMQLnX+Qssc9Udqzb30BwsPbXUsZt5FwUoQAETBSplrYTelfqYWJGl9BDQPvG+9DT/uaKH5f/mSO6ZHEE+wciSMoue03IuCQX+t0Gs/QpLu7RfYU2sE8SNfgnXUs/IX++fgRVnVug5JeeigNAC3MASennkDzegykCUe72c/I0o2MH3R77HLyd+VrAztkQBCsguMLb2OORPl1/2NmyX3zesKy48uGC7vo1s2LesH7TjtLzsLXAl4jJ6rO8B7f1Xf79yp8mNcbXHI4lHEnsD2bj7Z7HPEr5KePEh/7/Xxo+BrVrnBpatltv8ZrmBZb65oxUXHF2AH48vdvR23kcBClDAFIFSmUthUNXBptRiEf0E7kXdQ+tVrXiURT9SVM5WBYGVAnWckVPJKBAVE4Ue67vj4sOLz43fKF8jtC/VQcbWmFkngfMPzqP7+gBEx0brNCOnoYC4AtzAEndtlEg2sMpAlOUvsIRcy0XHFv7/exSEDMhQFKCALQVG1hyJQq8VtmXvMje9/uJ6BO2eKHMLQmXPkDwDgn0mwTuJt1C5GMZcgXjEY9SOkdh+ZftLC/et3BeVslY2NxyrCSWw7PQyzDzwjVCZGIYCRghwA8sIVc75/wLcwBL3YVh0bBEWHvtB3IBMRgEK2E6gZKaSGFxtiO36VqHhoN1BWH8xXIVWLO/Bzc0NQ6sNg/a/B172FtB+Ka+98uFVl7bRqW14ahufvOwpoG12DtkyBHtv7LEnALu2jQA3sGyz1NY0yg0sa9wdqbr4+CL8cJQbWI5Y8R4KUMAcgZG1RqFQ+kLmFGMVXQW044N3o+7qOqddJ2tSsAlaFW9t1/bZ958Ce2/sxdCtQxAXH+eQSZEMRfBVjZFwd3N36H7epJ6A9v/BfqG+ePD0gXrNsSMK/CnADSw+CoYKDKwyCGVfL2toDU7umsDi44vxw9EFrg3mKApQgAI6C5R7vSz6VRmg86yczgyBsw/OoluYvxmllK+RJ21ejK89Hp7unsr3ygZfLHA98jq6hwcg4lmEU0zNinyKZoWbOTWGN6slsPPaTozYNlytptgNBf4mwA0sPg6GCgysOghlM3MDy1BkFyfXfpauvcidFwUoQAGrBdzghol1JyJXmtxWR2F9FwR+OvGjQ8ecXJjaVkO0L8lNrBuEHN45bNU3m/2nwNPYp+i1oRfO3T/rNI3266sRNb5C0QxFnR7LAeoITN07BavPrVanIXZCAW5g8RkwS4AbWGZJO1/npxM/Yf6Rec4P5AgKUIACOgvUyFET3cp303lWTmeWQJ+NvXHszjGzyilbp0OpDmiYr5Gy/bExxwTG/z4OGy9udOzm59zFDwC4TKfMQG0TVPtV7OWIy8r0xEYo8D8B/gKLz4KhAoOqDkIZ/gLLUGNXJ//5xM+Y58CLQV2dn+MoQAEKOCKgHZWaWn8aMqbI6MjtvEcwAe2I0+crWzj8nh7B4gsTp3yW8hhQZaAweRjEGoElp37F7IOzE128UtZK6Fu5X6Ln4QTyCpy5fwY91/dATFyMvE0wOQWeI8ANLD4WhgoMqjoYZTKXMbQGJ3dN4NeTv+K7w9+6NpijKEABCugk0Ljg+2hZrKVOs3EaswU2XdoE7RcjvFwXSJssHUJ8QpAmaRrXJ+FI6QWO3D6M/pv6IzY+Vpde2pfqgEb8RZ8ulrJO8svJXzD30BxZ4zM3BZ4rwA0sPhiGCnADy1DeRE2+9NQSzD00N1FzcDAFKECBxAikSpIKXzf4Bsk9kydmGo61UEDbvNI2sXi5LqC9bqHc6+Vcn4AjpRfQvh6nHfm6F3VPt168PLwwrvZ45EmTR7c5OZFcAvGIx8DNA3Dg5gG5gjMtBV4iwA0sPh6GCgyuOgSlM5c2tAYnd01g2ellmKPDz9Rdq85RFKAABYD2pTugQZ4GpJBUQDua0mJlczyOfixpB9bHbpTvbbQv1d76IExgmYD2i6t+m/ri6O2jumfQPggwvs4EJPNMpvvcnFAOgdtPbsMv1NfpL1rK0R1T2lGAG1h2XHUTe+YGlonYTpZacWYFZh2Y6eQo3k4BClBAH4HcafJgQp0JcHNz02dCzmK6wN4bezFk62DT66pSMGfqnJhQZyK0rw/ysq/ArIMzsfTUUsMA6uWuh65lfQ2bnxOLL7D96naM3P6V+EGZkAIOCHADywEk3uK6ADewXLczeuRvZ1fh6/1fG12G81OAAhR4rsCwGsNRLEMx6kgsMH3/NPx29jeJO7Auupe7F8bVGYc8afJaF4KVLRfYenkLRu8cbXiOHhV6okaOGobXYQFxBSbtCUbo+VBxAzIZBRwU4AaWg1C8zTWBIdWGoFQmHiF0Tc/YUWvOrcH0fdOMLcLZKUABCjxHoHqO6ggo3502Egto71Zp81sb3H1yR+IurIvetkRbvFegsXUBWNlygUsRl9AjvDuexDwxPEtKr5QIqhuMzCkzG16LBcQU0J4z/zA/XHt0TcyATEUBBwW4geUgFG9zTWBItaEolamUa4M5ylCB0PPrMGXvFENrcHIKUIAC/xbQXtg+7c3p/OKa5I/G8TvH0XtjL8m7sCa+9u9FQ6oPhRt4fNaaFbC+alRMFLqHB0DbxDLrKpi+IEbXHAMPdw+zSrKOYAIn755En429ob2/kBcFZBXgBpasKydJbm5gibtQ4RfCEbJnkrgBmYwCFFBSoH2pdmiQt6GSvdmpqVkHZ2HZaePe26OqpXcSb4TUm4z0ydKr2iL7ckBgzM4x2HJ5swN36nvLB298gJbFWuk7KWeTSmDx8UWYd2SeVJkZlgJ/F+AGFp8HQwW4gWUob6Im33hxI4J2T0zUHBxMAQpQwBmBAtovAGqN5i9PnEET8F7t+OAXv32B209uCZhO7Eh9KgWiSrYqYodkOkMFtK9AzzzwjaE1XjS59tEMvp/WEnphisbFx6Hf5r44cuuIMJkYhALOCHADyxkt3uu0wNBqQ1GSRwiddjNjwJbLWzB+1zgzSrEGBShAgYRjK9oX17Qvr/GSW4DHB11bv/p56qNLma6uDeYoJQSO3TmKfpv6WXqEK12ydAj2mYS0SdMqYcomnBe4+fgm/EJ9ERkd6fxgjqCAxQLcwLJ4AVQvzw0scVd4x9XtGL3D+C/fiCvAZBSggJkCnxT+BE0Lf2JmSdYySIDHB52HzZoqa8JLtJN5JnN+MEcoIXD/6f2El2jffXLX8n5KZy6DwdUG89ewlq+EdQE2X96MsTvHWBeAlSngogA3sFyE4zDHBIZWG4aSmUo6djPvMlVg9/XdGLFtuKk1WYwCFLCnQK40uTC+zgR4uPHlwbI/AfHx8Wi7ui3uPLkteyum5fd098ToWmNQIF0B02qykFgCsfGxGLh5AA7dOiRMsNbFW+P9gk2EycMg5gtM/H0C1l9cb35hVqRAIgS4gZUIPA59tQA3sF5tZNUdB27ux+Atg60qz7oUoIBNBNzd3DG29jjkTZvXJh2r3ebBWwcxYHN/tZvUubsWxT7HR298pPOsnE4mgbmH5+KXEz8LFZkbq0IthyVhHkc/hl+YL25E3rCkPotSwBUBbmC5osYxDgsMqz4MJTLyF1gOg5l445HbR9B/Uz8TK7IUBShgR4FPCjdD08JN7di6kj1P3huCdefXKdmbEU0VyVAEX9UYCW0jl5c9BbRfvA/bNhTarxdFu7KkyoKJdYOQwjOFaNGYxySBY3eOoe/GQGi/EuRFARkEuIElwypJnHFY9eEokbGExB2oG/3k3ZPovaGXug2yMwpQwHKB/OkKJHx1kH94t3wpdAkQHReNlis/54t/HdRM6ZUSk3wmIWOKTA6O4G2qCdyMvIFu4d0Q8SxC2NZq5KiJHhV6CJuPwYwXWHB0PhYeW2h8IVaggA4C3MDSAZFTvFiAG1jiPh3nH5xDt7Bu4gZkMgpQQGqBpB5JMNEnGFlSZpG6D4b/S2D71e0YtWMkSRwU6FGhJ2rkqOHg3bxNNYGYuBj02dgb2l8Yin75l/NHnVx1RY/JfAYJaL++CtzYB9oXZnlRQHQBbmCJvkKS5+MGlrgLeOXRFXRZ21ncgExGAQpILdClbBfUzeUjdQ8M/0+BkTu+wo6rO8jigECtnLURUD7AgTt5i6oCM/bPwMozK6RoT/s6pnaUMFuqbFLkZUj9Ba5HXk/4Sqb2XixeFBBZgBtYIq+OAtmGVx+O4jxCKORK3np8C+1WfylkNoaiAAXkFqiUtRJ6V+ojdxNM/w+BB08foM1vraH9qoTXywUyp8yMoLrB0I4Q8rKnwNbLWzB652ipmtc+tKF9cMPL3Uuq3Ayrn0D4hXAE7Z6o34SciQIGCHADywBUTvmXwPDqI1A8Y3GSCCig/WGk1cqWAiZjJApQQGYB7Q/v2t/kJ/dMLnMbzP4vgWWnl2HWwZl0eYWA9r63ETW+QtEMRWllU4Grj64gIDxAyl+yvJP/XXxZkn+5adNHN6HtcbvGYtOlTXYmYO+CC3ADS/AFkj0eN7DEXcGomCg0W/aJuAGZjAIUkE7Aw80DX9UaiYLpCkqXnYFfLuAX5gft3Ym8Xi6gfXHzsyLNyWRTgWexz9BjfXecf3BeWoF+VfqjYpaK0uZn8MQJPIp+BL9QX2gnNXhRQEQBbmCJuCoKZdL+FrJYhmIKdaROK3Hxcfjg1ybqNMROKEABywXal+6ABnkaWJ6DAfQVOHv/TMKX1Hi9XKBg+oIYXWsMtI1cXvYUCNkzCevOr5O6+dRJUmNSvUlIn+w1qftgeNcFDt86hP6b+0P7swIvCogmwA0s0VZEsTzcwBJ7Qd//pbHYAZmOAhSQRqBq9qrQvrrGSz2BGfunY9XZVeo1pmNH2pHZIH51U0dR+aZS6f1B2us/tA8xaUdiedlT4NvD3+LnEz/Zs3l2LbQAN7CEXh75w3EDS+w15AaW2OvDdBSQRSBXmlwYU3sskrgnkSUyczoo8DT2KVqvaoXI6EgHR9jzNt+yfvDJza9u2nP1gQsPLyQcHXwa81QZgs+KNkfTQk2V6YeNOCegfbCj94ZeOHXvlHMDeTcFDBbgBpbBwHafnhtYYj8BTX59H/Hx8WKHZDoKUEBogRReKTGh7gRkTpFZ6JwM55pA2IVQTNozybXBNhlVOVsVBFYKtEm3bPPfAk9iniAgvBuuRFxRCkc7Cqv9e3yRDEWU6ovNOC5w5dEVdAvzh/beXF4UEEWAG1iirISiOb5K+BIP34El6vJq78Di+XZRV4e5KCC+gJubGwZXG4wSGUuKH5YJXRLotaEnTtw94dJYOwzKkDwDgn0mwTuJtx3aZY/PEVD5q22ZUmRKOBqbyisV196mAmvPrcHkvZNt2j3bFlGAG1giropCmbiBJfZifvjrB4iNjxU7JNNRgALCCmifW2+Yr5Gw+RgscQLal9T8wnwTN4nCo7UN3KHVhqFkJm7gKrzML21t9dnfMHXfVKXb5y8MlV5eh5obtWMktl3Z5tC9vIkCRgtwA8toYZvP/1WNkSiaoajNFcRt/6MlHyEmLlrcgExGAQoIK1A/z5voWLqjsPkYLPEC0/ZPxeqzqxM/kaIzNCnYBK2Kt1a0O7b1KgFtg1d779Wz2GevulX6/75j6U54K+9b0vfBBlwTiHgWga6hXXD3yV3XJuAoCugowA0sHTE51X8FuIEl9lPRdOnHtvgXL7FXgekoIJ9AiUwlMKjqYH6hSr6lczix9tL2Nr+15rtPXiCWJ21ejK89Hp7ung6b8kZ1BLR3AnUL91fuvVcvWqEkHkkwrvZ45E6TW51FZCdOCey/uR+Dtgzku3OdUuPNRghwA8sIVc75/wIja45Ekdf4CyxRH4lmyz7hH05EXRzmooCgArnT5sbIGiORzDO5oAkZSw+B5aeXYebBmXpMpdwc2h/mJ9YNQg7vHMr1xoYcE5j4+wSsv7jesZsVuStn6lwYX2c8knokVaQjtuGswOyDs7Dk1BJnh/F+CugqwA0sXTk52b8FRtYchSKv8esloj4Zny3/FI+jH4saj7koQAHBBDKkyIDRNccgffL0giVjHD0F4hGPjms74tqjq3pOq8xcHUp14LvflFlN5xtZd34dQmz6Zc4GeRugU+nOzqNxhBICMXExCcdmz94/q0Q/bEJOAW5gyblu0qTmBpbYS/X5ihbQzrXzogAFKPAqgRReKaD9f3rO1DlfdSv/e8kF9lzfg6HbhkjehTHxy2cpjwFVBhozOWcVXuDCwwvoEd4dT2OfCp/VqIC9K/VB1WxVjZqe8woucOnhJQSEd7P1/wYEXyLl43EDS/kltrbBUTVHoTB/gWXtIrykequVrfDg6X1h8zEYBSgghkASDy8MqTYMhV4rJEYgpjBUYNDWgdh/Y7+hNWScPG2ydAjxCUGapGlkjM/MiRSIio1C97AAXIq4lMiZ5B6e0islgn0mIVOKTHI3wvQuC6w6uwrT901zeTwHUiAxAtzASowex75SgBtYrySy9Ia2v7XhF0UsXQEWp4D4Au5u7uhfpT9KZy4jflgmTLSA9gsTv1BfaMcIef1TYGDVQSj3ejmy2FQgaHcQwi+E2bT7f7at/WWG9otcDzcPethUYPi2Ydh1bZdNu2fbVgpwA8tKfRvUHlVzNAq/VtgGncrZYvs17XAz8qac4ZmaAhQwXMDNzQ29KvZCpayVDa/FAmIIhOydhNDzoWKEEShFo3xvo32p9gIlYhQzBcIuhCJ4d7CZJYWv9XGhj9G8aAvhczKgMQIPnz5Al9AuuB/FkxzGCHPWFwlwA4vPhqEC3MAylDfRk3dKeEnvtUTPwwkoQAH1BLTNK/9y/qiRo6Z6zbGj5wrci7qHL9d8gejYaAr9TUB779uEOhOhfX2Ql/0EtHf+dF8fwK82/2vptV/nDq02FCUylbTfQ8GOEwT23NiDoVuG8Be7fB5MFeAGlqnc9is2utYYFErPd6aIuvJd13XB5YjLosZjLgpQwDIBN3Qp2xl1c/lYloCFzRdYcHQ+Fh1fZH5hgSt6uXthXJ1xyJMmr8ApGc0ogWexzxK+unb+wXmjSkg9b/rkryG4bjDfCyf1KiYu/Nf7Z2DFmRWJm4SjKeCEADewnMDirc4LcAPLeTMzR/iH+eHCgwtmlmQtClBAcAE3uKEzN68EXyX940XFROGL1W35Zdp/0bYt0RbvFWisPzhnlEIgZE8I1p1fK0VWq0KWe708BlQdAO2fHbzsJ6Bt8nYPD4D2/kReFDBDgBtYZijbuAY3sMRe/O7h3XH2/hmxQzIdBShgmsAfm1ddUDdXXdNqspAYAktPL8Xsg7PECCNIilKZSmFI9f9j7z7grKrOvY8/U+m9VykCAlKU3ttIPtHk6utNNO+r3qsx12ACM/TeQellwFhiizWWxJbYh94ERKQjvfc6DDD9vHefowkqwszZZ62z9l6//fnkEyJ7P+t5vmtHnT/n7D2RH8wN2Q/dbSw9uERmrpmpe1lPrve7Fr+T/7jxTk/2TtPuBZxPKDpfs+Xr5+4tqXB9AQKs6xtxhgsBAiwXeBouHbZ4qOw4s0PDSiyBAAKmCzjPvBrQeoB0qdXV9FbpL8ICufm54rzU49TlUxGu7N1ypRJLyfzbnpDyRct7dwg6D1vgaMYRGbBwgFzKuRR2DZsudL5qO73HDKlftr5NYzPrFQIf7PpAntvwLCYIKBcgwFJObPcCBFhm7/+opSNl66mtZjdJdwggoFzAeRjvkODbBtsrX4sFzBNI258m89fNM6+xKHY0vP0I6VijYxQ7YOloCTiB7tDFQ2TX2V3RasGT69YoWUPm9JorReOLerJ/mnYnEJCATFg+Qb46vs5dIa5G4DoCBFjcIkoFCLCU8rouPn75ONlwYoPrOhRAAAHvCjhvVhvRYaQ4X5fisE8gP5AvfdP+KIcvHLZv+J+YuHed3tK3VT88LBV4bsNz8sGu9y2d3t3YPW/oKf1bD3BXhKs9K3A284wkpyXL+azznp2Bxs0XIMAyf4883SEBltnbN2nlJPnqGH9SYvYu0R0C6gRKJpaU0R3HSKPyjdQtQmWjBZYcXCKz184yukedzVUvWV3m9krlUyQ60Q1aa+3RtTJ55SRxPk3CEZ7AwDYDpXvtHuFdzFWeF1h7dI04P19wIKBKgABLlSx1gwJTu02TxhUao2GowNQvpsrqI18Y2h1tIYCASoHKJarImI5jpGapmiqXobbBAoFAQPqm9ZVDFw4a3KW+1uJj48X5g7cG5RroW5SVjBFwngHnvJ05PSvdmJ682Eix+GLBELhayWpebJ+eIyDw5Po/ySd7PolAJUog8GMBAizuCqUCfAJLKa/r4s7bdVYcWu66DgUQQMBbAvXK1gt+8qpc0XLeapxuIyqw/NAymbFmRkRrernY/U0fkHtuusfLI9B7mALOV2lHLxslm09uDrMCl10pUL/sjTKjxwxxQmEO+wSy8rJkwIL+cujCIfuGZ2LlAgRYyontXoAAy+z9T12XKov3LzK7SbpDAIGICrSq2kqGthsmzrOvOOwVcL4ilZzWTw6kH7AX4YrJm1RsIo93nSLOCw047BN4fetr8sa2N+wbXOHEdzW4S37b/GGFK1DaZIHd53bLkEWDxXkpAgcCkRQgwIqkJrV+JMBXCM2+KZ5a/6R8tvczs5ukOwQQiJjAL2/8pTzU/LcSIzERq0khbwosP7xcZqye7s3mI9x1iYQSMi9pnlQqXjnClSnnBQHnU1fOp6+cT2FxRE7A+efM2E7jxPlDEw47Bd7Z8Y78ZdOLdg7P1MoECLCU0VLYEeATWGbfB89ueFY+2v2h2U3SHQIIuBaIi4mTP7bqKz14sK5rSz8UcH5Q7xd89hVf73D2c3DbIdK1Vlc/bC0zFFLAed5V8oJ+cubymUJeyekFEShTpIzMS5rP19ULguXDc5xP+o5dNoY3nvtwb6M5EgFWNPUtWJtPYJm9yS9tekne2/mu2U3SHQIIuBIoW7SsDG8/XBqVv8lVHS72j8CC/Qtk3rpU/wzkYhLnbWnOW9M47BNwfrh23jjovHmQQ51Ai8otZGLnSRITwyd/1SmbW9l5OUJKWrJcyL5gbpN05ikBAixPbZf3miXAMnvP/rr1dXlr+1tmN0l3CCAQtkCjCo1keLsR4oRYHAg4As7zSP7w+aNy/OJx60GqlKgSfFua8xVCDvsE3t/5njy/8Xn7Bo/CxP9983/Lfzb6VRRWZkkTBFYdWSVTVj1uQiv04AMBAiwfbKLJIxBgmbw7Im9ue4OHlpq9RXSHQNgCP6//c3m4+e/E+fogBwLfCXy852N5+uunrAdxHtb+eLcp0qRCE+stbATYdXaXDF08hAdMa9p8522EU7pNlUblG2lakWVME5i/bp58vu9z09qiHw8KEGB5cNO81DIBltm7RYBl9v7QHQLhCBSNLyL9WqVIxxodw7mca3wskJmbKX0++72czTzr4ykLNtq9je+V+5rcX7CTOctXApdzL0v/BSlyNOOor+YyfRg+8Wj6Dqntz/nnT8qCZP5/p5bZiuoEWFZsc/SGJMCKnn1BVn5z25vyxra/FuRUzkEAAQ8I1C9XXwa1GSzVSlbzQLe0qFvgze1vyOtbX9e9rHHrNSzfMPiSGT6daNzWaGlozpezZdH+RVrWYpHvC3Sq2UmGtRsOi6UCO8/skGFLhvHJR0v3P1JjE2BFSpI6VxUgwDL7xnhr+5vy160EWGbvEt0hUDCBX9z4S3mw2YP8UF4wLuvOOpd1Tvp8+ntxPn1i81EsvpjMTUqVaiUIeW28DxYfWCSz1862cXRjZu57az/pXbe3Mf3QiF4B59m7r255Re+irOYrAQIsX22necMQYJm3J1d29Pb2t/jTeLO3iO4QuK5A+aLlJaVNijSv1OK653KCvQJ/3vCMfLj7Q3sBvp08uVWKJNVJst7BRgDnK4MDFvaXSzmXbBzfmJmLxBeR2T3nSK1StYzpiUb0CeQH8mXUspGy5eQWfYuykq8ECLB8tZ3mDUOAZd6eXNnR3755W17b8prZTdIdAgj8pIDznKs/3PpH3qLGPXJNgcMZhyU5rZ/1X9voUKOjjGg/grvFQgHn7ZvDFg+VnWd3Wji9eSPXKVNHZvaYJYlxieY1R0fKBU5cOiEpaclyMeei8rVYwH8CBFj+21OjJiLAMmo7ftTM37/5m7y65VWzm6Q7BBD4kUCpxFLy6C1/kA41OqCDwHUFHls1WdYcXXPd8/x8QsViFSU1aZ44/9/hsE/gL5telHd2vGPf4AZPfHv926VPy0cN7pDWVAosO7RMZqyernIJavtUgADLpxtrylgEWKbsxNX7cP5l7pXNL5vdJN0hgMD3BJxPXfW5pY+USiyNDALXFdh4YoOMWT7muuf5+YSYmBiZyP1ryQAAIABJREFU2HmStKjM12z9vM8/Ndv6E+tl/PJxEggEbBzf6JlHdBgpHarzBzFGb5LC5uasnS2LDvBCBYXEvixNgOXLbTVnKAIsc/biap28u+NdeXnzS2Y3SXcIIBAUqFCsgvS55VFpXbU1IggUSMB51ojzzJ995/cV6Hy/nnR3w7vlwWYP+XU85rqGwPms89IvrZ+cyzyLk4ECzicinU9GOp+Q5LBPwHkeXcqCZDl+8bh9wzNx2AIEWGHTcWFBBAiwCqIUvXPe2/mevLTpL9FrgJURQOC6As6nR+6of4fc3/QBKRJX5LrncwIC3wl8uvcTeXL9k1aD1C1bT2b1mCXxsfFWO9g4fEACMnHFBFl3bJ2N43tm5iYVm8jjXadIbEysZ3qm0cgJbDu9TUYuGSF5gbzIFaWSrwUIsHy9vdEfjgAr+ntwrQ7e3/m+OM+F4EAAATMFbqrQWB5p+YjULVPXzAbpyliBjOwMefTzPpKelW5sj6obcx4QPafXXN52phra0Prv73xPnt/4vKHd0daVAr9p/Bv5f03uA8VSgde3viZvbHvD0ukZu7ACBFiFFeP8QgkQYBWKS/vJH+z6QF7c+IL2dVkQAQSuLVCmSBl5qPlvpVutblAhEJbA018/LR/v+Sisa/1yUZ+WfeT2+nf4ZRzmKITA7nO7ZeiiIZKTn1OIqzg1WgLOp68mdZkszSo1i1YLrBtFAefTVyOWDJftp7dHsQuW9ooAAZZXdsqjfRJgmb1x/9z1D/500uwtojvLBBJiE+TOBnfKrxvfI4mxvF7csu2P2Lh7zu2RQYsGivMMLFuPNtXayJiOY20d3+q5M3Mzpf+CFDmSccRqB68Nz5tCvbZjke332MVjkpKWLJdzL0e2MNV8J0CA5bstNWsgAiyz9uOH3Xy4+5/y3IbnzG6S7hCwQMB5zlW3Wt3lvqb38TBbC/Zb5YjOc3+cP8l2niti61G2aDmZnzRfnE8yctgnkLouVRbsS7NvcB9M3K5aOxnVcbQPJmGEcAQW7l8oc7+cE86lXGORAAGWRZsdjVEJsKKhXvA1P9rzkTz79Z8LfgFnIoBAxAVaV2sjDzS9X2qXviHitSlon8CC/Wkyb908+wa/YuKxncbxtk5L74AVh5bLtNXTLJ3eH2P/vuXv5Y76v/DHMExRaIGZa2bI0oNLC30dF9gjQIBlz15HZVICrKiwF3jRT/Z8LM98/UyBz+dEBBCInECLyi3kN43/r9xU4abIFaWS1QLp2enyx8/+IM5/23o4P/g6PwBz2Cdw4tIJ6Z+WIhk5GfYN76OJE+ISZGaPWby8xEd7WphRLuZclOS0fnLy0snCXMa5FgkQYFm02dEYlQArGuoFX/PTvZ/K0+ufKvgFnIkAAq4FWlZpKb9u9GtpUrGp61oUQOBKgdR1c8X5CoatR+3StWV2zznivH2Qwy4B53lvo5aOlC2nttg1uE+nrVmqZvD/y0Xji/p0Qsa6lsDmk5tk9LLRVj/HkTvkpwUIsLg7lAoQYCnldV38832fyZNfPem6DgUQQODaAs4zrtpUbSN3N/pPaVS+EVwIRFzA+cHd+QHeeQaWjYfzAoSZPWdK3TL1bBzf+pnf3P6mvLblVesd/ARwW53bpF+rZD+NxCyFEHh588vyt2/eLsQVnGqLAAGWLTsdpTmndpsqjSs0idLqLHs9gbR9afKnr5643mn8PgIIhCkQFxsnPWv3lP9o8B9Ss1StMKtwGQLXFsjNz5WUBcly6MIha6kebv6w3NngLmvnt3nwb858I8OXDJO8/DybGXw5++C2g6VrrW6+nI2hrv/PtWGLh8rOszuhQuB7AgRY3BBKBfgEllJe18Wdr5rMt/xhv64RKYDAVQRKJZaS2+vfLj+vdztvQuMOUS7w+tbXxPkEiq1Hy8otZUKXiRIjMbYSWDv3pZxLwfD2+MXj1hr4efDi8cVlblKqVC1R1c9jMttPCBzJOCz9F/SXzNxMjBD4lwABFjeDUgE+gaWU13XxRQcWybwvU13XoQACCIQEGlVoFAytutTsIrExsbAgoFxg7/m9MnjRIHE+hWXj4YTF8297QsoXLW/j+NbPPGvtTFlyYIn1Dn4GaFi+oUzrNl2cTzRz2Cfw2d7P5Imv5ts3OBP/pAABFjeHUgECLKW8rosvPrhYUtfOdV2HAgjYLFAsoZgk3ZAkt9XtLbX4mqDNt4L22fMCeTJ08RDZdXaX9rVNWXB4+xHSsUZHU9qhD40Ciw8sktlrZ2tckaWiJeA8P/LBmx+M1vKsG2WBqV9MkZWHV0a5C5Y3RYAAy5Sd8GkfBFhmb+ySg4tlLgGW2ZtEd0YKxMTESovKLaR7rW7SuWYX/mTYyF3yf1Pv7Pi7vLT5Jf8P+hMT9q7TW/q26mft/DYPfuziMem/IEWcrxBy+F/AeRHK+E4T5JYqt/h/WCb8kcCF7AuSnNZPTl8+jQ4CQoDFTaBUgABLKa/r4ksPLpE5a+e4rkMBBGwRqFe2nnSv3V261+4hzleXOBCIlsDBCwdl4MIBkp2XHa0Worpu9ZLVZW6vVCkaXzSqfbC4fgHnk4cjlgyX7ae361+cFaMmUK5oOUlNmidli5SNWg8sHD2BDSc2yNjlYyQQsPNNu9GTN29lAizz9sRXHRFgmb2dSw8tlTlr+Pi92btEd9EUcB4KXadsneCnrLrV6ioVilWMZjusjUBQwPkBfvjiYbLj7A4rReJj42Va9+nSoFwDK+e3fehXt7wqb1n80gKb9/+WKrfK+M7jeWGDpTfBCxufl/d2vmfp9Iz9nQABFveCUgECLKW8rosvO7RMZq+Z5boOBRDwk0BcbLw0rdhU2lZrK51rduYtgn7aXJ/M8vY3b4nzQ7ytx/1NH5B7brrH1vGtnnvLqc0yaukoyQ/kW+1g8/APNntI7m54t80E1s7uvKzEeWnJnnN7rDVgcOErhNwEagUIsNT6uq2+/NAymUWA5ZaR630g4Hw1oUONDtKsUjNpXbWNOJ/w4EDARAHb3zrYpGITebzrFN7yaeLNqbinjJwMSf68n5y6fErxSpQ3WcD55/PUbtPEeTshh30CB9NDX5/Pysuyb3gmDgrwCSxuBKUCU7pNlSYVmihdg+LhCyw/vFxmrZ4ZfgGuRMCjAqWLlJbWVVsH/wW4bbV24gRYHAiYLvDdnz47IZaNR4mEEjIvaZ5UKl7ZxvGtn3naF1NlxeEV1jsAIFKtRDWZkzRXiscXh8NCgY/2fCRPr3/KwskZmQCLe0C5AAGWcmJXC6w8vEJmrJ7hqgYXI2C6QFxMnNQsXTP49qKapWoFg6syRcqY3jb9IfAjgRc3vWD18z8Gtx0iXWt15c6wUODzfZ/J/HXzLZyckX9KoEutrjKk7RCALBV4bOVkWX10taXT2z02n8Cye/+VT0+ApZzY1QIrD6+UGaunu6rBxQiYJFAkLjEYUt1cuZlULlZJGlVoJPXK1ueBryZtEr2EJeC8gWncirHWvoHJefPnwDYDw7LjIm8LHM44LAMW9JfM3ExvD0L3ERdIad1fet3QK+J1KWi+QHrWeemb1lfOZZ4zv1k6jKgAAVZEOSn2QwECLLPviVVHVsr0LwiwzN4luvuhgPOJKucrgLVK15L6ZetL6SJlpHrJ6tK4QmMplVgKMAR8J3Ah+4KkLEiW05dP+262ggxUpUQVmdsrVZyvEHLYJeB8bXbo4iGy6+wuuwZn2gIJFI0vKnN6zpUapWoU6HxO8pfA+uNfyfgV4639gx1/7WbBpyHAKrgVZ4YhQIAVBprGS744skqmfTFN44rRXSomJuYnG4iRq/+e81evdZ1TMCYm7ieu/vFysTGxBXj4cEBy8/PCxgq9nSnwveud/xUIfP+vOScEfnjeVc4Ju5FCXOi4OA9mLRJXVEomlpDyRctLtZLVpUKxCpIYlyClE8tI1RJV5IYydQipCuHKqf4QmLZ6qjifmLXxcP7e8FjXx4NvBuWwT+Avm16Ud3a8Y9/gTFxggXpl68mMHjMlITahwNdwon8E/rzhz/LPXf/wz0BMcl0BAqzrEnGCGwECLDd66q91/lTfeSX1D4/EuCISW8BIJiEuUeJiYgvUbHxsgsTHFeztbvEx8VIkPvGqdRNji/zkW+KKxRcrQEBUoHatP8n5ukZeIC/4uvLgVzdiApKTlyPZ+TnBfCwrLzMYiuUF8iUnLzvo5fxefuDf4Zvze3n5eZIQlxC8pxLjEiU2Jk6KJxSXEoklpHRC6eB//1SAaP0mAGC9wCd7P5Gn1j9prcO9je+V+5rcb+38Ng8e/Nrs8rHBfwZxIHAtgV/e+Ev5nxaPgGShQHZetgxaOFD2p++3cHo7RybAsnPftU1NgKWNmoUQQAABBHwm4PwL+ZBFg619XbjzltBp3aeL87VhDrsE0rPTJfnzfnIm84xdgzNt2AKjOo6WdtXahX09F3pXYN/5fTJo0cDgH7Jy+F+AAMv/exzVCQmwosrP4ggggAACHhXIysuSgQsHyKELhzw6gbu2nU/Tzk1KlWolqrkrxNWeFHhs5WOy+ugXnuydpqMj4DwDc17S/OCjBzjsE/hg1wfy3IZn7RvcwokJsCzcdJ0jE2Dp1GYtBBBAAAG/CMxfN0/S9qf5ZZxCz5HcKkWS6iQV+jou8L7AR3s+kqfXP+X9QZhAu8DNlW6WyV0e41ES2uWjv6DzTNcJyyfIV8fXRb8ZOlAqQICllJfiBFjcAwgggAACCBROYOGBhZL65dzCXeSjszvU6Cgj2o/w0USMUlCBA+kHgs+zcT6ByIFAOAL3NblP7m38m3Au5RqPC5zNPCvJaf3kfNZ5j09C+9cSIMDi/lAqQICllJfiCCCAAAI+E3Ce5TF08RBrf4CvWKyipCbN422jPruvCzJOTn6ODF40SPae21uQ0zkHgasKOM/Mc95c2qRiE4QsFFh7dK1MWjnRwsntGZkAy569jsqkBFhRYWdRBBBAAAEPClzKvSQDFw6UoxlHPNi9+5ZjYmJkYudJ0qJyC/fFqOA5Aef5Nc5zbDgQcCtQqXhlSU1KlZIJJd2W4noPCjy5/kn5ZM/HHuyclgsiQIBVECXOCVuAACtsOi5EAAEEELBMYOrqKbLq8CrLpv73uHc3vFsebPaQtfPbPPj641/J+BXjJRAI2MzA7BEU6FC9g4zoMDKCFSnlFQHnK8gDFvS39iUoXtmncPskwApXjusKJECAVSAmTkIAAQQQsFzgnR3vyEub/2KtQt2y9WRWj1kSHxtvrYGtg6dnnZe+aX3lXOY5WwmYW5HAo7c8Kj+vd7ui6pQ1WWD3ud0ydNEQcb6azOEvAQIsf+2ncdMQYBm3JTSEAAIIIGCYwPrj62XiygmSH8g3rDM97STGJcqcXnOlVqlaehZkFaMEJq+cJGuOrjGqJ5rxh4Dz95aZPWZJnTJ1/DEQUxRKwPmDob9serFQ13Cy+QIEWObvkac7JMDy9PbRPAIIIICAYoFjF48FH1x9IfuC4pXMLd+nZR+5vf4d5jZIZ8oEPtz9oTzz9dPK6lMYgdqla8usnrOlSFwRMCwTCEhAxi4bIxtObLBscn+PS4Dl7/2N+nQEWFHfAhpAAAEEEDBUIDM3U4YtGSb7ztv71rU21drImI5jDd0h2lIpcCD9gAxaONDaN26qtKX29wV61/2Z9L21LywWCpy6fEpS0pKt/kMiv207AZbfdtSweQiwDNsQ2kEAAQQQMELA+ZPh6aunycrDK43oJxpNlC1aTuYnzZcyRcpEY3nWjKKA81wa55OHe8/ZG95Gkd/KpYe2Gyqda3axcnbbh151ZJVMWfW47Qy+mZ8AyzdbaeYgBFhm7gtdIYAAAghEV+C1ra/JW9vfjG4TUV59bKdx0rpq6yh3wfLREHhuw3Pywa73o7E0a1oqUCKhhKQmzZPKxStbKmD32PPXzZfP931mN4JPpifA8slGmjoGAZapO0NfCCCAAALRElh2aJnMWjNTnE9h2XrcUf8X8vuWv7d1fKvnXn/8Kxm/YrwEAvbe/1bfAFEc/qYKN4nzs0lcTFwUu2DpaAg4X9lPWZAsRzOORmN51oygAAFWBDEp9WMBAizuCgQQQAABBP4tsOPsDhm1dKRk52Vby+I8VHl2zznivCGMwy6B9Kzz0jetn5zLPGvX4ExrjMCvb7pHHmj6gDH90Ig+gZ1ndgSfO5mbn6tvUVaKuAABVsRJKXilAAEW9wMCCCCAAAIhgeOXjsvQxUPkXOY5a0kSYhNkZs+ZUrdMPWsNbB78sZWTZfXR1TYTMHuUBWJjYmVC54nSonKLKHfC8tEQeGv7W/LqlleisTRrRkiAACtCkJS5ugABFncGAggggAACIhdzLsrwJcPlQPp+qzkebv6w3NngLqsNbB3+o90fytNfP23r+MxtkED5YuUltdc8XiBh0J7oaiU/kC+jlo2SLSc361qSdSIsQIAVYVDKfV+AAIs7AgEEEEDAdgHn6wrOM382ndxoNUXLyi1lQpeJEiMxVjvYOPyB9AMyaOFAycrLsnF8ZjZQoFXV1jK201j+fmTg3qhu6cSlE9I/LUUycjJUL0V9BQIEWApQKflvAQIs7gYEEEAAAdsFUtfNlYX7F1rNUCqxlMy/7QkpX7S81Q42Dp+TnyODFw2Wvef22Dg+Mxss8HDz38mdDe40uENaUyWw/NAymb56uqry1FUoQIClEJfSIlO6TZEmFZpCgQACCCCAgJUCr2x5Rf72zdtWzn7l0MPbj5CONTpa72AjwPMbnpP3d71v4+jMbLhAfGy8TO8+Q24sd6PhndKeCoE5a2fLogOLVJSmpkIBAiyFuJR2Aqyp0qRCEygQQAABBBCwTuDD3R/Knzc8Y93cPxy4d53e0rdVP+sdbARYf3y9jF8xTgKBgI3jM7MHBKqXrC5zes2VYvHFPNAtLUZS4HLuZUlOS5bjF49Fsiy1FAsQYCkGtr08AZbtdwDzI4AAAnYKLD+8XGatmSnOA2NtPpwfDuf2SpWi8UVtZrBy9vSsdOmX1lfOZp61cn6G9o5Ajxt6yoDWA7zTMJ1GTGDb6W0ycskIyQvkRawmhdQKEGCp9bW+Ol8htP4WAAABBBCwTmDjiQ0ycdVEycnLsW72Kwd2vp4zrft0aVCugdUOtg7/2MrJsvroalvHZ26PCQxoM1B61O7hsa5pNxICr299Xd7Y9tdIlKKGBgECLA3INi9BgGXz7jM7AgggYJ/AzrM7Zcyy0eJ8NcH24/6mD8g9N91jO4OV83+050N5ev3TVs7O0N4UcL5C6HxatFrJat4cgK7DFnA+fTViyXDZfnp72DW4UJ8AAZY+aytXIsCyctsZGgEEELBSYH/6fhm1dKRcyL5g5fxXDt2kYhN5vOsUiY2Jtd7CNoAD6Qdk0MKBkpWXZdvozOtxgfpl68uMHjPF+fQoh10Cxy4ek/4LUuRSziW7BvfgtARYHtw0L7VMgOWl3aJXBBBAAIFwBZx/+XX+BPdM5plwS/jmuhIJJWRe0jypVLyyb2ZikIIJ5OTnyOBFg2XvuT0Fu4CzEDBM4M4Gd8rDzX9nWFe0o0Ng4f6FMvfLOTqWYg0XAgRYLvC49PoCBFjXN+IMBBBAAAFvC5y+fEqGLxkuJy6d8PYgEep+cNsh0rVW1whVo4yXBJ7f+Jy8v/N9L7VMrwh8TyBGYmR0pzHSpmobZCwUmLlmhiw9uNTCyb0zMgGWd/bKk50SYHly22gaAQQQQKCAAs4b1kYtGymHLxwu4BX+Pq177R4ysM1Afw/JdFcVWH9ivYxfPk4CgQBCCHhaoEyRMjIvab6UK1rO03PQfOEFLuZclOS0fnLy0snCX8wVWgQIsLQw27sIAZa9e8/kCCCAgN8FzmWek1HLR8qh9EN+H7VA81UpUSX4EGTnK4QcdgmkZ6VLv7S+4gS6HAj4QaB5peYyqctkiYmJ8cM4zFAIgS2nNsuopaMkP5BfiKs4VZcAAZYuaUvXIcCydOMZGwEEEPC5gPMD++hlo8R5cDuHBB/W/ni3KdKkQhM4LBSYvHKSrDm6xsLJGdnPAv9183/Jrxr92s8jMttPCLy8+WX52zdv42OgAAGWgZvip5YIsPy0m8yCAAIIIOAIOG8ZHLNstOw9vxeQbwXubXyv3NfkfjwsFPhw94fyzNdPWzg5I/tdIC42TqZ2myqNyt/k91GZ7wcCufm5MmzxUNl5dic2hgkQYBm2IX5rhwDLbzvKPAgggIDdAuezzsuYZWNkf/o+uyGumL5h+YYyrft0iYuJw8QyAecTiIMXDpKsvCzLJmdcWwRCX42eKyUSStoyMnN+K3Ak44j0X5AimbmZmBgkQIBl0Gb4sRUCLD/uKjMhgAACdgo4z/cZu3yMHEg/YCfAVaYuFl9M5ialSrUS1TCxTCA7L1sGLxok+84T5lq29daN26lGJxnWfrh1czOwyGf7PpMn1s2HwiABAiyDNsOPrTzedYo0rdjUj6MxEwIIIICARQJnMs8En3nF2wa/v+nJrVIkqU6SRXcCo34n8Oevn5F/7v4nIAhYIfDHW/vKz+r+zIpZGfL7AlO/mCIrD6+ExRABAixDNsKvbRBg+XVnmQsBBBCwR+DU5ZMyetloOZpx1J6hCzBphxodZUT7EQU4k1P8JrD22FqZvGKSBCTgt9GYB4GrChSJKyKzes6W2qVrI2SZgPPcy+S0fnL68mnLJjdzXAIsM/fFN10RYPlmKxkEAQQQsFLg8IVDMnb5WDl1+ZSV8//U0BWLVZTUpHlSKrEULpYJOF+ldX6Yc54Hx4GATQI3lL4hGGIlxiXaNDazisiGExuCjxAIBAjto31DEGBFewd8vj4Bls83mPEQQAABHws4bxkct3wsP6j/YI9jYmJkYudJ0qJyCx/vPqNdTcD5xNWE5ePlq+NfAYSAlQI/r3e7PHrLo1bObvvQL2x8Qd7b+a7tDFGfnwAr6lvg7wYIsPy9v0yHAAII+FVg2+ltMnnVJMnIzvDriGHPdXfDu+XBZg+FfT0XelfgvZ3vyQsbn/fuAHSOQAQERnQYKR2qd4hAJUp4SSA3Pzf44oo95/Z4qW3f9UqA5bstNWsgAiyz9oNuEEAAAQSuL/DlsS9l+uppkpWXdf2TLTujbtl6MqvHLImPjbdscsbdc263DFk0RHLyc8BAwGoB56vTqb1SpWLxSlY72Dj8wfSDMnDhAP79IIqbT4AVRXwblibAsmGXmREBBBDwj8DCAwvlT189Ic6ftHJ8X8B57sucXnOlVqla0Fgm4IS5/Rf0F+eZcBwIICDSpGITcX7OiY2JhcMygY/2fCRPr3/KsqnNGZcAy5y98GUnBFi+3FaGQgABBHwp8O6Od+SlzS/xZrWf2N0+LfvI7fXv8OXeM9S1BZxQ99O9n8KEAAJXCNzb+DdyX5P7MLFQ4LGVk2X10dUWTh79kQmwor8Hvu6AAMvX28twCCCAgC8E8gP58vzG5+Sfu//pi3lUDNGmWhsZ03GsitLUNFxg1ZFVMmXV44Z3SXsI6BdwPn01qctkaVapmf7FWTGqAulZ6dI3ra+cyzwb1T5sXJwAy8Zd1zgzAZZGbJZCAAEEECi0QHZetsxaO1O+OPJFoa+15YKyRcvJ/KT5UqZIGVtGZs5vBU5dPiUpaclyIfsCJgggcBWBisUqytykVCmdWBofywTW/+/bWMevGC+BQMCyyaM7LgFWdP19vzoBlu+3mAERQAABzwqczzovj62aLN+c+cazM6huPEZiZGynsdKqamvVS1HfMAHnk4ljlo2RTSc3GtYZ7SBglkCbam1lTMcxZjVFN1oE/rzhz/LPXf/QshaLhAQIsLgTlAoQYCnlpTgCCCCAQJgChy4clMdWPSZHMo6EWcGOy+6of4f8vmUfO4Zlyu8JvL39LXllyyuoIIBAAQT+p8Uj8ssbf1mAMznFTwLOp7gHLRwo+9P3+2kso2chwDJ6e7zfHAGW9/eQCRBAAAG/CXx94muZvnqaXMy56LfRIjpP7dK1ZXbPOeK8fZDDLoEdZ3bI8CXDeBunXdvOtC4EEmITZEbPmVKvTD0XVbjUiwL7zu+TQYsGSk5ejhfb91zPBFie2zJvNUyA5a39olsEEEDA7wIf7/lInt3wrOQF8vw+qqv5nB/GZvacKXX5YcyVoxcvvpx7Ofjcq2MXj3mxfXpGIGoCNUvVDIb+ReOLRq0HFo6OwD92fRD8dwsO9QIEWOqNrV6BAMvq7Wd4BBBAwBgBJ7By/uXSCbA4ri/wcPOH5c4Gd13/RM7wncCcL+fIov0LfTcXAyGgQyCpTpIkt0rRsRRrGCQQkIBMWD5Bvjq+zqCu/NkKAZY/99WYqQiwjNkKGkEAAQSsFXDeoDZt9VTZdHKTtQaFGbxl5ZYyoctEcR7gzmGXwLKDy2TGmul2Dc20CERYYFDbwdKtVrcIV6Wc6QJnM89Kclo/cV4Qw6FOgABLnS2VRYQAi9sAAQQQQCCaAnvP75WpX0zh61AF3IRSiaVk/m1PSPmi5Qt4Baf5ReD4xeOSsiBZLuVc8stIzIFAVASKxxeXuUmpUrVE1aisz6LRE1h7dK1MWjkxeg1YsDIBlgWbHM0RCbCiqc/aCCCAgN0Cyw4tlfnr5ktWXpbdEIWYfnj7EdKxRsdCXMGpfhBwvmI7Yslw2X56ux/GYQYEoi7QoHwDmdZtusTHxke9FxrQK/DU+qd4XIFCcgIshbiUdj6B9bg0rXgzFAgggAACCGgTcH4Y/8umF+WDXR9oW9MPC/Wu01v6turnh1GYoZACr299Td7Y9kYhr+J0BBC4lsDdDe+WB5s9BJJlAs4fmg1Y0F8OXThk2eR6xiXA0uNs7Sp8AsvarWdwBBBAICoCZzLPBJ/hs/XU1qis79VFq5esLnN7pfL2LK9uoIu+nf+vjFw6QvID+S6qcCkCCPxQICYmRsZ1Gie3VmkFjmUCe87tliGLhkhOfo5lk6sflwBLvbHVKxBKFbesAAAgAElEQVRgWb39DI8AAghoFdh0cqPMXDNTzmWd07qu1xdzvuIyrft0aVCugddHof9CClzMuRh86PDJSycLeSWnI4BAQQTKFi0n85LmSdkiZQtyOuf4SODdHe/Ii5te9NFEZoxCgGXGPvi2C75C6NutZTAEEEDAGIFAICB/3/F3cb4G5Xx9kKNwAvc3fUDuuemewl3E2b4QcN7OueLQCl/MwhAImCpwS5VbZHznCbzZ1dQNUtRXQAIydtkY2XBig6IV7CxLgGXnvmubmk9gaaNmIQQQQMBKAefTVnPWzpGvT6y3cn63Qzep2CT4xuDYmFi3pbjeYwKf7ftMnlg332Nd0y4C3hR4sNmDcnfD//Rm83QdtsCpy6ckJS1ZLmRfCLsGF35fgACLO0KpAJ/AUspLcQQQQMBqgY0nN8qctbPFee4VR+EFSiSUCH61pVLxyoW/mCs8LXAw/YAMXDiQN3R6ehdp3ksCzle1p3abKg3LN/JS2/QaAYFVR1bJlFWPR6ASJRwBAizuA6UCBFhKeSmOAAIIWCngfE3QeWPa3755mwdPu7gDBrcdIl1rdXVRgUu9KJCdly1DFg2Wvef3erF9ekbAswJVS1QNviyjeEJxz85A4+EJzF83Xz7f91l4F3PV9wQIsLghlAoQYCnlpTgCCCBgncDxi8dl5toZsuPMDutmj+TA3Wv3kIFtBkayJLU8IvDM10/Lh7s/9Ei3tImAvwS61OoiQ9oO9ddQTHNdgcy8TOmfliJHMo5c91xOuLYAARZ3iFIBAiylvBRHAAEErBJYsD9Nnt3wrFzOvWzV3JEetkqJKpLaax6fAog0rAfqrT66Wh5f+Zg4DxfmQACB6Agkt0qWpDq3RWdxVo2awM4zO2TYkmGSm58btR78sDABlh920eAZCLAM3hxaQwABBDwikJ6dLk+tf1JWHl7pkY7NbdN5WPtjXR+XphWbmtsknSkRCD1MOEUuZKcrqU9RBBAomEDRuKIyp9ccqVGqZsEu4CzfCLy9/S15ZcsrvpknGoMQYEVD3aI1CbAs2mxGRQABBBQIrDm6Jhhe8aD2yODe2/heua/J/ZEpRhXPCOQH8mX0slGy+eRmz/RMowj4WaBOmboyq+csSYhN8POYzPYDAefvxaOWjZIt/L047HuDACtsOi4siAABVkGUOAcBBBBA4IcCl3IuyfMbn5e0/Z+DEyGBhuUbyrTu0yUuJi5CFSnjFYE3t70hr219zSvt0icCVgj84sZfyiMtHrFiVob8t8CJSyeCz8PKyMmAJQwBAqww0Lik4ALO1xRurnhzwS/gTAQQQAAB6wXWH18vf1r/hJy8dNJ6i0gBFIsvJnOTUqVaiWqRKkkdjwhsO71VRi4ZKc7bOzkQQMAsgVEdR0u7au3MaopulAssP7RMpq+ernwdPy5AgOXHXTVoJj6BZdBm0AoCCCBguMDFnIvyl00vyuf7Puch0xHeq+RWKZJUJynCVSlnukBGdoakLEgmDDZ9o+jPWoFSiaVkXtJ8qVCsgrUGtg4+58s5smj/QlvHD3tuAqyw6biwIAIEWAVR4hwEEEAAgdVHvpCnv36aZ10puBU61OgoI9qPUFCZkqYLTPtiqqw4vML0NukPAasFnG+rTO76mDgv2eCwR8B5o3JyWj85fvG4PUNHYFICrAggUuKnBfgKIXcHAggggMC1BM5mnZXnNjwnzsfpOSIvULFYRUlNmifOn/Jz2CXw8Z6Pgy9A4EAAAfMF/l+T++Q3jX9jfqN0GFGBbae3ycglI/iKdyFUCbAKgcWphRcgwCq8GVcggAACNggEAgH5bN+n8vKWl8X5mhNH5AViYmJkYudJ0qJyi8gXp6LRAvvT98vghYMkKy/L6D5pDgEEQgLOp6+cn5uaVmwKiWUCr299Xd7Y9lfLpg5/XAKs8O24sgACBFgFQOIUBBBAwDKBfef3BT8Zsv3Mdssm1zvu3Q3vlgebPaR3UVaLuoATWg1cMEAOXjgY9V5oAAEECi5QqXglmdsrlU/MFpzMF2c6L9gYsWS4bD/NvxMVZEMJsAqixDlhCxBghU3HhQgggIDvBJznPby1/U35YNcHkpuf67v5TBqobtl6MqvHLImPjTepLXrRIDBv3TxJ2/e5hpVYAgEEIi3QvnoHGdlhZKTLUs9wgWMXj0n/BSlyKeeS4Z1Gvz0CrOjvga87IMDy9fYyHAIIIFBggeWHlsuLm16QU5dPFfgaTgxPIDEuUeb0miu1StUKrwBXeVZg6cElMnPNTM/2T+MIICDS55ZH5fZ6t0NhmYDzRkLnzYQc1xYgwOIOUSpAgKWUl+IIIICA8QLO1wWf+fpp2Xp6q/G9+qXBPi37yO317/DLOMxRQIEjGUdk4MIB/Al+Ab04DQFTBZw/hJjZY6bUKVPX1BbpS5HAzDUzZOnBpYqq+6MsAZY/9tHYKQiwjN0aGkMAAQSUClzIviCvbX1VPt37qeQH8pWuRfF/C7Sp1kbGdBwLiWUCzldyhy4eIrvO7rJscsZFwJ8CtUvXllk9Z0uRuCL+HJCpripwMeeiJKf1k5OXTiL0EwIEWNwaSgUmd3lMmlVqpnQNiiOAAAIImCPg/CD94e5/ypvb3xTnX8Q49AmUK1pO5iXNlzJFyuhblJWMEHhuw3Pywa73jeiFJhBAIDICvev2lr639otMMap4RmDLqc0yauko/vCPAMsz96yvGiXA8tV2MgwCCCBwTYGVh1fKK1teFuerTBx6BWIkRsZ2GiutqrbWuzCrRV1g7dE1MnnlZAlIIOq90AACCERWYGi7odK5ZpfIFqWa8QIvb35Z/vbN28b3GY0G+QRWNNQtWpMAy6LNZlQEELBWwHm+1cubX5Jtp7dZaxDtwe+of4f8vmWfaLfB+poFnJci9E9LkfTsdM0rsxwCCOgQKJFQQlKTUqVy8So6lmMNQwTy8vOCXwvfeXanIR2Z0wYBljl74ctOCLB8ua0MhQACCAQFDmcclle3vCorD69AJIoCzrNSZvecI86DfznsEXCeLTdq6UjZcmqLPUMzKQIWCjQs31CmdZ8ucTFxFk5v78jOp9n7L0iRzNxMexGuMjkBFreDUoHJXSZLs0rNla5BcQQQQAABvQKnM0/LX7e+Lgv2L+AZDXrpf7RaQmyCzOw5U+qWqRflTlhet8BrW1+TN7e9oXtZ1kMAgSgI/KrRr+S/bv7vKKzMktEU+GzfZ/LEuvnRbMG4tQmwjNsSfzVEgOWv/WQaBBCwW+B81nl5a/ubwTcL5uTn2I1hyPQPN39Y7mxwlyHd0IYugU0nN8qYZWMIkHWBsw4CURaIjYmVCZ0nSovKLaLcCcvrFpj6xRRxnjHKERIgwOJOUCowqctkac4nsJQaUxwBBBBQLeAEV+/ueEc+2vORZOVlqV6O+gUUaFm5pUzoMlGcB7hz2CPg/P/Rec362cyz9gzNpAggIOWLlpfUpHm8adaye+FC9oXg3/NPXz5t2eRXH5cAi9tAqQABllJeiiOAAAJKBZwflN/b+Z58vOcjuZx7WelaFC+cQKnEUjL/tieCP9Bw2CMQCARk/PJxsv7EenuGZlIEEPiXQKuqrWRsp3H8wYVl98TGkxtlLJ+6De46AZZlN7/ucQmwdIuzHgIIIOBewPlkxzs7/h78qiCfuHLvqaLC8PYjpGONjipKU9NgAeeZV86zrzgQQMBegd82f1ju4qvj1t0AL258Qd7d+a51c/9wYAIs628BtQAEWGp9qY4AAghEUuDkpZPy9x1/k7T9aZKTxzOuImkbyVq96/SWvq36RbIktTwgsPnkZhm9bBTPvfLAXtEiAioF4mPjZXr3GXJjuRtVLkNtwwRy83Nl8KJBsufcHsM609sOAZZeb+tWI8CybssZGAEEPCiwP31/8BNXyw4uk7xAngcnsKfl6iWry9xeqVI0vqg9QzOpOF/nTUlLljOZZ9BAAAEExPlnwZxec6RYfHE0LBI4eOGgDFwwwOpPxxNgWXTDR2PUSV0mSfNKvC0jGvasiQACCFxP4OsT6+Ufu/4h646tk4AErnc6vx9lAedP3ad1ny4NyjWIcicsr1Mg+NyrFeNk/XGee6XTnbUQMF2gW+3uMqjNINPbpL8ICzgv1Hl6/VMRruqdcgRY3tkrT3ZKgOXJbaNpBBDwsUB2fnbwk1b/2P2B7D2318eT+m+0+5s+IPfcdI//BmOiawq8tf1NeXXLqyghgAACPxIY0GaA9KjdExnLBB5bOVlWH11t2dShcQmwrNx2fUNP7DxJWlTmE1j6xFkJAQQQuLqA82D2T/d+Ip/s/UScX3N4S6BJxSbyeNcpEhsT663G6daVwOZTm2XM0tF8tdeVIhcj4F+BYvHFZE6vucGvFHLYI5CelS590/rKOQv/fY4Ay577PCqTEmBFhZ1FEUAAgX8JbDu9TT7e85GsOLxCnAeAcnhPoERCCZmXNE8qFa/svebpOGyB4HOvFiTLmcs89ypsRC5EwAKB+mXry4weM8X5mjmHPQLrj38l41eMF+dr5jYdBFg27XYUZiXAigI6SyKAgPUCl3Mvy8L9C+XjvR/JwfSD1nt4HWBw2yHStVZXr49B/4UQcJ5JN2H5ePnqf39A4UAAAQSuJ/AfN94pv2vxu+udxu/7TOC5Dc/KB7s+8NlU1x6HAMuq7dY/LAGWfnNWRAABewW2n9kuafs+l6UHl1r9hho/3QHda/eQgW0G+mkkZimAwNvb35JXtrxSgDM5BQEEEBCJkRgZ3WmMtKnaBg6LBLLzsmXQooGy//x+a6YmwLJmq6MzKAFWdNxZFQEE7BE4ffm0LD64KPiJq0MXDtkzuAWTVilRRVJ7zZPiCbwm3YLt/teIW05tkdFLR/HcK5s2nVkRiIBAmSJlJDVpnpQvWj4C1SjhFYH95/fJwEUDJScvxystu+qTAMsVHxdfT2Bi54nSonLL653G7yOAAAIIFEIgKy9LVh1ZJYsPLJINJzZIfiC/EFdzqhcEnIe1P9b1cWlasakX2qXHCAkEn3uVlixnMnnuVYRIKYOAVQLNKzWXSV0mS0xMjFVz2z7sP3Z9IM9ueNYKBgIsK7Y5ekMSYEXPnpURQMBfAjn5OfL1ia9l+aFlsvboWrmYc9FfAzLN9wTubXyv3NfkflQsEnCC6HHLx8mGE19bNDWjIoBApAXub/qA3HPTPZEuSz2DBZznJk5cPkHWHV9ncJeRaY0AKzKOVPkJAQIsbg0EEEAgfIHvQqsVh5bLmqNrCK3Cp/TUlQ3LN5Rp3adLXEycp/qmWXcCr219Td7c9oa7IlyNAALWCzj/7Hi82xRpXKGx9RY2AZzNPCvJaf3E+SSvnw8CLD/vrgGzTeg8UVryFUIDdoIWEEDAKwLOJ6ucN499ceQL+er4OrmUc8krrdNnBASKxReTuUmpUq1EtQhUo4RXBJz/z09cMYGvA3tlw+gTAcMFKpeoLHN7pUrJhJKGd0p7kRRYe2ytTF4xSZxPZPn1IMDy684aMhcBliEbQRsIIGC0wPFLx4NfC/zy6FrZdGqT5ObnGt0vzakTSG6VIkl1ktQtQGXjBE5ePikDFvSX9Kx043qjIQQQ8K5AxxqdZHj74d4dgM7DEnhq/VPy8Z6PwrrWCxcRYHlhlzzcIwGWhzeP1hFAQJlAdn62bDu9VdYe/VLWH/+Ktwcqk/ZW4Q41OsqI9iO81TTduhJwwuqRS0fK9tPbXNXhYgQQQOBqAn+8ta/8rO7PwLFIIDsvO/iHIgcvHPTl1ARYvtxWc4YiwDJnL+gEAQSiJ+A8nHn3ud3BhzNvPLlJtp7aIs7zrTgQ+E6gYrGKwdefl0osBYpFAs9vfE7e3/m+RRMzKgII6BRIjEuU2T3nSO3StXUuy1pRFthzbrcMWTTEl/+uSYAV5ZvL78sTYPl9h5kPAQSuJuB8qmLv+b2y+eQm2XJ6q2w7tVUycjLAQuCqAs7rzid2niQtKrdAyCKBVUdWydRVU3z9rBKLtpNRETBW4IbSN8isnrPFCbM47BF4d8c78uKmF303MAGW77bUrIEmdJ4gLSvfYlZTdIMAAghEWCAj+4LsPr8n+DWgLae2yjent0tmXmaEV6GcXwXubni3PNjsIb+Ox1xXETiacVQGLhzAm0W5OxBAQIvAz+vdLo/e8qiWtVjEDAHnQe5jl42RDSc2mNFQhLogwIoQJGWuLjC+0wS5pQoBFvcHAgj4RyArLyv4dcCdZ3fK3nN7Zfvp7XL04hH/DMgkWgXqlq0ns3rMkvjYeK3rslj0BJyvDw9dNCT49xEOBBBAQJeA80B358HuHPYInL58WlLSkiU92z8vCSHAsuf+jcqkBFhRYWdRBBCIkMDZzLOyP32f7D63R/an75e95/YEH7juPNOKAwG3As7XOeb0miu1StVyW4rrPSTwxFdPyGd7P/VQx7SKAAJ+ECiZUDL4rMVKxSv5YRxmKKCA83X1KaseL+DZ5p9GgGX+Hnm6QwIsT28fzSNghYDzEeszl88EgynnjS0H0veHfp1+0Fd/YmXFZnpsyJ/X+7n0rtvbY13TrhuBrae2ybMb/uymBNcigAACYQs0rtBEHmn5P2Ffz4XeFHhh4wuy6eQmbzb/g64JsHyxjeYOQYBl7t7QGQI2CeQF8uTkpZNy/OJxOXbxmBzJOCLHLx6To8FfHxbnlcMcCCCAAAIIIIAAAgggYK4AAZa5e+OLzgiwfLGNDIGA0QKXcy/L+azzcubyaTmdeVqc7/ufcn59+dS/fn028wxf+zN6F2kOAQQQQAABBBBAAIFrCxBgcYcoFRjXabzcWuVWpWtQHAEEvC+Qm58rzsPRnTAqMzdTMnIy5GJ2hmTkXAy+petiToZkZGfIhewLwbDqXNZ5OZ91LvhrPj3l/f1nAgQQQAABBBBAAAEEridAgHU9IX7flQABlis+5Rc7X6lKzz6vdJ2AiOTk5ShdQ3Xx/ECe5ObnXXeZvPxcySvAw71zAzmSH3Bkrn1cL5hx3mQlP6iTk5/7o08aOV+fc2a48nD6dPq98nB6ynVqXnEE9y//x1+vyw7u6b9ncB5qfqWRs2Zefp7kBXLFCadCAVX2v37t1HSCqsy8zOB/O7/PgQACCCCAAAIIIIAAAgj8lAABFveGUgECLKW8ros/uf5P8ilvQnLtSAEEEEAAAQQQQAABBBBAAAG1AgRYan2tr06AZfYtQIBl9v7QHQIIIIAAAggggAACCCCAQEiAAIs7QakAAZZSXtfFCbBcE1IAAQQQQAABBBBAAAEEEEBAgwABlgZkm5cgwDJ79wmwzN4fukMAAQQQQAABBBBAAAEEEAgJEGBxJygVGNdpnNxapZXSNSgevgABVvh2XIkAAggggAACCCCAAAIIIKBPgABLn7WVKxFgmb3tBFhm7w/dIYAAAggggAACCCCAAAIIhAQIsLgTlAqM7TROWvEJLKXGbooTYLnR41oEEEAAAQQQQAABBBBAAAFdAgRYuqQtXYcAy+yNJ8Aye3/oDgEEEEAAAQQQQAABBBBAICRAgMWdoFRgbMdx0qoqz8BSiuyiOAGWCzwuRQABBBBAAAEEEEAAAQQQ0CZAgKWN2s6FCLDM3ncCLLP3h+4QQAABBBBAAAEEEEAAAQRCAgRY3AlKBQiwlPK6Lk6A5ZqQAggggAACCCCAAAIIIIAAAhoECLA0INu8xNiOY6VV1dY2Exg9OwGW0dtDcwgggAACCCCAAAIIIIAAAt8KEGBxKygVIMBSyuu6OAGWa0IKIIAAAggggAACCCCAAAIIaBAgwNKAbPMSBFhm7z4Bltn7Q3cIIIAAAggggAACCCCAAAIhAQIs7gSlAgRYSnldFyfAck1IAQQQQAABBBBAAAEEEEAAAQ0CBFgakG1eYkzHsdKaZ2AZewsQYBm7NTSGAAIIIIAAAggggAACCCBwhQABFreDUgECLKW8rosTYLkmpAACCCCAAAIIIIAAAggggIAGAQIsDcg2L0GAZfbuE2CZvT90hwACCCCAAAIIIIAAAgggEBIgwOJOUCpAgKWU13VxAizXhBRAAAEEEEAAAQQQQAABBBDQIECApQHZ5iUIsMzefQIss/eH7hBAAAEEEEAAAQQQQAABBEICBFjcCUoFxnQcI62rtlG6BsXDFyDACt+OKxFAAAEEEEAAAQQQQAABBPQJEGDps7ZyJQIss7edAMvs/aE7BBBAAAEEEEAAAQQQQACBkAABFneCUgECLKW8rosTYLkmpAACCCCAAAIIIIAAAggggIAGAQIsDcg2LzG6wxhpU42vEJp6DxBgmboz9IUAAggggAACCCCAAAIIIHClAAEW94NSAQIspbyuixNguSakAAIIIIAAAggggAACCCCAgAYBAiwNyDYvQYBl9u4TYJm9P3SHAAIIIIAAAggggAACCCAQEiDA4k5QKkCApZTXdXECLNeEFEAAAQQQQAABBBBAAAEEENAgQIClAdnmJUZ3GC1tqrW1mcDo2QmwjN4emkMAAQQQQAABBBBAAAEEEPhWgACLW0GpAAGWUl7XxQmwXBNSAAEEEEAAAQQQQAABBBBAQIMAAZYGZJuXIMAye/cJsMzeH7pDAAEEEEAAAQQQQAABBBAICRBgcScoFRjVYbS05SuESo3dFCfAcqPHtQgggAACCCCAAAIIIIAAAroECLB0SVu6DgGW2RtPgGX2/tAdAggggAACCCCAAAIIIIBASIAAiztBqQABllJe18UJsFwTUgABBBBAAAEEEEAAAQQQQECDAAGWBmSblyDAMnv3CbDM3h+6QwABBBBAAAEEEEAAAQQQCAkQYHEnKBUY1WGUtK3WTukaFA9fgAArfDuuRAABBBBAAAEEEEAAAQQQ0CdAgKXP2sqVCLDM3nYCLLP3h+4QQAABBBBAAAEEEEAAAQRCAgRY3AlKBQiwlPK6Lk6A5ZqQAggggAACCCCAAAIIIIAAAhoECLA0INu8xMj2o6Rddb5CaOo9QIBl6s7QFwIIIIAAAggggAACCCCAwJUCBFjcD0oFCLCU8rouToDlmpACCCCAAAIIIIAAAggggAACGgQIsDQg27zEyA6jpB0PcTf2FiDAMnZraAwBBBBAAAEEEEAAAQQQQOAKAQIsbgelAgRYSnldFyfAck1IAQQQQAABBBBAAAEEEEAAAQ0CBFgakG1eYkSHkdK+WnubCYyenQDL6O2hOQQQQAABBBBAAAEEEEAAgW8FCLC4FZQKEGAp5XVdnADLNSEFEEAAAQQQQAABBBBAAAEENAgQYGlAtnkJAiyzd58Ay+z9oTsEEEAAAQQQQAABBBBAAIGQAAEWd4JSgRHtR0r76nyFUCmyi+IEWC7wuBQBBBBAAAEEEEAAAQQQQECbAAGWNmo7FyLAMnvfCbDM3h+6QwABBBBAAAEEEEAAAQQQCAkQYHEnKBUY0X6EtK/eQekaFA9fgAArfDuuRAABBBBAAAEEEEAAAQQQ0CdAgKXP2sqVCLDM3nYCLLP3h+4QQAABBBBAAAEEEEAAAQRCAgRY3AlKBYa3HyEd+ASWUmM3xQmw3OhxLQIIIIAAAggggAACCCCAgC4BAixd0pauQ4Bl9sYTYJm9P3SHAAIIIIAAAggggAACCCAQEiDA4k5QKkCApZTXdXECLNeEFEAAAQQQQAABBBBAAAEEENAgQIClAdnmJQiwzN59Aiyz94fuEEAAAQQQQAABBBBAAAEEQgIEWNwJSgUIsJTyui5OgOWakAIIIIAAAggggAACCCCAAAIaBAiwNCDbvMTw9sOlQ/WONhMYPTsBltHbQ3MIIIAAAggggAACCCCAAALfChBgcSsoFSDAUsrrujgBlmtCCiCAAAIIIIAAAggggAACCGgQIMDSgGzzEsPaD5eOfALL2FuAAMvYraExBBBAAAEEEEAAAQQQQACBKwQIsLgdlAoQYCnldV2cAMs1IQUQQAABBBBAAAEEEEAAAQQ0CBBgaUC2eQkCLLN3nwDL7P2hOwQQQAABBBBAAAEEEEAAgZAAARZ3glKBYe2GS8caPMRdKbKL4gRYLvC4FAEEEEAAAQQQQAABBBBAQJsAAZY2ajsXIsAye98JsMzeH7pDAAEEEEAAAQQQQAABBBAICRBgcScoFRjWbph0rNFJ6RoUD1+AACt8O65EAAEEEEAAAQQQQAABBBDQJ0CApc/aypUIsMzedgIss/eH7hBAAAEEEEAAAQQQQAABBEICBFjcCUoFhrYbJp34BJZSYzfFCbDc6HEtAggggAACCCCAAAIIIICALgECLF3Slq5DgGX2xhNgmb0/dIcAAggggAACCCCAAAIIIBASIMDiTlAqQICllNd1cQIs14QUQAABBBBAAAEEEEAAAQQQ0CBAgKUB2eYlCLDM3n0CLLP3h+4QQAABBBBAAAEEEEAAAQRCAgRY3AlKBQiwlPK6Lk6A5ZqQAggggAACCCCAAAIIIIAAAhoECLA0INu8xNB2Q6VTjc42Exg9OwGW0dtDcwgggAACCCCAAAIIIIAAAt8KEGBxKygVIMBSyuu6OAGWa0IKIIAAAggggAACCCCAAAIIaBAgwNKAbPMSQ9oNlc58AsvYW4AAy9itoTEEEEAAAQQQQAABBBBAAIErBAiwuB2UChBgKeV1XZwAyzUhBRBAAAEEEEAAAQQQQAABBDQIEGBpQLZ5CQIss3efAMvs/aE7BBBAAAEEEEAAAQQQQACBkAABFneCUoEhbYdI55pdlK5B8fAFCLDCt+NKBBBAAAEEEEAAAQQQQAABfQIEWPqsrVyJAMvsbSfAMnt/6A4BBBBAAAEEEEAAAQQQQCAkQIDFnaBUgABLKa/r4gRYrgkpgAACCCCAAAIIIIAAAgggoEGAAEsDss1LDG47RLrwFUJjbwECLGO3hsYQQAABBBBAAAEEEEAAAQSuECDA4nZQKkCApZTXdXECLNeEFEAAAQQQQAABBBBAAAEEENAgQIClAdnmJQiwzN59Aiyz94fuEMAbKxIAACAASURBVEAAAQQQQAABBBBAAAEEQgIEWNwJSgUIsJTyui5OgOWakAIIIIAAAggggAACCCCAAAIaBAiwNCDbvAQBltm7T4Bl9v7QHQIIIIAAAggggAACCCCAQEiAAIs7QakAAZZSXtfFCbBcE1IAAQQQQAABBBBAAAEEEEBAgwABlgZkm5cgwDJ79wmwzN4fukMAAQQQQAABBBBAAAEEEAgJEGBxJygVIMBSyuu6OAGWa0IKIIAAAggggAACCCCAAAIIaBAgwNKAbPMSg9sOli41u9pMYPTsBFhGbw/NIYAAAggggAACCCCAAAIIfCtAgMWtoFSAAEspr+viBFiuCSmAAAIIIIAAAggggAACCCCgQYAASwOyzUsQYJm9+wRYZu8P3SGAAAIIIIAAAggggAACCIQECLC4E5QKEGAp5XVdnADLNSEFEEAAAQQQQAABBBBAAAEENAgQYGlAtnmJQW0HS1eegWXsLUCAZezW0BgCCCCAAAIIIIAAAggggMAVAgRY3A5KBQiwlPK6Lk6A5ZqQAggggAACCCCAAAIIIIAAAhoECLA0INu8BAGW2btPgGX2/tAdAggggAACCCCAAAIIIIBASIAAiztBqQABllJe18UJsFwTUgABBBBAAAEEEEAAAQQQQECDAAGWBmSblyDAMnv3CbDM3h+6QwABBBBAAAEEEEAAAQQQCAkQYHEnKBUgwFLK67o4AZZrQgoggAACCCCAAAIIIIAAAghoECDA0oBs8xIEWGbvPgGW2ftDdwgggAACCCCAAAIIIIAAAiEBAizuBKUCg9oMkq61uildg+LhCxBghW/HlQgggAACCCCAAAIIIIAAAvoECLD0WVu5EgGW2dtOgGX2/tAdAggggAACCCCAAAIIIIBASIAAiztBqQABllJe18UJsFwTUgABBBBAAAEEEEAAAQQQQECDAAGWBmSblyDAMnv3CbDM3h+6QwABBBBAAAEEEEAAAQQQCAkQYHEnKBUY2GaQdOMZWEqN3RQnwHKjx7UIIIAAAggggAACCCCAAAK6BAiwdElbug4BltkbT4Bl9v7QHQIIIIAAAggggAACCCCAQEiAAIs7QakAAZZSXtfFCbBcE1IAAQQQQAABBBBAAAEEEEBAgwABlgZkm5cgwDJ79wmwzN4fukMAAQQQQAABBBBAAAEEEAgJEGBxJygVIMBSyuu6OAGWa0IKIIAAAggggAACCCCAAAIIaBAgwNKAbPMSBFhm7z4Bltn7Q3cIIIAAAggggAACCCCAAAIhAQIs7gSlAgRYSnldFyfAck1IAQQQQAABBBBAAAEEEEAAAQ0CBFgakG1eYmCbgdKtVnebCYyenQDL6O2hOQQQQAABBBBAAAEEEEAAgW8FCLC4FZQKEGAp5XVdnADLNSEFEEAAAQQQQAABBBBAAAEENAgQYGlAtnkJAiyzd58Ay+z9oTsEEEAAAQQQQAABBBBAAIGQAAEWd4JSAQIspbyuixNguSakAAIIIIAAAggggAACCCCAgAYBAiwNyDYvMaDNQOnOM7CMvQUIsIzdGhpDAAEEEEAAAQQQQAABBBC4QoAAi9tBqQABllJe18UJsFwTUgABBBBAAAEEEEAAAQQQQECDAAGWBmSblyDAMnv3CbDM3h+6QwABBBBAAAEEEEAAAQQQCAkQYHEnKBUgwFLK67o4AZZrQgoggAACCCCAAAIIIIAAAghoECDA0oBs8xIEWGbvPgGW2ftDdwgggAACCCCAAAIIIIAAAiEBAizuBKUCBFhKeV0XJ8ByTUgBBBBAAAEEEEAAAQQQQAABDQIEWBqQbV6CAMvs3SfAMnt/6A4BBBBAAAEEEEAAAQQQQCAkQIDFnaBUgABLKa/r4gRYrgkpgAACCCCAAAIIIIAAAgggoEGAAEsDss1LDGg9QLrX7mEzgdGzE2AZvT00hwACCCCAAAIIIIAAAggg8K0AARa3glIBAiylvK6LE2C5JqQAAggggAACCCCAAAIIIICABgECLA3INi9BgGX27hNgmb0/dIcAAggggAACCCCAAAIIIBASIMDiTlAq0L/1AOnBVwiVGrspToDlRo9rEUAAAQQQQAABBBBAAAEEdAkQYOmStnQdAiyzN54Ay+z9oTsEEEAAAQQQQAABBBBAAIGQAAEWd4JSAQIspbyuixNguSakAAIIIIAAAggggAACCCCAgAYBAiwNyDYvQYBl9u4TYJm9P3SHAAIIIIAAAggggAACCCAQEiDA4k5QKtC/dX/pUbun0jUoHr4AAVb4dlyJAAIIIIAAAggggAACCCCgT4AAS5+1lSsRYJm97QRYZu8P3SGAAAIIIIAAAggggAACCIQECLC4E5QKEGAp5XVdnADLNSEFEEAAAQQQQAABBBBAAAEENAgQYGlAtnkJAiyzd58Ay+z9oTsEEEAAAQQQQAABBBBAAIGQAAEWd4JSgZTW/aUnz8BSauymOAGWGz2uRQABBBBAAAEEEEAAAQQQ0CVAgKVL2tJ1CLDM3ngCLLP3h+4QQAABBBBAAAEEEEAAAQRCAgRY3AlKBQiwlPK6Lk6A5ZqQAggggAACCCCAAAIIIIAAAhoECLA0INu8BAGW2btPgGX2/tAdAggggAACCCCAAAIIIIBASIAAiztBqQABllJe18UJsFwTUgABBBBAAAEEEEAAAQQQQECDAAGWBmSblyDAMnv3CbDM3h+6QwABBBBAAAEEEEAAAQQQCAkQYHEnKBUgwFLK67o4AZZrQgoggAACCCCAAAIIIIAAAghoECDA0oBs8xIprVOkZ+1eNhMYPTsBltHbQ3MIIIAAAggggAACCCCAAALfChBgcSsoFSDAUsrrujgBlmtCCiCAAAIIIIAAAggggAACCGgQIMDSgGzzEgRYZu8+AZbZ+0N3CCCAAAIIIIAAAggggAACIQECLO4EpQIEWEp5XRcnwHJNSAEEEEAAAQQQQAABBBBAAAENAgRYGpBtXiKlVYr0vIFnYJl6DxBgmboz9IUAAggggAACCCCAAAIIIHClAAEW94NSAQIspbyuixNguSakAAIIIIAAAggggAACCCCAgAYBAiwNyDYvQYBl9u4TYJm9P3SHAAIIIIAAAggggAACCCAQEiDA4k5QKkCApZTXdXECLNeEFEAAAQQQQAABBBBAAAEEENAgQIClAdnmJZJbpUgvnoFl7C1AgGXs1tAYAggggAACCCCAAAIIIIDAFQIEWNwOSgUIsJTyui5OgOWakAIIIIAAAggggAACCCCAAAIaBAiwNCDbvAQBltm7T4Bl9v7QHQIIIIAAAggggAACCCCAQEiAAIs7QakAAZZSXtfFCbBcE1IAAQQQQAABBBBAAAEEEEBAgwABlgZkm5cgwDJ79wmwzN4fukMAAQQQQAABBBBAAAEEEAgJEGBxJygVIMBSyuu6OAGWa0IKIIAAAggggAACCCCAAAIIaBAgwNKAbPMSBFhm7z4Bltn7Q3cIIIAAAggggAACCCCAAAIhAQIs7gSlAsmtkqXXDUlK16B4+AIEWOHbcSUCCCCAAAIIIIAAAggggIA+AQIsfdZWrkSAZfa2E2CZvT90hwACCCCAAAIIIIAAAgggEBIgwOJOUCpAgKWU13VxAizXhBRAAAEEEEAAAQQQQAABBBDQIECApQHZ5iUIsMzefQIss/eH7hBAAAEEEEAAAQQQQAABBEICBFjcCUoF+rVKliSegaXU2E1xAiw3elyLAAIIIIAAAggggAACCCCgS4AAS5e0pesQYJm98QRYZu8P3SGAAAIIIIAAAggggAACCIQECLC4E5QKEGAp5XVdnADLNSEFEEAAAQQQQAABBBBAAAEENAgQYGlAtnkJAiyzd58Ay+z9oTsEEEAAAQQQQAABBBBAAIGQAAEWd4JSAQIspbyuixNguSakAAIIIIAAAggggAACCCCAgAYBAiwNyDYvQYBl9u4TYJm9P3SHAAIIIIAAAggggAACCCAQEiDA4k5QKkCApZTXdXECLNeEFEAAAQQQQAABBBBAAAEEENAgQIClAdnmJQiwzN59Aiyz94fuEEAAAQQQQAABBBBAAAEEQgIEWNwJSgX63dpPkurcpnQNiocvQIAVvh1XIoAAAggggAACCCCAAAII6BMgwNJnbeVKBFhmbzsBltn7Q3cIIIAAAggggAACCCCAAAIhAQIs7gSlAgRYSnldFyfAck1IAQQQQAABBBBAAAEEEEAAAQ0CBFgakG1eou+t/eQ2vkJo7C1AgGXs1tAYAggggAACCCCAAAIIIIDAFQIEWNwOSgUIsJTyui5OgOWakAIIIIAAAggggAACCCCAAAIaBAiwNCDbvAQBltm7T4Bl9v7QHQIIIIAAAggggAACCCCAQEiAAIs7QakAAZZSXtfFCbBcE1IAAQQQQAABBBBAAAEEEEBAgwABlgZkm5cgwDJ79wmwzN4fukMAAQQQQAABBBBAAAEEEAgJEGBxJygVIMBSyuu6OAGWa0IKIIAAAggggAACCCCAAAIIaBAgwNKAbPMSBFhm7z4Bltn7Q3cIIIAAAggggAACCCCAAAIhAQIs7gSlAgRYSnldFyfAck1IAQQQQAABBBBAAAEEEEAAAQ0CBFgakG1eou+tfeW2Or1tJjB6dgIso7eH5hBAAAEEEEAAAQQQQAABBL4VIMDiVlAqQICllNd1cQIs14QUQAABBBBAAAEEEEAAAQQQ0CBAgKUB2eYlCLDM3n0CLLP3h+4QQAABBBBAAAEEEEAAAQRCAgRY3AlKBQiwlPK6Lk6A5ZqQAggggAACCCCAAAIIIIAAAhoECLA0INu8xB9v7Su9eQaWsbcAAZaxW0NjCCCAAAIIIIAAAggggAACVwgQYHE7KBUgwFLK67o4AZZrQgoggAACCCCAAAIIIIAAAghoECDA0oBs8xIEWGbvPgGW2ftDdwgggAACCCCAAAIIIIAAAiEBAizuBKUCBFhKeV0XJ8ByTUgBBBBAAAEEEEAAAQQQQAABDQIEWBqQbV6CAMvs3SfAMnt/6A4BBBBAAAEEEEAAAQQQQCAkQIDFnaBUgABLKa/r4gRYrgkpgAACCCCAAAIIIIAAAgggoEGAAEsDss1LEGCZvfsEWGbvD90hgAACCCCAAAIIIIAAAgiEBAiwuBOUCvzhlj/Kz+r+TOkaFA9fgAArfDuuRAABBBBAAAEEEEAAAQQQ0CdAgKXP2sqV+rTsIz+vd7uVs3thaAIsL+wSPSKAAAIIIIAAAggggAACCBBgcQ8oFfifFo/IL+r/QukaFA9fgAArfDuuRAABBBBAAAEEEEAAAQQQ0CdAgKXP2sqVftv8t3LnjXdZObsXhibA8sIu0SMCCCCAAAIIIIAAAggggAABFveAUoH7m94vv250j9I1KB6+AAFW+HZciQACCCCAAAIIIIAAAgggoE+AAEuftZUr/arRr+SBpv9l5exeGJoAywu7RI8IIIAAAggggAACCCCAAAIEWNwDSgXuqP8LeaTFI0rXoHj4AgRY4dtxJQIIIIAAAggggAACCCCAgD4BAix91lau1L12DxnQeoCVs3thaAIsL+wSPSKAAAIIIIAAAggggAACCBBgcQ8oFWhVtZWM7ThO6RoUD1+AACt8O65EAAEEEEAAAQQQQAABBBDQJ0CApc/aypUalmsoM3rMtHJ2LwxNgOWFXaJHBBBAAAEEEEAAAQQQQAABAizuAaUC1UpWk6d7P6N0DYqHL0CAFb4dVyKAAAIIIIAAAggggAACCOgTIMDSZ23lSiUSSsjrv/yrlbN7YWgCLC/sEj0igAACCCCAAAIIIIAAAggQYHEPKBWIkRj5+/95R+Ji4pSuQ/HwBAiwwnPjKgQQQAABBBBAAAEEEEAAAb0CBFh6va1c7aU7XpayRcpaObvpQxNgmb5D9IcAAggggAACCCCAAAIIIOAIEGBxHygXSO01T+qUqaN8HRYovAABVuHNuAIBBBBAAAEEEEAAAQQQQEC/AAGWfnPrVpzYeaK0qNzSurm9MDABlhd2iR4RQAABBBBAAAEEEEAAAQQIsLgHlAsMaDNQutfqrnwdFii8AAFW4c24AgEEEEAAAQQQQAABBBBAQL8AAZZ+c+tWfKjZQ3JXg/9j3dxeGJgAywu7RI8IIIAAAggggAACCCCAAAIEWNwDygWc8MoJsTjMEyDAMm9P6AgBBBBAAAEEEEAAAQQQQODHAgRY3BXKBbrX7i4DWg9Uvg4LFF6AAKvwZlyBAAIIIIAAAggggAACCCCgX4AAS7+5dSu2rNxSJnSeaN3cXhiYAMsLu0SPCCCAAAIIIIAAAggggAACBFjcA8oF6pSpI6m95ilfhwUKL0CAVXgzrkAAAQQQQAABBBBAAAEEENAvQICl39y6FcsVLSd/uf0l6+b2wsAEWF7YJXpEAAEEEEAAAQQQQAABBBAgwOIeUC4QFxMnf7/rHYmJiVG+FgsUToAAq3BenI0AAggggAACCCCAAAIIIBAdAQKs6Lhbt+ord7wqpYuUtm5u0wcmwDJ9h+gPAQQQQAABBBBAAAEEEEDAESDA4j7QIvDEbX+SWqVqaVmLRQouQIBVcCvORAABBBBAAAEEEEAAAQQQiJ4AAVb07K1aeXKXx6RZpWZWzeyFYQmwvLBL9IgAAggggAACCCCAAAIIIECAxT2gRWBI26HSuWZnLWuxSMEFCLAKbsWZCCCAAAIIIIAAAggggAAC0RMgwIqevVUrVylRRSoXryzFE0pIsfhiUjy+mBRLKP7vXzt/LaG4FP32v51znP8UiSsS/E9iXKJVXrqGJcDSJc06CCCAAAIIIIAAAggggAACbgQIsNzoca02gdiY2H+FWUXii0jR+KJSJLaIOL/+LuRy/lpCXIIkxCZIYmxi8NfxsaH//a//OL//7Tnf/bX42PjgGxITYuOD8yTGFgn+t3NejMTId7/v/HdcTGzw92IkNvjXC3vk5OeISCB4WXZejgS+/XVOnvPXnd8JyHe/zg3kSG5+bvA/zrmhX+dIbuC7/x36aznf/nWndnZetmTmZUpWbpZk5WVLVl6WZOdlSWbwfzv/cX4vO/jXQv87q7AjcD4CCCCAAAIIIIAAAggggAAC2gUIsLSTsyACCCCAAAIIIIAAAggggAACCCCAQGEECLAKo8W5CCCAAAIIIIAAAggggAACCCCAAALaBQiwtJOzIAIIIIAAAggggAACCCCAAAIIIIBAYQQIsAqjxbkIIIAAAggggAACCCCAAAIIIIAAAtoFCLC0k7MgAggggAACCCCAAAIIIIAAAggggEBhBAiwCqPFuQgggAACCCCAAAIIIIAAAggggAAC2gUIsLSTsyACCCCAAAIIIIAAAggggAACCCCAQGEECLAKo8W5CCCAAAIIIIAAAggggAACCCCAAALaBQiwtJOzIAIIIIAAAggggAACCCCAAAIIIIBAYQQIsAqjxbkIIIAAAggggAACCCCAAAIIIIAAAtoFCLC0k7MgAggggAACCCCAAAIIIIAAAv+/HTs2AQAAQBj2/9fe0MUpuyBkLAECBIqAgFW0bAkQIECAAAECBAgQIECAAAECBO4CAtad3CEBAgQIECBAgAABAgQIECBAgEARELCKli0BAgQIECBAgAABAgQIECBAgMBdQMC6kzskQIAAAQIECBAgQIAAAQIECBAoAgJW0bIlQIAAAQIECBAgQIAAAQIECBC4CwhYd3KHBAgQIECAAAECBAgQIECAAAECRUDAKlq2BAgQIECAAAECBAgQIECAAAECdwEB607ukAABAgQIECBAgAABAgQIECBAoAgIWEXLlgABAgQIECBAgAABAgQIECBA4C4gYN3JHRIgQIAAAQIECBAgQIAAAQIECBQBAato2RIgQIAAAQIECBAgQIAAAQIECNwFBKw7uUMCBAgQIECAAAECBAgQIECAAIEiIGAVLVsCBAgQIECAAAECBAgQIECAAIG7gIB1J3dIgAABAgQIECBAgAABAgQIECBQBASsomVLgAABAgQIECBAgAABAgQIECBwFxCw7uQOCRAgQIAAAQIECBAgQIAAAQIEioCAVbRsCRAgQIAAAQIECBAgQIAAAQIE7gIC1p3cIQECBAgQIECAAAECBAgQIECAQBEQsIqWLQECBAgQIECAAAECBAgQIECAwF1AwLqTOyRAgAABAgQIECBAgAABAgQIECgCAlbRsiVAgAABAgQIECBAgAABAgQIELgLCFh3cocECBAgQIAAAQIECBAgQIAAAQJFQMAqWrYECBAgQIAAAQIECBAgQIAAAQJ3AQHrTu6QAAECBAgQIECAAAECBAgQIECgCAhYRcuWAAECBAgQIECAAAECBAgQIEDgLiBg3ckdEiBAgAABAgQIECBAgAABAgQIFAEBq2jZEiBAgAABAgQIECBAgAABAgQI3AUErDu5QwIECBAgQIAAAQIECBAgQIAAgSIgYBUtWwIECBAgQIAAAQIECBAgQIAAgbuAgHUnd0iAAAECBAgQIECAAAECBAgQIFAEBKyiZUuAAAECBAgQIECAAAECBAgQIHAXELDu5A4JECBAgAABAgQIECBAgAABAgSKgIBVtGwJECBAgAABAgQIECBAgAABAgTuAgLWndwhAQIECBAgQIAAAQIECBAgQIBAERCwipYtAQIECBAgQIAAAQIECBAgQIDAXUDAupM7JECAAAECBAgQIECAAAECBAgQKAICVtGyJUCAAAECBAgQIECAAAECBAgQuAsIWHdyhwQIECBAgAABAgQIECBAgAABAkVAwCpatgQIECBAgAABAgQIECBAgAABAncBAetO7pAAAQIECBAgQIAAAQIECBAgQKAICFhFy5YAAQIECBAgQIAAAQIECBAgQOAuIGDdyR0SIECAAAECBAgQIECAAAECBAgUAQGraNkSIECAAAECBAgQIECAAAECBAjcBQSsO7lDAgQIECBAgAABAgQIECBAgACBIiBgFS1bAgQIECBAgAABAgQIECBAgACBu4CAdSd3SIAAAQIECBAgQIAAAQIECBAgUAQErKJlS4AAAQIECBAgQIAAAQIECBAgcBcQsO7kDgkQIECAAAECBAgQIECAAAECBIqAgFW0bAkQIECAAAECBAgQIECAAAECBO4CAtad3CEBAgQIECBAgAABAgQIECBAgEARELCKli0BAgQIECBAgAABAgQIECBAgMBdQMC6kzskQIAAAQIECBAgQIAAAQIECBAoAgJW0bIlQIAAAQIECBAgQIAAAQIECBC4CwhYd3KHBAgQIECAAAECBAgQIECAAAECRUDAKlq2BAgQIECAAAECBAgQIECAAAECdwEB607ukAABAgQIECBAgAABAgQIECBAoAgIWEXLlgABAgQIECBAgAABAgQIECBA4C4gYN3JHRIgQIAAAQIECBAgQIAAAQIECBQBAato2RIgQIAAAQIECBAgQIAAAQIECNwFBKw7uUMCBAgQIECAAAECBAgQIECAAIEiIGAVLVsCBAgQIECAAAECBAgQIECAAIG7gIB1J3dIgAABAgQIECBAgAABAgQIECBQBASsomVLgAABAgQIECBAgAABAgQIECBwFxCw7uQOCRAgQIAAAQIECBAgQIAAAQIEioCAVbRsCRAgQIAAAQIECBAgQIAAAQIE7gIC1p3cIQECBAgQIECAAAECBAgQIECAQBEQsIqWLQECBAgQIECAAAECBAgQIECAwF1AwLqTOyRAgAABAgQIECBAgAABAgQIECgCAlbRsiVAgAABAgQIECBAgAABAgQIELgLCFh3cocECBAgQIAAAQIECBAgQIAAAQJFQMAqWrYECBAgQIAAAQIECBAgQIAAAQJ3AQHrTu6QAAECBAgQIECAAAECBAgQIECgCAhYRcuWAAECBAgQIECAAAECBAgQIEDgLiBg3ckdEiBAgAABAgQIECBAgAABAgQIFAEBq2jZEiBAgAABAgQIECBAgAABAgQI3AUErDu5QwIECBAgQIAAAQIECBAgQIAAgSIgYBUtWwIECBAgQIAAAQIECBAgQIAAgbuAgHUnd0iAAAECBAgQIECAAAECBAgQIFAEBKyiZUuAAAECBAgQIECAAAECBAgQIHAXELDu5A4JECBAgAABAgQIECBAgAABAgSKgIBVtGwJECBAgAABAgQIECBAgAABAgTuAgLWndwhAQIECBAgQIAAAQIECBAgQIBAERCwipYtAQIECBAgQIAAAQIECBAgQIDAXUDAupM7JECAAAECBAgQIECAAAECBAgQKAICVtGyJUCAAAECBAgQIECAAAECBAgQuAsIWHdyhwQIECBAgAABAgQIECBAgAABAkVAwCpatgQIECBAgAABAgQIECBAgAABAncBAetO7pAAAQIECBAgQIAAAQIECBAgQKAICFhFy5YAAQIECBAgQIAAAQIECBAgQOAuIGDdyR0SIECAAAECBAgQIECAAAECBAgUAQGraNkSIECAAAECBAgQIECAAAECBAjcBQSsO7lDAgQIECBAgAABAgQIECBAgACBIiBgFS1bAgQIECBAgAABAgQIECBAgACBu4CAdSd3SIAAAQIECBAgQIAAAQIECBAgUAQErKJlS4AAAQIECBAgQIAAAQIECBAgcBcQsO7kDgkQIECAAAECBAgQIECAAAECBIqAgFW0bAkQIECAAAECBAgQIECAAAECBO4CAtad3CEBAgQIECBAgAABAgQIECBAgEARELCKli0BAgQIECBAgAABAgQIECBAgMBdQMC6kzskQIAAAQIECBAgQIAAAQIECBAoAgJW0bIlQIAAAQIECBAgQIAAAQIECBC4CwhYd3KHBAgQIECAAAECBAgQIECAAAECRUDAKlq2BAgQIECAAAECBAgQIECAAAECdwEB607ukAABAgQIECBAgAABAgQIECBAoAgIWEXLlgABAgQIECBAgAABAgQIECBA4C4gYN3JHRIgQIAASEB92QAAAx5JREFUAQIECBAgQIAAAQIECBQBAato2RIgQIAAAQIECBAgQIAAAQIECNwFBKw7uUMCBAgQIECAAAECBAgQIECAAIEiIGAVLVsCBAgQIECAAAECBAgQIECAAIG7gIB1J3dIgAABAgQIECBAgAABAgQIECBQBASsomVLgAABAgQIECBAgAABAgQIECBwFxCw7uQOCRAgQIAAAQIECBAgQIAAAQIEioCAVbRsCRAgQIAAAQIECBAgQIAAAQIE7gIC1p3cIQECBAgQIECAAAECBAgQIECAQBEQsIqWLQECBAgQIECAAAECBAgQIECAwF1AwLqTOyRAgAABAgQIECBAgAABAgQIECgCAlbRsiVAgAABAgQIECBAgAABAgQIELgLCFh3cocECBAgQIAAAQIECBAgQIAAAQJFQMAqWrYECBAgQIAAAQIECBAgQIAAAQJ3AQHrTu6QAAECBAgQIECAAAECBAgQIECgCAhYRcuWAAECBAgQIECAAAECBAgQIEDgLiBg3ckdEiBAgAABAgQIECBAgAABAgQIFAEBq2jZEiBAgAABAgQIECBAgAABAgQI3AUErDu5QwIECBAgQIAAAQIECBAgQIAAgSIgYBUtWwIECBAgQIAAAQIECBAgQIAAgbuAgHUnd0iAAAECBAgQIECAAAECBAgQIFAEBKyiZUuAAAECBAgQIECAAAECBAgQIHAXELDu5A4JECBAgAABAgQIECBAgAABAgSKgIBVtGwJECBAgAABAgQIECBAgAABAgTuAgLWndwhAQIECBAgQIAAAQIECBAgQIBAERCwipYtAQIECBAgQIAAAQIECBAgQIDAXUDAupM7JECAAAECBAgQIECAAAECBAgQKAICVtGyJUCAAAECBAgQIECAAAECBAgQuAsIWHdyhwQIECBAgAABAgQIECBAgAABAkVAwCpatgQIECBAgAABAgQIECBAgAABAncBAetO7pAAAQIECBAgQIAAAQIECBAgQKAICFhFy5YAAQIECBAgQIAAAQIECBAgQOAuIGDdyR0SIECAAAECBAgQIECAAAECBAgUgQEW2Yeb4wuvFAAAAABJRU5ErkJggg==;" vertex="1" parent="1">
                    <mxGeometry x="815" y="660" width="50" height="50" as="geometry"/>
                </mxCell>
                <mxCell id="42" value="" style="endArrow=classic;html=1;entryX=0.613;entryY=0.998;entryDx=0;entryDy=0;entryPerimeter=0;exitX=0.5;exitY=0;exitDx=0;exitDy=0;" edge="1" parent="1" source="15">
                    <mxGeometry width="50" height="50" relative="1" as="geometry">
                        <mxPoint x="760" y="440" as="sourcePoint"/>
                        <mxPoint x="760.0000000000001" y="340" as="targetPoint"/>
                    </mxGeometry>
                </mxCell>
                <mxCell id="43" value="Unsplash" style="text;strokeColor=none;align=center;fillColor=none;html=1;verticalAlign=middle;whiteSpace=wrap;rounded=0;" vertex="1" parent="1">
                    <mxGeometry x="646.25" y="720" width="67.5" height="30" as="geometry"/>
                </mxCell>
                <mxCell id="44" value="Pexel" style="text;strokeColor=none;align=center;fillColor=none;html=1;verticalAlign=middle;whiteSpace=wrap;rounded=0;" vertex="1" parent="1">
                    <mxGeometry x="726.25" y="720" width="67.5" height="30" as="geometry"/>
                </mxCell>
                <mxCell id="45" value="Pixabay" style="text;strokeColor=none;align=center;fillColor=none;html=1;verticalAlign=middle;whiteSpace=wrap;rounded=0;" vertex="1" parent="1">
                    <mxGeometry x="806.25" y="720" width="67.5" height="30" as="geometry"/>
                </mxCell>
                <mxCell id="46" value="" style="edgeStyle=elbowEdgeStyle;elbow=vertical;endArrow=classic;html=1;curved=0;rounded=0;endSize=8;startSize=8;exitX=0.5;exitY=0;exitDx=0;exitDy=0;entryX=0.5;entryY=1;entryDx=0;entryDy=0;" edge="1" parent="1" source="39" target="15">
                    <mxGeometry width="50" height="50" relative="1" as="geometry">
                        <mxPoint x="700" y="620" as="sourcePoint"/>
                        <mxPoint x="750" y="570" as="targetPoint"/>
                    </mxGeometry>
                </mxCell>
                <mxCell id="47" value="" style="edgeStyle=elbowEdgeStyle;elbow=vertical;endArrow=classic;html=1;curved=0;rounded=0;endSize=8;startSize=8;entryX=0.5;entryY=1;entryDx=0;entryDy=0;" edge="1" parent="1" target="15">
                    <mxGeometry width="50" height="50" relative="1" as="geometry">
                        <mxPoint x="840" y="650" as="sourcePoint"/>
                        <mxPoint x="770" y="570" as="targetPoint"/>
                    </mxGeometry>
                </mxCell>
                <mxCell id="48" value="" style="endArrow=classic;html=1;entryX=0.5;entryY=1;entryDx=0;entryDy=0;" edge="1" parent="1" target="15">
                    <mxGeometry width="50" height="50" relative="1" as="geometry">
                        <mxPoint x="760" y="650" as="sourcePoint"/>
                        <mxPoint x="770.0000000000001" y="482" as="targetPoint"/>
                    </mxGeometry>
                </mxCell>
                <mxCell id="49" value="" style="image;aspect=fixed;html=1;points=[];align=center;fontSize=12;image=img/lib/azure2/ai_machine_learning/Content_Safety.svg;" vertex="1" parent="1">
                    <mxGeometry x="726.25" y="380" width="68" height="68" as="geometry"/>
                </mxCell>
                <mxCell id="51" value="Azure Content Safety" style="text;align=center;html=1;verticalAlign=middle;whiteSpace=wrap;rounded=0;fillColor=default;" vertex="1" parent="1">
                    <mxGeometry x="700.88" y="448" width="118.75" height="30" as="geometry"/>
                </mxCell>
                <mxCell id="54" value="Google Lighthouse" style="text;align=center;html=1;verticalAlign=middle;whiteSpace=wrap;rounded=0;fillColor=none;" vertex="1" parent="1">
                    <mxGeometry x="856.63" y="512" width="118.75" height="30" as="geometry"/>
                </mxCell>
                <mxCell id="55" value="" style="endArrow=classic;html=1;exitX=0.389;exitY=0.997;exitDx=0;exitDy=0;exitPerimeter=0;" edge="1" parent="1">
                    <mxGeometry width="50" height="50" relative="1" as="geometry">
                        <mxPoint x="900.4100000000001" y="372.5" as="sourcePoint"/>
                        <mxPoint x="900" y="440" as="targetPoint"/>
                    </mxGeometry>
                </mxCell>
                <mxCell id="56" value="" style="endArrow=classic;html=1;entryX=0.613;entryY=0.998;entryDx=0;entryDy=0;entryPerimeter=0;" edge="1" parent="1">
                    <mxGeometry width="50" height="50" relative="1" as="geometry">
                        <mxPoint x="929" y="440" as="sourcePoint"/>
                        <mxPoint x="929.4100000000001" y="372.5" as="targetPoint"/>
                    </mxGeometry>
                </mxCell>
                <mxCell id="57" value="" style="shape=image;verticalLabelPosition=bottom;verticalAlign=top;imageAspect=0;aspect=fixed;image=data:image/png,iVBORw0KGgoAAAANSUhEUgAAAKoAAADWCAYAAABBlhk4AAAACXBIWXMAABYlAAAWJQFJUiTwAAAAAXNSR0IArs4c6QAAAARnQU1BAACxjwv8YQUAABmkSURBVHgB7Z3fjxvXdcfPHa5kO26R1UPjCEhgEkYfWqDQCoVduQWa2b4UfaoE9KVAAVMPbdEnS+hPuAjERfoj7YtXKJCXPphCg7xa+gs0iY1YiR+8+gOS5RotAjgotIHbWrbEOb2/f8zuasnhzHDu2fuxKXLJITnkfOd7zj33BxkQAxE3+dWb/DLmlyGcLfb45TZjbArEYEAILtItfnWfXzbhbCMEe40LdgZEICNULtIhv/oIkkgNQqzbXKyHQIAM6JCcNERElxtABBKOyt10zK/egcRxjCikAFQc9RYkTmIMBIjeUbmbXuVX70LiJESOOoo9V6XgqFch8SxE3r4FkRO1o+qW/j4kTqPgjroNERO7o+aQWIRcd4RES+xCfQMSizKGiIlWqDrs55BYlD+EiInZUceQWIZcdzFHScxCTWF/eaKtkETZ6ufOkIPqMk0sxyFv/V+ACInVUceQqMOmPsmjI1ahfgMSdYky/EcnVD0AZQiJurwRY001RkdNXaarIUQa3XcYVWMqdZk2RnRdqrE5ag6JJoiuSzU2ob4JiaaIavR/NELVYT/64Wo9IqrKSUyOOoFEk+Qx1VRjEmqqnTZPNK3/KFr9qcu0NaLpUo3FUceQaINoulR776i6jPIIEm1xl7vqNeg5MThq6olqlyhqqjEINY07bRch0jH0nF4LNU036YzeT1Ppu6OmsN8NuTaF3tJ3oaYu0+4YQ4/prVB12WQIia7odVugz446hkSXDPtcU+2zUFOXaff0tk3QS6HqFfqGkOia3k5T6aujjiGxDnq78l/vulDTdJO108tpKn101BwS66SXXap9FGrqMl0/Y+gZvRJq6jLtDb3rUu2bo5L5uZnI6d00lb4JNeo1PImRQ4/oTas/TTfpHb2aptInRx1Dok/0appKn4Sawn7/6E0FphdC1Sv0pd8x7R9X+1JT7YujptppP+nNNJW1CzXVTntPL1KyPjhqDok+04su1T4INU036T9r74hZq1D17x5RWqFP/ILznr5QYu3hf92OSqXLVAj0OqifG78sLuI2v9wBGmytu6a6bqFSmG4y4xchzim/HJo7+e0Zv4z5zZtAg7VOU1lbFyqhLlPhorNnbcA/6y7En4uvtUt1nY46hviZniZSzQRUehAza+1SXYtQdbmDQpH/9iIb6ZSAQr56C9bEuhyVwlI9IgddpnV/F+Jna1011XUJlYKbFstszEUtto8+/MOaUrbOhUqoy7ROKKcQ/tdSU12Ho1IJ+wUsD4Xwv5aV/9YhVApdpgXUgEj4F4yhYzoVKqEV+lYJ4fcgfjo3m64ddQzxc1gz7BumED+d11S7FiqFLtNV80xR0qIQ/jtta3QmVD3dZAjxs1Lo1sV/CuG/05X/unRUCq19EfabaLlTaP0LkebQEZ0IVZczKMwy/T40QwE0wn9njaquHDUHGjTihDr8Uxhc3dk0la6ESmW6SZMhm8qg6jF0QOtC1WGfwnSTe/7A6AagkKcKOknpunDUCdCgUWFp0RcQP52s/NeFUKn8ukkBzUOhTCXIoWVanYpCaLpJK+vaE/qJ99anqbTtqGOgQSsNH0Lhv/Uu1daEqt2Cygp9BbQHlfDf6mD4Nh1V9EStZdpCwxQLTuCryxRo0OrKf20KlcoKfa3WOymFf2gx1WtFqMRW6CugfaiE/9ZSvbYcNQcatB32DVSK/611qbYl1LXN/26YTpxOnwwF0OAGtEDjQtUr9A2BBl06XVMjs9ZNK22TNhy1lTNqDex1FPYNU6DBsI2aahtCpdJl2unoJn1SzIAGjQ+Sb1So/EwSOzgEGhTQPVSG/jU+TaVpR6Uw3USw7LpSTVEADYRIGx3a2ZhQde2USpF/LXVNPQ17BjRotPLTpKPmQIcprA8yQ/+aDP9NCpWKm64r7BuoFP8FY2iIRoSaukybg9D6VILGulSbctQx0KEPLW8qrf9cdwCtTFNCpRT2C1g/lMJ/I5WglYVKaIU+QQE9gFj4b2SqfBOOOgY69CnkUgn/jUxTaUKoVLpM+xL2DSn8e6wkVEIr9AkK6BdUlqcUrNyluqqjUukyFfSq0E5oeUqBEOlKWqk9r1/XTveBBmv9+cSTILQugmCltRFWcdQc6NDXfJBS+F+pS3UVoVJZoU/QyxCrwz+Vkf+C2oPqawmV0Ap9hgL6C6XWf+0KUV1HnQAdml5OsmmEUCmF/xxqUFeoVGqngl47FqHVqQ21Wv9LC5VYl6kghtBKpZdKUGtcSB1HHQMdip6HfQOlPLVWl+pSQtXlBSojpQRROBWh9akMS1eMlnVUSj1RggLigUovlWDpmuqyQqXkpl2tK9UUU6DD0iv/LSxUYtNNBFE1UAiG/6WmqSzjqCnsr58zG/6XESqlLtPYwr5hCrRYuEt1IaESW6FPEGVdkmD4X7jNs6ij1h5M0FMKiBdKg1QWXvlvUaFS6jLdizTsG6ZAi4XaPqcKldgKfYKouyOJrU4tWGiayiKOOgZaUOiOpBT+F1r575lC1bVTKj9qJog97BsKoMWpK/+d5qg50IKEExFbnlJwak31NKFS6jIVTIEOlIb+CcbPevBEoRLsMl33cpJNUwAtnpliPstRqdVOKXU/UlufSvDMaSrPEiqlRpSA0uBjA7Xwn5/0wLELUBBb+EAgwv4IiEHwOJ24EMhJjjoGWhRAEILh/8RpKic56iNQhdi+cqgvM335hfe3/7hhL5K5UUujBwxVj9VQX296ly/r+ze96z4y5cfqevXOI0LVK/S9A+vHCE+01A+82zOqousaT+RmdNwlaOE3opZEHNtR9RgfJ1SR8+TQLWbu+kN9Het4UTJ40+KFaIWAc+iOm/z47/p3BELtcIU+IUzRChfCLIjVN8miHTgHNZquzTHKR1b+qwp1DO2EfV+Yd5Nb0kALV1xEKTOHZvPeCyemePyNP8LmuM8vE2xg/fZEHIhjzS+7DeloctKbbOFqPEIlzhvY8C8LJ+KDa0CM3h9rTdTho5NeeIrLI8T5Dr9cTeJMnIQWrTCwfVyO/LgX21/iBe6jOluSOBNLgSpyTxfU2271yfkCT7qPKawnGgRPTw0eVZ9wUtgXoT01iBKtgio1OEmDudlo8wT3THlnolM8we77WjQPjj333E3umVg3WrATLVihy03G/xGFeNEztJv60BN9AlVP6RhEh1EK74lEInHW2X/1xjqHoiU6pomfQV8Pg8GN2ZW/7MO42UQHRCtUhnBJVCwOrvzVqatsJOKn9q9Lr5P9rRub8Bw8YkycZxkX7WD35R/9y01IkCVOR33eTJVAeUFW3pi9/rfv7l/5uyEkjuVRjpuP8v+JNq+PU6g45194KUpr6k9xjeVVBng/ifUoP88/zYE9/ghg422IlFhz1JfVlXJUxoRY5R1DBmz/4MpbKW8F4aKPho/yT9/dAHaff0FD3qGzJZwVIiROoTLcEq0pgXBTxJKLVV2jcFqAycGVv//p/pVvjuEMsp/v8zD/6BY/hbmL4lXUJzSPQlykj6MM/1EKFUvjCiib/6JJiNpZmbRWKdYR//Odj6/c4unAJIczwCf5J1v/nX/y9pfhl3kf+XzCv5VNceKqbwd1qsSiFOoGRAh3zyFXK8jzDJVYxaAFIVUm1GodRB6enG+VH1zZmQ0gmzx5fn5vVExIjWn4eb6fD/A57qDzXHkP/25ERUR8R2wgt8mYij68RnIJIiRKoXLxSUdlviCZPBTBViIdUMmr2LIczgGmg88Hhx9f+ce7c8bujT54K9qF04Q4GZRXAQdvMMyUc2ImT1qVr8vTFnTIhxJVJbKE+QWIkCiFKg+CLQFrsaJpVCmnVTmrOkhM/pfpx3GTX48zhPHHr3+bP84K7jP3SoS90YO/LqCniLzzS/BZnpUb3+ACHGM535SuKZB61A1LedKGUQXk50e9oVzaJzqiLPj/9Lf+HJkMccIyB0yFOfFR+E0Z6sRt3RnAL6iFKu9j4vZA3UamHtPP4dvwlCDbwyzbg5J9n7/64dPnf2lvVFzvPFX4Wf7BMINzW6w8l/P9vMSyLJeOKT4by9zngcx+Xnmf7gRR34c4Oc3jA7PN7ELxYnQrG8Yp1Nf+DIODxdyBsQeN+ULNtKeEz5H3od4WmT3IZhvmDvoMssEMkT3kGx3y5+wJEbM5HD55EWZ1hfyz/L5IRzb56wwHcG7I33+YYcZzyAGvarBNuR+Y8bcVDCriC/cZgpPRP0HdiauEPJhduB+fUOMM/UyHNJuDqgKMykmPNKZANi74AVNnpUkVSiVc8xrCaXWDQ+e6KIOobKTx+iyWQ36gc+XaqMSSZXD+SQb/9TvfE/fOQInjkMGGWOeTv4Dn8PyEwEG2yYUoBLjJH9sErtJz9uTSEVzKq0TU+Sawkol9lyU4ca1TGR3S9Qc2ublLg9A8xFQqpFr//JlYziBCos1R5cEwB00eRK8CYAKF/tscKHW/OchSmwotfCMG3QBh8jZDFrTRbK6HEJ4QYh0m896ldGq3r+o9WIlaMKCjgBYUqOYe2oafER9qscvXlcrLWKZ3RzYWmduXcJ/Uq6A95VzDKk4i7ULFQ7SiCFv6SsDGSWXfKqhMFKy7Inhdr1Yg5vDb54KeS6YFjbqhht5Wzp0FTN/HGELocgB+L5oVlH/bXkq3DbrX4gJndh/Q1EZLMHVSGz3kuag/E/qNTL0fkTpqnAV/wEPbE4VeGuCFPi1YBp6gWOCkxwgDVD3WCalk5qCjfQ/Qr+WVx5gRqe+MnmDN87RgjMuB/17eCSdPDghTG/O+9hrRxgf3mO/w4YmhrnmZipUHECFRCpWL6dA4hXM7d6CZdhV3FL3eGbOt9zzlUvoAy5xQu699zdIKw4rLC6t2eysQdU/VKUXqqVITI1ys1H7VfjKbubj9ZP7r+ILEUOjmszC7jy6t0XsZ5RKfcQo1Y3tOdjrsWlcsA+H5Id2lAc6p7PNsLRLAOKa6WREeF5cSt31t9FMCU1YPG2ZGmCUzeTMeETJ6qUgZPo5e9EBAPEGkdpf9v9G5vrgeRPqLf5HmqOWh+t5LMI2q8IAAGOdCrITVQOAY5qkmVPtCYWE4RQjzTFNeNy6GnrMZsVoh++9l0hN/qCKrurHbY5VeiLaVeL/wJEPzHVTc1t9vdXICr6FeSI7aFbzx/NAdVMHRkAg6BWTs6IFzzucEwXyRuMYMHj3YR93QH/jBoBKGT3Bt2eiXlQgI9inc39ITuf1QTsKySqHuV7sfOClW3Zq/drQre0cpVL7Te9ZFqi1sPxz6rd1jBOo3OI6GUdSlKSNkANOirzaYWNCqCVMSMO/itcCNAGWtFULnK8vSPosp+1SIP0A17oKTQVcD/PeXNzMv/9VuPYen0f56YZyh/wnMmPl5HvTdy2BEGYpAHlYsvb/11hjmg+ClBdVc0eiQeaVaZ7428EPo3miFjp54lCO6k8ttp5yWd0oxGxWwhGAMrokgx5XOVL5h7rNOPIDH0Q7CiVKoo72paPXvBSUcfYCDuiKGodk4oMJ3Vy9tMAVXZWlQfQ/rbBCGfrsdGAGa14ZARG4/AMAve7kSv9sO/TzanFCeYN17YZAyMDVUSu+D6eeYXihG0Q5vjNNRQX79e364M8IzOjOFb/M482QAgMHzzG3bmhcHmrkarHVWZVU2LwyEb8SMri6L4KcgpTfsEGzpiYFz4+r+2GtRJWCubGUc0uvIcCU1+zldCiJev4SndyBiohVqWbJ7pkWtRQQuNzRuJLcEv3V9Yj2y4nhQKVXp52nxulqrnljoxGwrAuBe1+sdMi5o3Rd8J3eCRe8xU+Ew72XE696j9NpO1bRDGursV4qvFxAx0Qp14ymI0C9DGYPQjYzxVPPW47pAAzFYoRl3KnVdv9R3eB0DeExJDPwwrVv8vpD8/fRKXMGJw8xDetaCzTXBdWIguNdjuizL1Gtg5bsQ750xmEDkRCtUkafyxOyuPTjBSCojEvBSgLB1zzznRF9sppFjHE/3VIlivTz0zKUVQQrgu6h0TH0bwkqDTQvKoz1MfmRgKtyzanqj6kxe40x8HjGCD/0Txj1HuOmF4mtRh31BtEIVlGwuD4BpmFSdxAjRlYXcAQa9le9grmHjXkeLCF3rG70WfskQwxBuK1XoBOqcHI7WVu37mP0xr300Uuh9ZL4LM//1g31RLvwFw20gQNRC/dUH3y1EmQqrZSE8mv/5pSbf4fT2PIXAGZPdi65P39ZgjbP5buwJPwzplbRCOh2DqqMG+aguU9lSFfOcNRCr78BevVXuY/Xzi/vK2xeL0QwIEOl4VAd3tV3GBhPQHmTuBT2OU90OZ6wKYWIGd2DOCvjS+WJYmZW6/+pkCwbZVgbZLZQLNxhxAJiwq3MIXec0QgTtpCw4ScK0QD9NjHdlauwrk2NM1f6zoHDvamUseNw9Zk9IMybXirWcfcrOT4AIDCJnf2u8iefLfX7oNtWB1FM2xHQMWdMZMH9uET+ct7MXYDIqdheqKR68/k83GAxugX59NRXEjdq376kfO2kek5vPpJ4nxYlqOozqT9XbyftZsP2R+VH8/RjvDdBzwJh7r4F5r8MnDC9fLH5tBkSIXqiCn7z2J1xI2YQF84cGEEzqQ3bIm783Rw/+bQpLsv/qv24NNuA+f8HNo3O13JwtIVghsiwzJ4snSk+gvqD51tKSpWgz/Xp23pZ6DT3XSQlYnoCZzrrV65nPagSLWXbtpeLXo+2FOo6oc1RD9sXGbdmlKqOeboj7+ZwKhdt1RCoYffg3ewhPd1yeqsEwJ5Q9VMyvk4LNWf0GXSWn9bpJ1eN2/IDNvF2DSZXLgvwa/IYj/2+HmkgFJIQqS1U8V3X930Yc+iAz2Bl9+J2VRg69/MFbu1wIhasauEEnpgvTb6SZXi43eMU8pp/DwkaRX7UQ95U4t50ADE3Xk640iLfThh2ckPxzvvSD35gAQUgIVfDKj7+7w4/Vnm1pOzHNXnnwnQk0ADe/u6bhAp6zoayxOoE6fPHhM/4ug1a7EaGpxyJT0/Qq42CDshQXMBfppQkQhYxQBRk8vQ564p8pgHMR7UBDPH3h3B3TkhfD6NxgFwBXqAew4kNb6gI74a5So7XOiBURG8FXetMAAIKTUe4F3nzpB785AcKQEurow+/tcQHtuFplyd3036fQEKPipqi3FqbGavNFPRDFVa2ciPx6qltmSBDOMLBC9lyXWacF/bc6AZgrV+3Py3L7q++9ugvEISVUwSs/+o9dkavp3LSAxmF7oKeDoB5OZ/JKf51Wcz+rjANwlVEnaj+Xtdsa/zTuikdShqIc4O9dfP/1As4A0Rf8j+OVB9PJT14bi56ZGTQMlrwHS+WNoARV6tqtfFRdvA4ANIV4vSy2GruauTThOCf2OhbQDE5RK23I10GY33zpvd8l76I+5BzV8MqPp5PseWi8TMMyNy/emaUZUGD/DhwybOD5TgoA6M2LOmY749y6d2uWzfHyV9/bPlMiFZAVqmBUTBsf0T7H+aEdUmdnwcqBIgz88QSskou6gA9+DusPljHrERh5m5FhTI3Y2v1swC5/5Yfb0U7QWwWSob9dNmY6NkM4vdlcm9APSp9uISx1Uw9SMeHe9PGbvFb2NNnKgdx+xtOF6xff//0CzjCkHbUdPge3GgmYsA9+75Cd3+/VV6HiqErDgKHDavHaVKDceXzu88sX3/+DAs44yVFr4kZHmZa/WtbRtcxLPUAkbM2HC1qIFQPNiCdma6c8J324Uc7HX/nhtTMZ5o8jOWot/FyzMt0leMzfHo6unMK87bUzcw++/cUG5EmkIclRa+GLUbioWSzXH+js552DoDXPmMtVbRqQsV/wv6597f0/KiBxBBLD/Lrm4MoOVofr6WF+ehS1uM/+LgBUx6oyfyl39Tqz7Bzbvlj88QwSx5JCf01szxLvAfDCuF1e1SxCgXC018k0nHSZK4l0AZJQ68DU+qxKbMyuT+Xnrey4uqmpqZa2QsBFOk8iXYAk1DqoyYDihxtMeQldaUpvIv/Wc/9NJdWMTVU/ozfLziMX6fUZJE4lCbUW+FBLkfnXtgcqWIjN3W9HU4mB0dn8ehLp4iSh1oHJVZvRrV9ahmNNzYIXcmN9HwZrY93++vt/WkBiYZJQa8D9sNDNdttHr5eGtKPzlCDduljeanuzjfPzMzeoZFWSUOvw2UZhAn6JaFv2cmgJ7zZl6JbEMK5q+vW5dHcuFn8xg8RSJKHWYLQ3OeRfXGGG4blidKn/VcPy3IoqAuWs5863MZibPkmoNeGau2sbSlKwqgJgf2TC1E11Dqu3vZvctB5JqDUpX8juuCJ+CcBcy9+4J9rGFoAuS5Gbb98VSag1GYn1qhCndpgzhvOjwJ/Hr8etPvniyUNI1CIJdQV4u/9OdSwpAIZTS5hrSMGLcf4YWR9IQl2B0YN/EK3/OybUg11pD/BI3z7goZpunahDEurKbExA/TYr2inN5jdOgzl/mES6AkmoKzJ6MJmVGezIBfhUSQrtD6Yx57Lpi16N9P01wOiDb+3yIn8Bqq3Pqg0r1f4vNyFRmyTUhpg/n13jgjxQf6FdOcUbi7q5n7+dxFqTJNSGEOUq7qPbagigwe/j55WA//2/ISRqkYTaIDJfLZVYRU9VsH4p/38wOLcFiVokoTbM6MPJXlnCNg/6B8FivupngS5BohZJqC0gxMpluS2G9IVLnLMcErVIs1Bb5uD1b+3yQsCbZtbq/LnHF0aVnwtKnE5y1JZ5+YNv3igzdplH/5msp37+whgSiT7z8ZV/Hv/nb3/7HUgszf8DteP+VZl4tsAAAAAASUVORK5CYII=;imageBackground=#000000;" vertex="1" parent="1">
                    <mxGeometry x="1046.4" y="702.5" width="57.2" height="72" as="geometry"/>
                </mxCell>
                <mxCell id="58" value="Astro Web Site" style="text;align=center;html=1;verticalAlign=middle;whiteSpace=wrap;rounded=0;fillColor=none;" vertex="1" parent="1">
                    <mxGeometry x="1015.63" y="774.5" width="118.75" height="30" as="geometry"/>
                </mxCell>
                <mxCell id="59" value="" style="endArrow=classic;html=1;exitX=0.389;exitY=0.997;exitDx=0;exitDy=0;exitPerimeter=0;" edge="1" parent="1">
                    <mxGeometry width="50" height="50" relative="1" as="geometry">
                        <mxPoint x="1074.96" y="372.5" as="sourcePoint"/>
                        <mxPoint x="1075" y="420" as="targetPoint"/>
                    </mxGeometry>
                </mxCell>
                <mxCell id="60" value="" style="dashed=0;outlineConnect=0;html=1;align=center;labelPosition=center;verticalLabelPosition=bottom;verticalAlign=top;shape=mxgraph.weblogos.github" vertex="1" parent="1">
                    <mxGeometry x="1044.5" y="426.5" width="61" height="61" as="geometry"/>
                </mxCell>
                <mxCell id="61" value="GitHub Repository" style="text;align=center;html=1;verticalAlign=middle;whiteSpace=wrap;rounded=0;fillColor=none;" vertex="1" parent="1">
                    <mxGeometry x="1015.6299999999999" y="487.50000000000006" width="118.75" height="30" as="geometry"/>
                </mxCell>
                <mxCell id="62" value="" style="endArrow=classic;html=1;exitX=0.389;exitY=0.997;exitDx=0;exitDy=0;exitPerimeter=0;" edge="1" parent="1">
                    <mxGeometry width="50" height="50" relative="1" as="geometry">
                        <mxPoint x="1074.67" y="517.5" as="sourcePoint"/>
                        <mxPoint x="1074.71" y="565" as="targetPoint"/>
                    </mxGeometry>
                </mxCell>
                <mxCell id="64" value="Cloudflare Pages" style="text;align=center;html=1;verticalAlign=middle;whiteSpace=wrap;rounded=0;fillColor=none;" vertex="1" parent="1">
                    <mxGeometry x="1016.2499999999999" y="612.5" width="118.75" height="30" as="geometry"/>
                </mxCell>
                <mxCell id="65" value="" style="endArrow=classic;html=1;exitX=0.389;exitY=0.997;exitDx=0;exitDy=0;exitPerimeter=0;" edge="1" parent="1">
                    <mxGeometry width="50" height="50" relative="1" as="geometry">
                        <mxPoint x="1075.3400000000001" y="642.5" as="sourcePoint"/>
                        <mxPoint x="1075.38" y="690" as="targetPoint"/>
                    </mxGeometry>
                </mxCell>
                <mxCell id="67" value="Azure Functions&lt;div&gt;Durable Orchestrations&lt;/div&gt;" style="text;strokeColor=none;align=center;fillColor=none;html=1;verticalAlign=middle;whiteSpace=wrap;rounded=0;" vertex="1" parent="1">
                    <mxGeometry x="590" y="266" width="149.37" height="30" as="geometry"/>
                </mxCell>
                <mxCell id="71" value="" style="shape=image;verticalLabelPosition=bottom;verticalAlign=top;imageAspect=0;aspect=fixed;image=data:image/svg+xml,PHN2ZyB4bWxuczp4bGluaz0iaHR0cDovL3d3dy53My5vcmcvMTk5OS94bGluayIgeG1sbnM9Imh0dHA6Ly93d3cudzMub3JnLzIwMDAvc3ZnIiBoZWlnaHQ9IjEyOCIgd2lkdGg9IjEyOCIgdmlld0JveD0iMCAwIDEyOCAxMjgiPgogICAgPGRlZnM+CiAgICAgICAgPHBhdGggaWQ9ImEiIGQ9Ik0yNC41NTYgNy4yMjJoLTMuNTFDMTkuNTU4IDMuMDEyIDE1LjU0OSAwIDEwLjgzMyAwIDQuODUzIDAgMCA0Ljg1MyAwIDEwLjgzM3M0Ljg1MyAxMC44MzQgMTAuODMzIDEwLjgzNGgxMy43MjNhNy4yMjUgNy4yMjUgMCAwIDAgNy4yMjItNy4yMjMgNy4yMjUgNy4yMjUgMCAwIDAtNy4yMjItNy4yMjJ6Ii8+CiAgICAgICAgPGxpbmVhckdyYWRpZW50IGlkPSJjIiB5Mj0iOTkuNzI1JSIgeDI9IjQ5Ljk5NCUiIHkxPSIuMjI2JSIgeDE9IjQ5Ljk5NCUiPgogICAgICAgICAgICA8c3RvcCBvZmZzZXQ9IjAlIiBzdG9wLW9wYWNpdHk9Ii4wNCIgc3RvcC1jb2xvcj0iIzIxMjEyMSIvPgogICAgICAgICAgICA8c3RvcCBvZmZzZXQ9IjY2JSIgc3RvcC1vcGFjaXR5PSIwIiBzdG9wLWNvbG9yPSIjMjEyMTIxIi8+CiAgICAgICAgPC9saW5lYXJHcmFkaWVudD4KICAgICAgICA8cGF0aCBpZD0iZCIgZD0iTTEzLjcyMiAwSDB2MTQuNDQ0aDEzLjcyMmE3LjIyNSA3LjIyNSAwIDAgMCA3LjIyMi03LjIyMkE3LjIyNSA3LjIyNSAwIDAgMCAxMy43MjIgMHoiLz4KICAgICAgICA8cmFkaWFsR3JhZGllbnQgaWQ9ImYiIGdyYWRpZW50VHJhbnNmb3JtPSJtYXRyaXgoLjY4MTgyIDAgMCAxIC4wMzIgMCkiIHI9IjE0NC41NjYlIiBmeT0iMTQuMjY5JSIgZng9IjEwLjEyOCUiIGN5PSIxNC4yNjklIiBjeD0iMTAuMTI4JSI+CiAgICAgICAgICAgIDxzdG9wIG9mZnNldD0iMCUiIHN0b3Atb3BhY2l0eT0iLjEiIHN0b3AtY29sb3I9IiNGRkYiLz4KICAgICAgICAgICAgPHN0b3Agb2Zmc2V0PSIxMDAlIiBzdG9wLW9wYWNpdHk9IjAiIHN0b3AtY29sb3I9IiNGRkYiLz4KICAgICAgICA8L3JhZGlhbEdyYWRpZW50PgogICAgICAgIDxsaW5lYXJHcmFkaWVudCBpZD0iZyIgeTI9IjEwMC42NTIlIiB4Mj0iNjQuMDElIiB5MT0iMjAuMzU4JSIgeDE9IjM2LjYyNiUiPgogICAgICAgICAgICA8c3RvcCBvZmZzZXQ9IjAlIiBzdG9wLW9wYWNpdHk9Ii4xIiBzdG9wLWNvbG9yPSIjRkZGIi8+CiAgICAgICAgICAgIDxzdG9wIG9mZnNldD0iMTAwJSIgc3RvcC1vcGFjaXR5PSIwIiBzdG9wLWNvbG9yPSIjRkZGIi8+CiAgICAgICAgPC9saW5lYXJHcmFkaWVudD4KICAgICAgICA8bGluZWFyR3JhZGllbnQgaWQ9ImgiIHkyPSIzNS43OTklIiB4Mj0iMzEuMDY1JSIgeTE9IjY1Ljc1NiUiIHgxPSI2OC45MzUlIj4KICAgICAgICAgICAgPHN0b3Agb2Zmc2V0PSIwJSIgc3RvcC1vcGFjaXR5PSIuMSIgc3RvcC1jb2xvcj0iIzI2MjYyNiIvPgogICAgICAgICAgICA8c3RvcCBvZmZzZXQ9IjEwMCUiIHN0b3Atb3BhY2l0eT0iMCIgc3RvcC1jb2xvcj0iIzI2MjYyNiIvPgogICAgICAgIDwvbGluZWFyR3JhZGllbnQ+CiAgICAgICAgPGxpbmVhckdyYWRpZW50IGlkPSJpIiB5Mj0iMTAwLjk5NiUiIHgyPSIyNC43NzklIiB5MT0iMTMuMDg2JSIgeDE9IjYyLjUzMSUiPgogICAgICAgICAgICA8c3RvcCBvZmZzZXQ9IjAlIiBzdG9wLW9wYWNpdHk9Ii4xIiBzdG9wLWNvbG9yPSIjMjYyNjI2Ii8+CiAgICAgICAgICAgIDxzdG9wIG9mZnNldD0iMTAwJSIgc3RvcC1vcGFjaXR5PSIwIiBzdG9wLWNvbG9yPSIjMjYyNjI2Ii8+CiAgICAgICAgPC9saW5lYXJHcmFkaWVudD4KICAgICAgICA8bGluZWFyR3JhZGllbnQgaWQ9ImoiIHkyPSI1MCUiIHkxPSI1MCUiIHgxPSIwJSI+CiAgICAgICAgICAgIDxzdG9wIG9mZnNldD0iMCUiIHN0b3Atb3BhY2l0eT0iLjEiIHN0b3AtY29sb3I9IiMyNjI2MjYiLz4KICAgICAgICAgICAgPHN0b3Agb2Zmc2V0PSIxMDAlIiBzdG9wLW9wYWNpdHk9IjAiIHN0b3AtY29sb3I9IiMyNjI2MjYiLz4KICAgICAgICA8L2xpbmVhckdyYWRpZW50PgogICAgICAgIDxyYWRpYWxHcmFkaWVudCBpZD0iayIgcj0iOTkuOTczJSIgZnk9IjE0LjU4NCUiIGZ4PSIxNC40ODklIiBjeT0iMTQuNTg0JSIgY3g9IjE0LjQ4OSUiPgogICAgICAgICAgICA8c3RvcCBvZmZzZXQ9IjAlIiBzdG9wLW9wYWNpdHk9Ii4xIiBzdG9wLWNvbG9yPSIjRkZGIi8+CiAgICAgICAgICAgIDxzdG9wIG9mZnNldD0iMTAwJSIgc3RvcC1vcGFjaXR5PSIwIiBzdG9wLWNvbG9yPSIjRkZGIi8+CiAgICAgICAgPC9yYWRpYWxHcmFkaWVudD4KICAgICAgICA8cGF0aCBpZD0ibCIgZD0iTTI4LjMzMyA4LjMzM2gtNC4wNUMyMi41NjcgMy40NzUgMTcuOTQyIDAgMTIuNSAwIDUuNiAwIDAgNS42IDAgMTIuNVM1LjYgMjUgMTIuNSAyNWgxNS44MzNjNC42IDAgOC4zMzQtMy43MzMgOC4zMzQtOC4zMzNzLTMuNzM0LTguMzM0LTguMzM0LTguMzM0eiIvPgogICAgICAgIDxsaW5lYXJHcmFkaWVudCBpZD0ibiIgeTI9Ijk5LjcyNSUiIHgyPSI0OS45OTQlIiB5MT0iLjIyNiUiIHgxPSI0OS45OTQlIj4KICAgICAgICAgICAgPHN0b3Agb2Zmc2V0PSIwJSIgc3RvcC1vcGFjaXR5PSIuMDQiIHN0b3AtY29sb3I9IiMyMTIxMjEiLz4KICAgICAgICAgICAgPHN0b3Agb2Zmc2V0PSI2NiUiIHN0b3Atb3BhY2l0eT0iMCIgc3RvcC1jb2xvcj0iIzIxMjEyMSIvPgogICAgICAgIDwvbGluZWFyR3JhZGllbnQ+CiAgICAgICAgPHBhdGggaWQ9Im8iIGQ9Ik0xNS44MzMgMEgwdjE2LjY2N2gxNS44MzNjNC42IDAgOC4zMzQtMy43MzQgOC4zMzQtOC4zMzRTMjAuNDMzIDAgMTUuODMzIDB6Ii8+CiAgICAgICAgPHJhZGlhbEdyYWRpZW50IGlkPSJxIiBncmFkaWVudFRyYW5zZm9ybT0ibWF0cml4KC42ODE4MiAwIDAgMSAuMDMyIDApIiByPSIxNDQuNTY2JSIgZnk9IjE0LjI2OSUiIGZ4PSIxMC4xMjglIiBjeT0iMTQuMjY5JSIgY3g9IjEwLjEyOCUiPgogICAgICAgICAgICA8c3RvcCBvZmZzZXQ9IjAlIiBzdG9wLW9wYWNpdHk9Ii4xIiBzdG9wLWNvbG9yPSIjRkZGIi8+CiAgICAgICAgICAgIDxzdG9wIG9mZnNldD0iMTAwJSIgc3RvcC1vcGFjaXR5PSIwIiBzdG9wLWNvbG9yPSIjRkZGIi8+CiAgICAgICAgPC9yYWRpYWxHcmFkaWVudD4KICAgIDwvZGVmcz4KICAgIDxnIGZpbGwtcnVsZT0iZXZlbm9kZCIgZmlsbD0ibm9uZSI+CiAgICAgICAgPHBhdGggZD0iTTAgMGgxMjh2MTI4SDB6Ii8+CiAgICAgICAgPGcgdHJhbnNmb3JtPSJ0cmFuc2xhdGUoNS4zMzMgNS4zMzMpIj4KICAgICAgICAgICAgPGNpcmNsZSByPSI1OC42NjciIGN5PSI1OC42NjciIGN4PSI1OC42NjciIGZpbGwtcnVsZT0ibm9uemVybyIgZmlsbD0iIzA1MzVDMSIvPgogICAgICAgICAgICA8cGF0aCBkPSJNNzEuMzMzIDI2LjY2N0gxMDZ2MzQuNjY3SDcxLjMzM3oiLz4KICAgICAgICAgICAgPGcgdHJhbnNmb3JtPSJ0cmFuc2xhdGUoNzIuNzc4IDMzLjg4OSkiPgogICAgICAgICAgICAgICAgPG1hc2sgZmlsbD0iI2ZmZiIgaWQ9ImIiPgogICAgICAgICAgICAgICAgICAgIDx1c2UgeGxpbms6aHJlZj0iI2EiLz4KICAgICAgICAgICAgICAgIDwvbWFzaz4KICAgICAgICAgICAgICAgIDxnIG1hc2s9InVybCgjYikiPgogICAgICAgICAgICAgICAgICAgIDxwYXRoIGZpbGwtcnVsZT0ibm9uemVybyIgZmlsbD0iI0VBRUFFQSIgZD0iTTI0LjU1NiA3LjIyMmgtMy41MUMxOS41NTggMy4wMTIgMTUuNTQ5IDAgMTAuODMzIDAgNC44NTMgMCAwIDQuODUzIDAgMTAuODMzczQuODUzIDEwLjgzNCAxMC44MzMgMTAuODM0aDEzLjcyM2E3LjIyNSA3LjIyNSAwIDAgMCA3LjIyMi03LjIyMyA3LjIyNSA3LjIyNSAwIDAgMC03LjIyMi03LjIyMnoiLz4KICAgICAgICAgICAgICAgICAgICA8cGF0aCBmaWxsLXJ1bGU9Im5vbnplcm8iIGZpbGw9IiNGRkYiIGZpbGwtb3BhY2l0eT0iLjIiIGQ9Ik0zMS43NzggMTQuNTMxdi0uMDg3YTcuMjI1IDcuMjI1IDAgMCAwLTcuMjIyLTcuMjIyaC0zLjYxMnYuMThoMy42MTJhNy4yMjQgNy4yMjQgMCAwIDEgNy4yMjIgNy4xM3oiLz4KICAgICAgICAgICAgICAgICAgICA8cGF0aCBkPSJNMzUuNDk3IDIxLjY2N0gxMC44MzNsMTAuMjItMTQuNDQ1eiIgZmlsbC1ydWxlPSJub256ZXJvIiBmaWxsPSJ1cmwoI2MpIi8+CiAgICAgICAgICAgICAgICAgICAgPGcgdHJhbnNmb3JtPSJ0cmFuc2xhdGUoMTAuODMzIDcuMjIyKSI+CiAgICAgICAgICAgICAgICAgICAgICAgIDxtYXNrIGZpbGw9IiNmZmYiIGlkPSJlIj4KICAgICAgICAgICAgICAgICAgICAgICAgICAgIDx1c2UgeGxpbms6aHJlZj0iI2QiLz4KICAgICAgICAgICAgICAgICAgICAgICAgPC9tYXNrPgogICAgICAgICAgICAgICAgICAgICAgICA8ZyBtYXNrPSJ1cmwoI2UpIj4KICAgICAgICAgICAgICAgICAgICAgICAgICAgIDxnIHRyYW5zZm9ybT0idHJhbnNsYXRlKC0yLjE2NyAtOS4zODkpIj4KICAgICAgICAgICAgICAgICAgICAgICAgICAgICAgICA8aW1hZ2UgeGxpbms6aHJlZj0iZGF0YTppbWFnZS9wbmc7YmFzZTY0LGlWQk9SdzBLR2dvQUFBQU5TVWhFVWdBQUFCVUFBQUFnQ0FZQUFBRDlvRE9JQUFBQUJHZEJUVUVBQUxHTjVmSUFLUUFBQTdaSlJFRlVTQTJkbHR0dkVrRVl4ZG5sV3FoUW9FV3JsUnExeHFRditxTFA5ZjgyZmRhbXZtaGpWQkpiU25yalV0b0NoZVd5L3M2RVJhZ3NCU2M1K1dabnZ6bDc1c3h0cmNEZllnMnJYdlRldU1PS0Y3MTIzK2dSMk52YjI2Rk9weE5ydDl1aGVEeHVxMGV6MlhTWGxwYTZWRHVGUXFGSEhJQjd5VVZxUVJodU5CcFp5N0x5cnV0bWlCSGFBN1p0OTNpKzV2a3NFb25VZXIxZUEzSjlST1MrSmNnYks1VktKZWo4RXBJZENENFEzeEhmMHJiTiswMWljakFZaEx2ZGJuOWpZOE1wbDh0OVgwWmVpTlJlWDErUE80NnpCZEVPeisvQks3QUpuZ3EwUHlabWc4R2dqVnBuYlcydGwwNm4rN1ZhVFZiOFk0ZFJtc3ZsWXBEbVVmZ0dWVnZFVlpJVFF6d1FJVkJia3ZjUklQSmVMQlp6OEYycUo0aEZHbUQ0WVVJYVBFTlZucGdFSWFBSlUwNE1MQVA1blFOcE1FRDVGYXBiS0o3dzJDaE5KcFBrV0I2eGhpMVZtaXd6a1VTUjZ5TlNuMEhwQ3FOeFFRWGl5MnExMnFGOXBOWW9yZGZyTGg3WlRFYWF4T2NreU1NNE1FdUxxS0lQQlBsNGxDZ01JTDhFbFZBbzFHaTFXbHB5aHRpUThtQmxNaGwxa0grYW5DZEFkVE1Tb2xjODVWSWRJdDhGTjFLTERVM1BCbzlVdmdaSVVMSzh2V3VCUjZvb1lwdGMyU1BGWFVndnd1RndyVktwR0J0R3BITmFBSWNweGdwcUVxRU5Vc2E2MDJ3MmV5TzE0NTVwS0cwOExaTjBRbklkYVBlTUpvRDZlRkZmcllnOC9WN1Q1eEYxS1orWUNKZXZTZjQ1K0RXTUU3TksyM2lSMmpCa1duNFA2WnRrd3JTQ3JBbWxoNGVIVWxZbjRZU3ZsNm0zZ1o5U1hta2FyRENJS3RKUEg1cFFxdWRGTFFpZzFDaW1iNVFKTTBwSEV5VkdsUVZXZ2NsSG9kYW4vQy8yKy8zU3lzckt6Zmp3bGVUK2h3VmFXdHE2THhUeE5YS1gxQkNUTU84cUlOWFNhTFg3VWxnUjUxQVBUaVZkWUJYQTQrcVVha0plQjYzYjI5ditWTklGTE5EK2IwSjZESDVBZWtic1RDT2xmYTVWb0tYV2hhZ0tjVUhRbGFPN3pKZlVzMERKZEw0QURoZ3ZPa01iNEloZCtCWHlJeTVOcVo3WXB1TWR6Q3JnWkwrbVVUdnNDdkx4TFN2Q0ZqZ0YzOEZQVkZhSHRyazZFUHdLUEs2RGlpWlJDaHpVeUVNTit4YVVlTjRuZnVKbStVMmVWSnNiWUNZcHlWMDRya2craCtDYWVvcTZacnNFOW5qZUJWK1k4WXRpc1RnYWlaK245T0ZNNCtZa3lFLzVlZ3F4VG5yTjlCNzRpTzk3aVVTaXhKVXQ1YU43U2d2WHQ0eWRzU2tJMTBtVXltL1VkMFc0dkx4OGZIQndJRUsxajhwTVVyS3MxZFZWRzNVeFBOTXhwNG41RFBZaExFMGpGUE1zVC9YZWpVYWpiZjVNZEZqbzJnaWlzTXlRSzM2RTZtVE9QMVZtRlBQenh2c0lIbHVRTy9mOVQ4MURxdS9kelp0MWNBZitBTXltRW55YnlJeWJBQUFBQUVsRlRrU3VRbUNDIiBoZWlnaHQ9IjIzLjExMSIgd2lkdGg9IjE1LjE2NyIgb3BhY2l0eT0iLjEiLz4KICAgICAgICAgICAgICAgICAgICAgICAgICAgICAgICA8cGF0aCBmaWxsLXJ1bGU9Im5vbnplcm8iIGZpbGw9IiNFMUUxRTEiIGQ9Ik0yLjE2NyAyLjE2N2w1Ljg1NyAxOC40OTZDOS45OCAxOC42OTggMTMgMTUuOTkgMTMgMTMgMTMgNy4wMiA4LjE0NyAyLjE2NyAyLjE2NyAyLjE2N3oiLz4KICAgICAgICAgICAgICAgICAgICAgICAgICAgIDwvZz4KICAgICAgICAgICAgICAgICAgICAgICAgPC9nPgogICAgICAgICAgICAgICAgICAgIDwvZz4KICAgICAgICAgICAgICAgICAgICA8Y2lyY2xlIHI9IjEwLjgzMyIgY3k9IjEwLjgzMyIgY3g9IjEwLjgzMyIgZmlsbC1ydWxlPSJub256ZXJvIiBmaWxsPSIjRUVFIi8+CiAgICAgICAgICAgICAgICAgICAgPHBhdGggZmlsbC1ydWxlPSJub256ZXJvIiBmaWxsPSIjRkZGIiBmaWxsLW9wYWNpdHk9Ii4yIiBkPSJNMTAuODMzLjE4YzUuOTUxIDAgMTAuNzgzIDQuODAzIDEwLjgzNCAxMC43NDd2LS4wODZjMC01Ljk4LTQuODU0LTEwLjgzNC0xMC44MzQtMTAuODM0QzQuODUzLjAwNyAwIDQuODUzIDAgMTAuODMzdi4wODdDLjA1IDQuOTgzIDQuODgyLjE4IDEwLjgzMy4xOHoiLz4KICAgICAgICAgICAgICAgICAgICA8cGF0aCBmaWxsLXJ1bGU9Im5vbnplcm8iIGZpbGw9IiMyMTIxMjEiIGZpbGwtb3BhY2l0eT0iLjEiIGQ9Ik0yNC41NTYgMjEuNDg2SDEwLjgzM0M0Ljg4MyAyMS40ODYuMDUxIDE2LjY4MyAwIDEwLjc0di4wODdjMCA1Ljk4IDQuODUzIDEwLjgzMyAxMC44MzMgMTAuODMzaDEzLjcyM2E3LjIyNSA3LjIyNSAwIDAgMCA3LjIyMi03LjIyMnYtLjA4NmE3LjIyNiA3LjIyNiAwIDAgMS03LjIyMiA3LjEzNXoiLz4KICAgICAgICAgICAgICAgIDwvZz4KICAgICAgICAgICAgPC9nPgogICAgICAgICAgICA8cGF0aCB0cmFuc2Zvcm09InRyYW5zbGF0ZSg3Mi43NzggMzMuODg5KSIgZmlsbC1ydWxlPSJub256ZXJvIiBmaWxsPSJ1cmwoI2YpIiBkPSJNMjQuNTU2IDcuMjIyaC0zLjUxQzE5LjU1OCAzLjAxMiAxNS41NDkgMCAxMC44MzMgMCA0Ljg1MyAwIDAgNC44NTMgMCAxMC44MzNzNC44NTMgMTAuODM0IDEwLjgzMyAxMC44MzRoMTMuNzIzYTcuMjI1IDcuMjI1IDAgMCAwIDcuMjIyLTcuMjIzIDcuMjI1IDcuMjI1IDAgMCAwLTcuMjIyLTcuMjIyeiIvPgogICAgICAgICAgICA8cGF0aCBkPSJNNDIuNjY3IDI0LjY2N2gzMC42Njd2MjYuNjY3SDQyLjY2N3oiIGZpbGwtcnVsZT0ibm9uemVybyIgZmlsbD0iI0ZGRjE3NiIvPgogICAgICAgICAgICA8cGF0aCBkPSJNMzkuMzMzIDY1LjMzM0g3NlYxMDJIMzkuMzMzeiIgZmlsbC1ydWxlPSJub256ZXJvIiBmaWxsPSIjRkZGIi8+CiAgICAgICAgICAgIDxwYXRoIGZpbGwtcnVsZT0ibm9uemVybyIgZmlsbD0iI0Y0NDgxRSIgZD0iTTgwIDQ4LjY2N2g1LjMzM3YxMC42NjZIMzJWNDguNjY3aDUuMzMzVjI3LjMzM0w1OC42NjcgMTQgODAgMjcuMzMzdjIxLjMzNHptLTEwLjY2NyAwVjMzLjI0NUw1OC42NjcgMjYuNTggNDggMzMuMjQ1djE1LjQyMmgyMS4zMzN6Ii8+CiAgICAgICAgICAgIDxwYXRoIGZpbGwtcnVsZT0ibm9uemVybyIgZmlsbD0iI0Y0NDgxRSIgZD0iTTI5LjYzMSAxMDkuNjU2bDkuMDM2LTYwLjk5aDQwbDkuMDM1IDYwLjk5Yy04LjU2MSA0Ljg4Ni0xOC40NzIgNy42NzctMjkuMDM1IDcuNjc3LTEwLjU2MyAwLTIwLjQ3NC0yLjc5MS0yOS4wMzYtNy42Nzd6TTcwLjYxIDY3LjA2N2wtMjUuMDk0IDguMTU0LTMuMDUgMjAuNTg1TDczLjM4IDg1Ljc2bC0yLjc3LTE4LjY5NHoiLz4KICAgICAgICAgICAgPHBhdGggZmlsbC1ydWxlPSJub256ZXJvIiBmaWxsPSJ1cmwoI2cpIiBkPSJNNzkuOTQ5IDU5LjMzM2w3LjQ1NSA1MC4zMjNjLTguNTYxIDQuODg2LTE4LjQ3MiA3LjY3Ny0yOS4wMzUgNy42NzctMTAuNTYzIDAtMjAuNDc0LTIuNzkxLTI5LjAzNi03LjY3N2w3LjQ1Ni01MC4zMjNIMzJWNDguNjY3aDUuMzMzVjI3LjMzM0w1OC42NjcgMTQgODAgMjcuMzMzdjIxLjMzNGg1LjMzM3YxMC42NjZINzkuOTV6Ii8+CiAgICAgICAgICAgIDxwYXRoIGQ9Ik01OC42NjcgNDguNjY3SDM3LjMzM1YyNy4zMzNMNTguNjY3IDE0eiIgZmlsbC1ydWxlPSJub256ZXJvIiBmaWxsPSJ1cmwoI2gpIi8+CiAgICAgICAgICAgIDxwYXRoIGZpbGwtcnVsZT0ibm9uemVybyIgZmlsbD0idXJsKCNpKSIgZD0iTTU4LjY2NyAxMTcuMzMzYTU4LjYyIDU4LjYyIDAgMCAxLTI5LjAzNi03LjY3N2w2LjY4NS01MC4zMjNoMjIuMzV2NTh6Ii8+CiAgICAgICAgICAgIDxwYXRoIGQ9Ik0zMiA0OC42NjdoMjYuNjY3djEwLjY2N0gzMnoiIHRyYW5zZm9ybT0ibWF0cml4KC0xIDAgMCAxIDkwLjY2NyAwKSIgZmlsbC1ydWxlPSJub256ZXJvIiBmaWxsPSJ1cmwoI2opIi8+CiAgICAgICAgICAgIDxjaXJjbGUgcj0iNTguNjY3IiBjeT0iNTguNjY3IiBjeD0iNTguNjY3IiBmaWxsLXJ1bGU9Im5vbnplcm8iIGZpbGw9InVybCgjaykiLz4KICAgICAgICAgICAgPHBhdGggZD0iTTEyLjY2NyAzOGg0MHY0MGgtNDB6Ii8+CiAgICAgICAgICAgIDxnIHRyYW5zZm9ybT0idHJhbnNsYXRlKDE0LjMzMyA0Ni4zMzMpIj4KICAgICAgICAgICAgICAgIDxtYXNrIGZpbGw9IiNmZmYiIGlkPSJtIj4KICAgICAgICAgICAgICAgICAgICA8dXNlIHhsaW5rOmhyZWY9IiNsIi8+CiAgICAgICAgICAgICAgICA8L21hc2s+CiAgICAgICAgICAgICAgICA8ZyBtYXNrPSJ1cmwoI20pIj4KICAgICAgICAgICAgICAgICAgICA8cGF0aCBmaWxsLXJ1bGU9Im5vbnplcm8iIGZpbGw9IiNGQUZBRkEiIGQ9Ik0yOC4zMzMgOC4zMzNoLTQuMDVDMjIuNTY3IDMuNDc1IDE3Ljk0MiAwIDEyLjUgMCA1LjYgMCAwIDUuNiAwIDEyLjVTNS42IDI1IDEyLjUgMjVoMTUuODMzYzQuNiAwIDguMzM0LTMuNzMzIDguMzM0LTguMzMzcy0zLjczNC04LjMzNC04LjMzNC04LjMzNHoiLz4KICAgICAgICAgICAgICAgICAgICA8cGF0aCBmaWxsLXJ1bGU9Im5vbnplcm8iIGZpbGw9IiNGRkYiIGZpbGwtb3BhY2l0eT0iLjIiIGQ9Ik0zNi42NjcgMTYuNzY3di0uMWMwLTQuNi0zLjczNC04LjMzNC04LjMzNC04LjMzNGgtNC4xNjZ2LjIwOWg0LjE2NmE4LjMzNSA4LjMzNSAwIDAgMSA4LjMzNCA4LjIyNXoiLz4KICAgICAgICAgICAgICAgICAgICA8cGF0aCBkPSJNNDAuOTU4IDI1SDEyLjVMMjQuMjkyIDguMzMzeiIgZmlsbC1ydWxlPSJub256ZXJvIiBmaWxsPSJ1cmwoI24pIi8+CiAgICAgICAgICAgICAgICAgICAgPGcgdHJhbnNmb3JtPSJ0cmFuc2xhdGUoMTIuNSA4LjMzMykiPgogICAgICAgICAgICAgICAgICAgICAgICA8bWFzayBmaWxsPSIjZmZmIiBpZD0icCI+CiAgICAgICAgICAgICAgICAgICAgICAgICAgICA8dXNlIHhsaW5rOmhyZWY9IiNvIi8+CiAgICAgICAgICAgICAgICAgICAgICAgIDwvbWFzaz4KICAgICAgICAgICAgICAgICAgICAgICAgPGcgbWFzaz0idXJsKCNwKSI+CiAgICAgICAgICAgICAgICAgICAgICAgICAgICA8ZyB0cmFuc2Zvcm09InRyYW5zbGF0ZSgtMi41IC0xMC44MzMpIj4KICAgICAgICAgICAgICAgICAgICAgICAgICAgICAgICA8aW1hZ2UgeGxpbms6aHJlZj0iZGF0YTppbWFnZS9wbmc7YmFzZTY0LGlWQk9SdzBLR2dvQUFBQU5TVWhFVWdBQUFCVUFBQUFnQ0FZQUFBRDlvRE9JQUFBQUJHZEJUVUVBQUxHTjVmSUFLUUFBQTdaSlJFRlVTQTJkbHR0dkVrRVl4ZG5sV3FoUW9FV3JsUnExeHFRditxTFA5ZjgyZmRhbXZtaGpWQkpiU25yalV0b0NoZVd5L3M2RVJhZ3NCU2M1K1dabnZ6bDc1c3h0cmNEZllnMnJYdlRldU1PS0Y3MTIzK2dSMk52YjI2Rk9weE5ydDl1aGVEeHVxMGV6MlhTWGxwYTZWRHVGUXFGSEhJQjd5VVZxUVJodU5CcFp5N0x5cnV0bWlCSGFBN1p0OTNpKzV2a3NFb25VZXIxZUEzSjlST1MrSmNnYks1VktKZWo4RXBJZENENFEzeEhmMHJiTiswMWljakFZaEx2ZGJuOWpZOE1wbDh0OVgwWmVpTlJlWDErUE80NnpCZEVPeisvQks3QUpuZ3EwUHlabWc4R2dqVnBuYlcydGwwNm4rN1ZhVFZiOFk0ZFJtc3ZsWXBEbVVmZ0dWVnZFVlpJVFF6d1FJVkJia3ZjUklQSmVMQlp6OEYycUo0aEZHbUQ0WVVJYVBFTlZucGdFSWFBSlUwNE1MQVA1blFOcE1FRDVGYXBiS0o3dzJDaE5KcFBrV0I2eGhpMVZtaXd6a1VTUjZ5TlNuMEhwQ3FOeFFRWGl5MnExMnFGOXBOWW9yZGZyTGg3WlRFYWF4T2NreU1NNE1FdUxxS0lQQlBsNGxDZ01JTDhFbFZBbzFHaTFXbHB5aHRpUThtQmxNaGwxa0grYW5DZEFkVE1Tb2xjODVWSWRJdDhGTjFLTERVM1BCbzlVdmdaSVVMSzh2V3VCUjZvb1lwdGMyU1BGWFVndnd1RndyVktwR0J0R3BITmFBSWNweGdwcUVxRU5Vc2E2MDJ3MmV5TzE0NTVwS0cwOExaTjBRbklkYVBlTUpvRDZlRkZmcllnOC9WN1Q1eEYxS1orWUNKZXZTZjQ1K0RXTUU3TksyM2lSMmpCa1duNFA2WnRrd3JTQ3JBbWxoNGVIVWxZbjRZU3ZsNm0zZ1o5U1hta2FyRENJS3RKUEg1cFFxdWRGTFFpZzFDaW1iNVFKTTBwSEV5VkdsUVZXZ2NsSG9kYW4vQy8yKy8zU3lzckt6Zmp3bGVUK2h3VmFXdHE2THhUeE5YS1gxQkNUTU84cUlOWFNhTFg3VWxnUjUxQVBUaVZkWUJYQTQrcVVha0plQjYzYjI5ditWTklGTE5EK2IwSjZESDVBZWtic1RDT2xmYTVWb0tYV2hhZ0tjVUhRbGFPN3pKZlVzMERKZEw0QURoZ3ZPa01iNEloZCtCWHlJeTVOcVo3WXB1TWR6Q3JnWkwrbVVUdnNDdkx4TFN2Q0ZqZ0YzOEZQVkZhSHRyazZFUHdLUEs2RGlpWlJDaHpVeUVNTit4YVVlTjRuZnVKbStVMmVWSnNiWUNZcHlWMDRya2craCtDYWVvcTZacnNFOW5qZUJWK1k4WXRpc1RnYWlaK245T0ZNNCtZa3lFLzVlZ3F4VG5yTjlCNzRpTzk3aVVTaXhKVXQ1YU43U2d2WHQ0eWRzU2tJMTBtVXltL1VkMFc0dkx4OGZIQndJRUsxajhwTVVyS3MxZFZWRzNVeFBOTXhwNG41RFBZaExFMGpGUE1zVC9YZWpVYWpiZjVNZEZqbzJnaWlzTXlRSzM2RTZtVE9QMVZtRlBQenh2c0lIbHVRTy9mOVQ4MURxdS9kelp0MWNBZitBTXltRW55YnlJeWJBQUFBQUVsRlRrU3VRbUNDIiBoZWlnaHQ9IjI2LjY2NyIgd2lkdGg9IjE3LjUiIG9wYWNpdHk9Ii4xIi8+CiAgICAgICAgICAgICAgICAgICAgICAgICAgICAgICAgPHBhdGggZmlsbC1ydWxlPSJub256ZXJvIiBmaWxsPSIjRTFFMUUxIiBkPSJNMi41IDIuNWw2Ljc1OCAyMS4zNDJDMTEuNTE3IDIxLjU3NSAxNSAxOC40NSAxNSAxNSAxNSA4LjEgOS40IDIuNSAyLjUgMi41eiIvPgogICAgICAgICAgICAgICAgICAgICAgICAgICAgPC9nPgogICAgICAgICAgICAgICAgICAgICAgICA8L2c+CiAgICAgICAgICAgICAgICAgICAgPC9nPgogICAgICAgICAgICAgICAgICAgIDxjaXJjbGUgcj0iMTIuNSIgY3k9IjEyLjUiIGN4PSIxMi41IiBmaWxsLXJ1bGU9Im5vbnplcm8iIGZpbGw9IiNGRkYiLz4KICAgICAgICAgICAgICAgICAgICA8cGF0aCBmaWxsLXJ1bGU9Im5vbnplcm8iIGZpbGw9IiNGRkYiIGZpbGwtb3BhY2l0eT0iLjIiIGQ9Ik0xMi41LjIwOGM2Ljg2NyAwIDEyLjQ0MiA1LjU0MiAxMi41IDEyLjR2LS4xYzAtNi45LTUuNi0xMi41LTEyLjUtMTIuNVMwIDUuNiAwIDEyLjV2LjFDLjA1OCA1Ljc1IDUuNjMzLjIwOCAxMi41LjIwOHoiLz4KICAgICAgICAgICAgICAgICAgICA8cGF0aCBmaWxsLXJ1bGU9Im5vbnplcm8iIGZpbGw9IiMyMTIxMjEiIGZpbGwtb3BhY2l0eT0iLjEiIGQ9Ik0yOC4zMzMgMjQuNzkySDEyLjVjLTYuODY3IDAtMTIuNDQyLTUuNTQyLTEyLjUtMTIuNHYuMWMwIDYuOSA1LjYgMTIuNSAxMi41IDEyLjVoMTUuODMzYzQuNiAwIDguMzM0LTMuNzM0IDguMzM0LTguMzM0di0uMWMtLjA1OSA0LjU1OS0zLjc2NyA4LjIzNC04LjMzNCA4LjIzNHoiLz4KICAgICAgICAgICAgICAgIDwvZz4KICAgICAgICAgICAgPC9nPgogICAgICAgICAgICA8cGF0aCB0cmFuc2Zvcm09InRyYW5zbGF0ZSgxNC4zMzMgNDYuMzMzKSIgZmlsbC1ydWxlPSJub256ZXJvIiBmaWxsPSJ1cmwoI3EpIiBkPSJNMjguMzMzIDguMzMzaC00LjA1QzIyLjU2NyAzLjQ3NSAxNy45NDIgMCAxMi41IDAgNS42IDAgMCA1LjYgMCAxMi41UzUuNiAyNSAxMi41IDI1aDE1LjgzM2M0LjYgMCA4LjMzNC0zLjczMyA4LjMzNC04LjMzM3MtMy43MzQtOC4zMzQtOC4zMzQtOC4zMzR6Ii8+CiAgICAgICAgICAgIDxnIG9wYWNpdHk9Ii4xIiBmaWxsLXJ1bGU9Im5vbnplcm8iPgogICAgICAgICAgICAgICAgPHBhdGggZmlsbD0iI0ZGRiIgZD0iTTU4LjY2Ny42MTNjMzIuMyAwIDU4LjQ5MyAyNi4xIDU4LjY2IDU4LjM2IDAtLjEuMDA2LS4yLjAwNi0uMzA2QzExNy4zMzMgMjYuMjY3IDkxLjA2NyAwIDU4LjY2NyAwUzAgMjYuMjY3IDAgNTguNjY3YzAgLjEuMDA3LjIuMDA3LjMwNi4xNjYtMzIuMjYgMjYuMzYtNTguMzYgNTguNjYtNTguMzZ6Ii8+CiAgICAgICAgICAgICAgICA8cGF0aCBmaWxsPSIjMjYzMjM4IiBkPSJNMTE3LjMyNyA1OC4zNmMtLjE2NyAzMi4yNi0yNi4zNiA1OC4zNi01OC42NiA1OC4zNlMuMTczIDkwLjYyLjAwNyA1OC4zNmMwIC4xMDctLjAwNy4yMDctLjAwNy4zMDcgMCAzMi40IDI2LjI2NyA1OC42NjYgNTguNjY3IDU4LjY2NiAzMi40IDAgNTguNjY2LTI2LjI2NiA1OC42NjYtNTguNjY2IDAtLjEtLjAwNi0uMi0uMDA2LS4zMDd6Ii8+CiAgICAgICAgICAgIDwvZz4KICAgICAgICAgICAgPGNpcmNsZSByPSI1OC42NjciIGN5PSI1OC42NjciIGN4PSI1OC42NjciIGZpbGwtcnVsZT0ibm9uemVybyIgZmlsbD0idXJsKCNrKSIvPgogICAgICAgIDwvZz4KICAgIDwvZz4KPC9zdmc+;" vertex="1" parent="1">
                    <mxGeometry x="881" y="444" width="68" height="68" as="geometry"/>
                </mxCell>
                <mxCell id="72" value="" style="shape=image;verticalLabelPosition=bottom;verticalAlign=top;imageAspect=0;aspect=fixed;image=data:image/png,iVBORw0KGgoAAAANSUhEUgAAAnYAAAJ2CAYAAADSVM/5AABdU0lEQVR4nO39d5xcd3n3/7+vzznTtshyxwU1NyxhTCcORTIlAUKIA1kluUnITZKbcv9CSEISEiCeXUo6dyr5pd0kue8Q7uzSQhIgNFumhWKakQLGuGFjY1uytH1mzvlc3z/OzGpXWpWVts3u6/nAaGfmzNmzuzPnvOf6NAkAAAAAAAAAAAAAAAAAAAAAAAAAAAAAAAAAAAAAAAAAAAAAAAAAAAAAAAAAAAAAAAAAAAAAAAAAAAAAAAAAAAAAAAAAAAAAAAAAAAAAAAAAAAAAAAAAAAAAAAAAAAAAAAAAAAAAAAAAAAAAAAAAAAAAAAAAAAAAAAAAAAAAAAAAAAAAAAAAAAAAAAAAAAAAAAAAAAAAAAAAAAAAAAAAAAAAAAAAAAAAAAAAAAAAAAAAAAAAAAAAAAAAAAAAAAAAAAAAAAAAAAAAAAAAAAAAAAAAAAAAAAAAAAAAAAAAAAAAAAAAAAAAAAAAAAAAAAAAAAAAAAAAAAAAAAAAAAAAAAAAAAAAAAAAAAAAAAAAAAAAAAAAAAAAAAAAAAAAAAAAAAAAAAAAAAAAAAAAAAAAAAAAAAAAAAAAAAAAAAAAAAAAAAAAAAAAAAAAAAAAAAAAAAAAAAAAAAAAAAAAAAAAAAAAAAAAAAAAAAAAAAAAAAAAAAAAAAAAAAAAAAAAAAAAAAAAAAAAAAAAAAAAAAAAAAAAAAAAAAAAAAAAAAAAAAAAAAAAAAAAAAAAAAAAAAAAAAAAAAAAAAAAAAAAAAAAAAAAAAAAAAAAAAAAAAAAAAAAAAAAAAAAAAAAAAAAAAAAAAAAAAAAAAAAAAAAAAAAAAAAAAAAAAAAAAAAAAAAAAAAAAAAAAAAAAAAAAAAAAAAABzJVvoAAKCLmR95h3TkXQCwbAh2ANY9l0wuaVA2sk82IEkD0o17ZbskSTuLDXfsce1tB7dBueyoIGfe3o8kaZ/sxu2yXZ3na4+0o739iDQiaWC7/Bj7AoAFI9gBWBfcZRqUaZ9MA7MeGFA0Wx2ByusK2jHrvDwiabtcQ3JCH4CTQbADsKa4ZKrLZgLSiKQRxeMFo7t/+eLamRvK/WnFNjRa8cyS+QVZ9LODbIOZzohRG810hpn3uavqslTyVLLU2v9KcrlnbtaSlEmemaxl8pbLxs31cFQ8aJY8LOmgBXs4y/0hKRwITTvUXy4fsqF9zWP+XHWFOaF0r9yGFBfvNwdgLSDYAehq7jKNKGivTFI8Vtjx+sVnjSk8wqRHWJJsi7kuN/NLzHSeu85y6SxJZ9dSKwWTzEzWOUNa+79ONJwdEV3y9h3Wbk+dMfv5fvh57q7oUnRpOotNyR6StD9ID8n8AY/hbkt0ayuPt9UUvntIte+eP7RvfP6fS0FS0A75aqo+AlgZBDsAXWOmL9yIwo17ZdcOKTtqm+GBZHrvl7bmIb/ETI/Koz3eFK+U7AKXn9dXDmXrJDaTFKUsunIv/o1RLpsV4Vwyk/vhgzh83pzvDDorVs1+nqkdQm3WM10WgiwNpjRISbA5ATJG10TLJ4N0f5TuN+nWkIavxtz3tpp+61lvvfOueX9HdSWdoEffPWB9IdgBWNXcZdqtoO07zYb2HBXkRt966bmhmT1O0mPddI1cV8l0Xk/J+kNqUiwqZK18JsDFmRKbpJmg5TMFt2U9L84U/Ew+57iKo7LEFEqJqdQJfUHKMlej5Qej616ZvhpMX5Z0S2+p+kV7/Tf2H/U96jtTaU/UoJyKHrC2EewArDozgwhGJBtRPvuxB+uPvLAa0qea/BqXniLXlaXEzqyUixCX5a5WdGVRUVKUy8zalSzJlju4nS4/3Ih7OABKoRSKwJcEk4LUaLpaue8319fc/NPm4XNe1hf633DH92bv74a60l075PTRA9amrjrBAVi7ZsLcEYHjYP3isyohuTrz8MwQ/Kkx6om1kvUnqSlmrmYutXJ3medyM1lRfTNb2+c393aTsctl7nJLSolZJZUsMbVarkbmo8H0JbdwY3D7SC1WbrFZffWO9TsH0L3W9IkPwOo2a+DDnGAxWd+2KUn0tEaMP2ymZ1QSu7DUbladakVlrih5lCyshxB3stphLxZfWZImsloaZip6mftt7vapcsk/NNEM/3nW0O13zzy3E/IYgAF0NU6GAJaVS6bho8Pc9G9vvdxzPSeL/gJzv6a3kpwhkxotVzNzlylXu5dZtzWnrpR2M240yV1KqqlZJyBPtuLB3PXpksJ73PXxnvlC3u7jTxMDYPXh5AhgWXhd4UYpzB7JOvGWyy7yLHuuKw4Es6f1VEKvvKjKtaKiFb3KAhW5xeFFn0N3k5WCQq0UJElTrXggj/4pC/ae3krlY/a6b3535jl1pTrONDIAVhdOlgCWzEx1blbz3r31C3o2JrXnBvMfj9Gf1VMOZ0vSZDMqj8rb030Q5paYF6E5SlIpUVJth7zJZtyfmH0w8/iubzzinI898RU3t6RZEySfYLJnACuLEyeARdfpO2e7D49oHatve3RI4k+668d7SuESM2m6FdXK22GOJtYVM1/Iy3JXM/e9uTSslo9seMtd/zWz/bAS+uIBqxMnUQCLptM3qxPovH5BTzOt/HAW9dLc/Qf6a0naarmmMqeZdZXqhDyXQk/JLE1NY1N5y8w+Ekx/c0fs+dCj20uf+bASRtQCqwsnVACnrb2slToX+PG3bLogjeGn3PWyailcKZMmmlHRlamozIUVPWCcFC+qeDGY0t5yUJ67Wrl/OUnsHSVL/tnecNuDkuQDSrSdgAesBgQ7AKfsyEA3Xd+03dPw8+b6b5VyOD/LXJOd6pzR1Nqt2qtjRJmsp2QhCabpVrw3mP2TJ/rb6uvvuFU6+vUAYPlxkgWwYEdewJtvuuQJ0fJfcrcXV8tWmy5WQchlMqpza0tnZG05taRSMk0343hi9k/u9ueV62+/RSLgASuJYAfgpB15wZ4cuuSaYPE1Uf7iWjmkE41iZKvRd27Nc5e7FNOgpKcSNNmIjRDsnxOzPyu/8fYvSjTRAiuBEy+AEzpylOtofdvTgsVfkdl1vWWz8UaUu3KaW9efTjNtCEp6K0ETjZhL/t4sJr+/cagIeDfUle4aVM4oWmDpcQIGcEydeeg6gW7sjZfsCKX8N1z2EgIdZnPJ3RWDKemrBk02YsvM/66Zp3+wcejbt0ntUbSsZgEsKU7EAOblA0pspAh0E/VHXpgmpde6xZdXSqFvfLoIdGYK4jyCWToBLzElvdWgRtMfNvO/aGbhT/uHbn9AmvvaArC4OCEDmGN2P7rv1c/tq1nfa0rBX1Mth3MnG1FZVB5MyUofJ1a3TsArJUpq5aDpRrwvc3/bQ663bx26a5r+d8DSINgBkNRudh1Q6FRSpt+y5Uc815urlXDVdNPVzGNuZjS5YkE6gywq7VG0jWb8YuZ6Y1/9zv+QaJ4FFhsnaABzmsYOvHHbVdWKD5aDXiRJky3P5EoY5YrT0VnRorcckiy6WtHfNRlt8LyhYg684QElu2meBU4bJ2pgHXOXaXdRpbv11ZdWLj43/oYp/lq1HHpHp6KbyZmHDospStFc1l8L1mjGh2X63crX7nybjSj3ulINKad6B5w6gh2wTs2u0j1c3/TMSgh/WKuEx9GPDsvAXcrTYGmtbJqa9s+1PPzKGUPf/oxE9Q44HQQ7YJ2ZPYXJgd/ddkatpbrkrykHC+PNyOTCWDad/nf9lZA089jIpT/81sGp33ns2743Qd874NTQxAKsI8MDSkxy26380Ju2Pb/WjJ+vlvTLWe423ooxGH3psHzMZMGUjE3HmOWq9JTCGy7fUP302NAl19ruokm2M0obwMnhBA6sEz6sxHYr/2L9gp4rQ+VNadBrg5mmMs9MSlf6+LC+eVGZy3tKlmZRsRX99+6KPYOPHtrX9LpSG1K20scIdAOCHbDG1esKgyrmpTv4W1ufVCv7n5fL4cljU9ElBkdgdYlRMQRZXzVYoxk/1crDq/qHbv+61xU0KGdZMuD4CHbAGtap0knS5NCWXw1mbyqnqo03qdJh9epU7/rLIW1k8VAu/Xrv9Xf+tcSqFcCJEOyANarTfDX61kvPLeXx/18t68UTjagYlRsjXtEFoisvJZbUSqbpVnxXI89+YePQPQdomgWOjWAHrDHuMg3KbEhxtL7lGWmi/10rh0vHpiMTDaPrdCY27q+FZKoV/6uZ2X/fOHTH5xk1C8yPvjXAGuJ1BbNi/c2JN215TSXVR0rBLh2dirlJKaEO3cZMZqZkdCrm5WBXVlN9YvxNW3+WUbPA/DjJA2tEpz/dfa89v3fDhp6/6KnYSycaUbkrBj7EYQ2IUbGUKtTSoIks/nnvg+mv2p/d1pjdlxRY7zjZA2uA15XabuUPv3nT1jM21D7WU7WXjk3FPLqcUIe1IgSFLJePN2PeWwm/MHlu9tF769s22W7lN9QZDARIVOyArtepVhyob3lGb0n/WE7CI8cakVGvWNNcyvorIZ1qxTuaLfvxjW++4wsMqgAIdkDXmjNI4vqtP1cp25+be3Uqc9Z5xboQXXlvyZIoP9TK/WW99bve5wNKNKzIfHdYr2iiAbpQp8O4DSmO1TcP9lX1t1nu1amWR0Id1otgSiaaHvNoZ6QhvGdscOtrbUS5BmXuFC6wPvHCB7qM1xVsSNEHlEw8evPbeyvJKyamY567QmDUK9ahdl9S9dWCTTTzP++7/q5fNJPH64v3ykofH7CcuAgAXWR4QMnuEeUP/toV/b19jf9Tq4TrxqZiLlMw3s9Yx9zlZsr7aiGdmIr/1Os9L7NinVnCHdYVLgRAl+gspfS9+uZH9AV7T08lfP/YNIMkgNlcyvprIZ2cjh+ciulPnjN02yjLkGE9IdgBXaBzYdr/5kseWYvxX2tlu3q0EbNAqAOO4lFZf09IJ5vx03HKXtz/O3d8j7nusF4Q7IBVrnNBOvjmSy+pKPvXahKuHJuOmQVCHXAsHovK3XQrfm2qoRee9dY77yLcYT1gVCywit3Qnnh49I2XXVn1/D8qiV052og5oQ44PgtKR6diXk3DY2oV++CBN2/ZbLuV+zCjxrG2UbEDVqkb6kqvHVI2Vt/26FISP1hKwiPHm5E56oAFiK58QyUkrTzuG8/C884auv1uKndYywh2wCrUufA8+MYtV2yo6CNpsE3jTSYeBk5FEe4saeb6r/Hp8INnv/Xb32FABdYqmmKBVcYH2n3q6pdt6y3bhwh1wOkJpmSs6Vk5sSur5fjRyfq2TTaifHiA9xTWHoIdsIp4XcFGlE++YcvmUmh9uJraVkIdcPpMSkenY95TtisU4r/f/9at5+8eUd5ZxQVYK3hBA6tEZyLVB16/6QKr6N9qpXDZWIM+dcBiCUHJWCNmtXJ49Bm5v+fBXzu734YUCXdYS+hjB6wCM8uE/cH5vZMTtY/2VMI1o9OEOmApuJT1V0M6Np3/R7/3vlBD+1qSZJKv9LEBp4tgB6wwd5kGZdLOMB7uel9fJbyAFSWApdVZoWJiKv6/Xr/zJdon07CiGeEO3Y3yM7CCXDKNFNW6yXDXX/VVCXXAcjApHZ+Krd5a+Ilx2/JnNqJcIwpOwQNdjmAHrKR6MQJ27Potv9NTCT87NkWoA5ZRaXwqZn3V8D8PDW75Ndut/OaX8/5Dd+OTCbBCOhMQj9a3vLy/Gv5qohmz6EqM9yWwbNzlwRTLqYWJlnafOXTHu5nAGN2MCwiwAm7YqfTaPcoerm96Zm8pfCjLlWRRwYz3JLDcosvLxTClyUYru3bjm+/5AhMYo1vRFAssM68rXLtH2aE3brusmoR3uVs5y2WEOmBlBJM1M3kSrLdSSt99oD2BMdOgoBvxogWWkdcVNCj337uiP6Q+UkntvOnMcwu8F4GVFILCVMvzailsKln8f/4nl1ZG9snc+cCF7sLFBFgmLtmNUjCTj082/q6vZlePNz1jrjpgdQhWTGDcVwvXjB5o/cnuEeUa5P2J7kKwA5ZLXcm1Q8oOXr/ldX218GJGwAKrT3salKy/mrzi4frWn7chZTfUeZ+ie1BiBpZBZ5Tdw0PbntWb+IdbuVvOYAlgVXKXlxJFM2tOR+3cWL+DwRToGlTsgCVWryvYbuUTb7nsoqrFv3dXmjNYAli1rBhMYYmpVjH/x9HfvPRcDSvS3w7dgGAHLCGXbHCHzOs7U89af18thYsZLAGsfiEoTLY8r5bD5aGS/YWZnP526AZcXIAldGN7ZYlDuuv1vbXw7LFGZLAE0CWCKRmfjllvNfzY6PWbX2VDynyY9y9WN8rKwBLp9MkZrW97WiX1T+TRQ+YKrCwBdA93eZqYB/PJVgjX9L/h9q97vVjfeaWPDZgPFTtgCdTrCtou9/qlGxLzvw1BpZbLCHVAdzGTZbl7KQl91orv8D+5tCLmt8MqRrADlsAuFZ/oD3n2Rz1Vu2Ky6Xng/QZ0JTMlE82Y9VbDk8b2t95iI8o1wvsZqxOfOIBFNjysZPdu5aNDm17cW0rePdn0XKJfDtDNXPIgxVJqoZmHZ/XXv30DU6BgNSLYAYvo8NqSl581EZpfSYNd2MzdjWod0PWiFHtKFqZb/o0+bzxBum9aQ3KTfKWPDejgYgMsph0yG1I8FBt/2FsJFzUyj4Q6YG0IUphset5XC4865OUhG1LUMO9vrC5U7IBF0hkpNz607Ycqqf6t0Yq5F6GO9xmwRrjkiSmmQXE6i7vOGLr7MzTJYjXhkwawCDoj5A7WLz7LFP/U3T0WgY5QB6whJlmWy5IQSqklf+5vu7gmHT4HACuNYAcshpH2vFaW1HuqYdtUiyZYYK0KQWGiGfOeqj1ubDR9rY0o127e71gd+IQBnKZOE+zEmy55QrD8s3lU0v70zvsLWKNc8jTIJU2apY+t/tZtt6te9LFd6WPD+sYnDOA0jeyTeV0h5tnbKkkoxSgXoQ5Y00yyVi6vlUJfs5X9vkmufbzvsfIIdsBp8GElu0eUT9iWn+6tJjvHGzE31oIF1oVgCuONmNcq9qLxoc3PsxHlPsD7HyuLTxfAKerMWTdaufDMpFn+apowZx2w3rgUe0rBpltxX29/9iSN3tPQoNyMue2wMrgAAadqX9Gfxhrl3+ytMWcdsB6ZFCabMfZWw46x0fTVNqTIQAqsJCp2wCnwuoKG5NO/fcklnuVfcamWR5nxngLWHXd5OZXnrgOe+1W9Q3d9j4EUWCl8qgBOkUnenM6HauXQm+VyQh2wPpnJGpm8pxzOiWa/ZpJrB+cDrAxeeMACzUxvMrTlKSHYp/PcLYpqHbCeucuTIIWgiaaHx2+4/vbbqNphJVCxA06BuyzL/S2V1JLoVOuA9c5MlkXFain0WZa/0cTgCawMLkbAAviwEtutfHzokh+spvHDk6wwAaDNJQ8mT0x5VHJN7/XfvrlzzljpY8P6wQUJOEkumfbK3d3cs9ebde4GgGLS4jzKq6VQijF/oyRpL+cILC8qdsBJOlyt2/KD5cQ+PM30JgDm50lQTJU8pXT9t780MqCwe4SqHZYHFyXgJByu1slyt9cnwdp3A8BR8lo5JFMx+3WTfGA75wosHyp2wEnwASU2ony8vvm55VL4ENU6AMfikgdJwZTl0Z7YP3THLT6gYFTtsAzSlT4ArF3e+eDQ+aw6OPeDxKCkwcH2o+1HVu1IsvYn7lz+60kwFbW7lT4oAKuRSRalrLcSSuNT/quSXiqqdlgmXJpw2txlGpTNTMi5V6Z98lP4dGo+rKC9Mu1onwT3yld63cVO37rJN1/y/ab8k62cOesAnJCbSWbWSBQfX7n+rm/IZWbMa4elRcUOC2VenxXidiu2Q9e8wcv/5NLKwQOt2kYl5YlSllirnJhi8FIzn5gM8dzecra/qcbZF54xZa+4uTXvtABD7fA40m763Ctf1kk/26Pasiz7xf5qEppZzM2ULNv3B9CNLI/KN9SsOjalV1WlXxxmDVksA6oOOKGZUDUizVeFG3vr1vOtmV4QQnZZjLrMg7bI/UK5zjJTn8s3SNaj4oNEyaXE3DOXZTJvmWxcplG5xiTtd+meIN1tplujhds9T+/bMHTrQ0cd14ASDUgamAmXi/+zt1eZOPSmLVekbl+ReyVX0dSyFN8PwNrhLi8lUnQ9FGN4dP/Q7Q90zikrfWxYu6jYYV4zYW6vvN10kEtF0JlItlwl02M9+jVyPVYt3xyS1iNqaSjijkmSyaMrupRHU3RJcrkXpT0za7dnBoWg84JJic0ajtCuAU40o2TNe8cGt9wt6ctJsM9G+S29+Z232JByjbQ3ryvcKIVdg8oXNeTtK36axO1VPRWrjk17ZrxvAJwEM1kzV76hFs6dnM5fIumPWEMWS40XGGa4ZKrLtE82uzLnb7303LEsf0Zq+sEY/alRury/GlJ5MYagmUvNvDO2YNYObdb/+5xbM9+wfV/nK589LMFNFqRQTkzlxGZC4/h0zCTdmgT7VC7/uBLb0/+GO743s9uBdjPpiOLpDMbwoj+Mxuubz3ezr6dBZ7eiGA0L4KS5FGsls+mmf6PvQPo4/dltTWkVDxRD1yPYoQh0wwqz+7cdrF98VjlJfsBkP5ZH7ewph3MsSHnums5cMba3NUmuYLakr6XokndOgyEoqaamJClOjRONuD8x+2Qe47/EcunfN7zhtgdnfrZhJafaVNsZNDExtPUXeir2Z2NT9K0DsHAuxb5yCOON/MUbhu56L8uMYSnRpLSOzQl07ZPM5Jsf+TSP4aXuemEtTc6XSdMt10Qz5u6SigBncwLO0n88CDbr+0SXT7bc1Sxqe6VgZ1dLdp2UXDfWyPZPDG39YJC/8z/jnR+33cqkIqQN7pUPnWTfFpdMA4pffPkTSlm+/2V5XoxwA4BT0O6MYq+U9N5BlhnDEuJStU51JtyVpPtee37vWRtrL4qul7v0tFo5qNFyNXPvNK0udUXutHhRy4uSVEosqZZNrZYryr8QZP8wmbXetXHongPSyVfwOr+fyaFLdyYhv6GRuVbz7wDA6maSLHgzz0uP2zB02z4GUWCp0Fdonen0P7MR5d+rn9s3MbjlNRs31r5QTsL/qaT2tCxKY9Mxa2bu7fEMyWoPNGZFBdFMSSt3H5uO2XTmXgr2pFLJ/ryapF9uvmnLb0383iMvtN3F4AofVuLH+2Az3J6QOOY/Vy6ZmdFsAuDU5e55TyUpW8j+myQxiAJLhRfWOuH1IsTbkOIN9Z3pk5I7f0pur+uthEdlmWuyWCLLTWunD5lLUS6vpJaUS6bpRnwwyv4yTuvt/b9TDLaYr69L55P0xFsuvsizZG8IdkZWNMXyfgFwSlyK1dTCdBZv6+/PH2OvvWfKJWMQBRYbFbt1wIeV2JCiDSlOD2394WvSu27qLSV/V0nsUWNTMZ/KPIaiH9uaCXWSZEUTctLI3EenYi6zc3sq9ltW9S9NDG7+5VtffWnFdiv3usLsBcJu7Lwv8tKP9laTM7JcOaEOwOkwKUxnHmulcOnEROlZkuzG+to652J1INitYV5XcMlst/LRN22+cmJoy7+WUvtAKbFrxhpFoDNTstan7zCThVnNtKVgF/ZUk/+16dz8U+NvvuS5NlT0ubuhrtQl2zWo3CWLHnfHyJqwABZNTIO5e3ypJN8l+thh8XHJWqNmNTHaxNDm1yQh1Csl2zg6HaMkhTUe5o4nutyk2Fu2xN3UyP3/KGa/2Tv0ne96fWeqwT35+G9v2xGy+GV3pbSTAFgMLnkpyLLcx0Ipv7L3jffcyyAKLLZ1e3Ffq9xlXi+mMHm4vunxE4Nbb+ipJH8UozaOTsU8SGE9hzpJCu3BFuMtj5NZjD0Ve2mapp8bG9z6Ehvak5nJ1fTdPZWQRhXTpQDA6TLJWrnnvdWk32Ppee0BXOv6fIzFR8VuDZk9hcnY4JbXVBJ7aymx3rFGzLXKpyxZSdGVV1NLyolpshXf0RP9DWOm/+gphcdMtpyVJgAsGpfyvnJIJprxQ/2Ddz6/vcINDQNYNFzo14hO0+tD9Us31EL29p5K+KnJRlQexWoJJ8HbfV36KyGMN+J9Lp0bRDMsgMXlLk8TWR41nnjY0TN0+900x2IxUYlYA26oK7Xdysfq2x7dl+Y39FTDT41NxTyPckLdybFiVHAYm455KbELCHUAloKZLMuV91VDnyfxudKskfjAIuDF1MVcMh9Wcu2QsrHBLT9eTv2T5WCPH5uKWTdMLLwamSlpZu6EOgBLyqUY/cWStIvRsVhEXPi7VHst02AjysfqW36xUrI/yaPUzD0PVOkAYNVyydMgi1FjIdFVPb915100x2KxULHrQu4y1WU2onx0cEu9txL+pJl7bEWPhDoAWN1MRXNsbyX0tzJ7uiSWGMOiIdh1GZdMgzIbUhyvb/3j/moYnGjGPEYZozcBoLuY+fNW+hiwthAEuoi7bGRAQUPysaEt7+jtsdeMT8fMmcoEALqLyVqZS+5P9d+7ot92K2edGywGgl2XcMk0orB7RPnE4JY/7auGl01MxZak1OgrCQBdpb12rFfTsHlquvlYSRrZzTUZp48XUbcYLlaTODS49c291fAL7UpdaaUPCwBwalyKpZIpd3+uJA1s50M6Th/Brgt4e566Q/Wtv7KhYm8cn465O4MkAKCbBUkepeja6XUFDSl3WmBwmgh2q9wNdaU2pOzQ4Jaf7i3rbRPNmLsr0PwKAN3NTWG6FRVMV0/qikeY5KpzbsfpSVf6AHBsPqDEhpQdrG97Yjnxv27lHmOxriBvfADociZZK8p7ytbXzJpPkPRdpj3B6aJit0q5FDSseLC+/axSiP+UBlWbWdHhdqWPDQCwOMyUp6kpKj5VkrSXYIfTQ0hYhdqrSpiZPLXJ/91TCZdNtTwLgb8XAKwpLvNcMtlTVMxTmq/0IaG7ERRWo+FiqbDR+pY39lbDdePTMTOazQFg7TGFRhblrseP/cG2c83kXufajFPHi2eV8Xoxrcno0NanV0s2ONFgBCwArFUmWSuLsVYtbwiVi59WTFK8k2szThkvnlXEJdM+2b31C3qC+9uDKclzBksAwFpmIcREmezsy37YLLj2necrfUzoXgS71aTdBNunyut7q+Gqiabn9KsDgLXNLUnGHz7g6SVP+Qn3/GobGcndnZYanBJCwyoxPKDEdiufeNMlTygl+vXJZszN+PsAwFpncvOQxNJ5W6uS/spvvbUiKRLucCoIDqvEwHa517eX85j9RSW1UpbJmIQYANY6k2Km0HtOEs+4PJf0lHjJ1v8tSWaWu3vq7lyrcdIYabkKtCcizscHJ3+mv5o8eXQqz0MwPqkBwFoXgnxqTOll1yqctSlRzPMQ0pdI2uDuv2Rmt0tSO9wFSe3+dyOSBtpfD0oj+45dCBjY7p3NCkOdp7mKCgJ9+tYQKkIrrBgBJen3r+gbn2p8rZzY5kbuzkTEALAOhCCfGlXtJ/9W6VU/IsVMCmkuKZH0oKTfk/QuM/vuUh2C1xW0Y2D+PLB3xDUoNyP8dQuC3Qrz4aJv3fjgltf1VsPvjk7leTCqdQCw5plJWUO28WL1/M+PyqobJPfifqkT7iTpkKTPSvqKpL2S7pGah6TytKTY/OY/VOy7Xypp+v6gbFTKJkx5UlzfS567KytHZQ3zXFFZpeSZvNJQUxM6tzVh1+7JTnSoM+Hv3AdMD57n2jviGpJT7Vt9CHYrqFOtG//tredZ5rckZue0chfTmwDAOhAS+eQBlZ/+alWePyTFXApzPte7pCjNP5dpvOeGVn7bsNv0g+XUG5Jakuftp7QvI+7y3NXK3SVlJmWSMnc1zDQm17iZxtx0yFwPRfcHE0vuyGJ2V6Vcul/N+MCdY/F7W1+2Z3q+Y3CX6cadiR48zzUwEmnaXXn0sVtJI8VkxGOD+pXeWjh3dDLmwZiMGADWhZjLKn0qXf2jxW076jO9qQh1nYCndiHP4j03Wvzsb5TMgtxSNRVcZu1ygelwtrLOns1MJZNKZiYz9VuwcxTaHX9mf2+TEi8rm8oUTQ9fvNEOtN636wG59prZ1zzEb6V5+Jayc+40G8mluRU/v2FnSlVv5VAZWiHuKupyb9n0iPEs7EuDndFyd3P61gHAmmdBao4r2XKNaj/3HklBh0PZ8RQZKbvhlYoPfdVV6pd5fjLZyf3w09vHIC+afud/ssmSNDFZYioCYDsENqOyZhxz6UG57ZP5Fyzo5jT1m+0Fe+4/6hvfsDPVrl1RGqKv3jKgYrdSRhRMyscz+9m+atg4OkW1DgDWDTN5nim96jrJkqIZ9kTdqz1KFuRjd8tHb5elVSuaXk8qK9k8udHmqRIe/naStzKXcvdOLpSbyxTSYP0hsX6ltk1peIGmczUbcazx3l17Jft8EvzzSUg/aS/82N1FH749xdOHB4ofcmAkEvKWBhW7FTBTrfu9K/rGpqZvqaRhUyNjJCwArAtmUp7JamcUgyY2PGL2oIlj8yL8xTv+VfkX3iSVz2j3qVt+7vKi0ucuN5eUpIlZKAWpZFLmak7lk0lin/dcN7XcP1JLm1+z6z4zNrMPQt6SoGK3EtrVuslG64f6y8nm0WaMgVAHAOuDBXlzUuljrmuHuqISd2LFNv7AF9ohcOWyUHuQn3X+J0lZ7q48c01blDwkSehJKmGXgu1KG/n1eSx/u/neXZ+JHt5XMbvJXjSyv7O/Tsiz3SMrk1TXEILdStgrd5eNDsafr5WCW/HJBwCwHrjLkpJKj3nRzO0TXwPaFb3mmPzAXimUtdrGJBRhz0ztDoN57p5PZcWgD7dQLodLklq4RLn/dN6M32m979pPKIR3jzXsk7Z75FBnP0WfvD05VbxTQ5xYZl5XsCHF0bdeuj1k2VclpdHlLB8GAOuABak1pXD+o9Tzyg9JaUVFQDtRM2y7f90DX1B202ukpKaZgbJdwqXY6atXTpNElSBlrqyRfydNw79J+T/ZC/d8amb74YFEA9vdbKi7ftAVRsVu+QVJUVn2Y72VkDJoAgDWEQvy1rTSHS8oQt3Rc9cdl3/vi1JsSmnPaivYnZAdHvqrZhajstzlsnIpeaQq4VX5tL8qe/+uz8r1j0msvM9ePHKf1O6XPjIQtHskMnXKiVElWl7mLmlwZzJmd32hp2SPnWx5bseYfBIAsMa4S0mqnld+WOHcSxfQv84lj8pufJV8/y3tYLc2ClkuRXf3YJaUKomUmlqT2QG5PiCL7yj/6E2fnNl2eCBhsMXx0WF/GQ0PKJjJJ3TPYxLp6qmWi1AHAOtESOTNSSVbr2mHOj+5UOfFShI+fo/80O1SUlkzoU4qKnntpTS9MZ3F5kQrT4OdVepN/3tiyU3N9+76aOv9z/hR/6uXl2z3SG4m9+GBxOmdPi+C3TIa2F68CKPF5/VUg3mxtAsAYD1ozwVcuqq90sQCw5k/+JViidi1u5y4BbNgsqSVuTfHsyyL7qVa8uy0VHpv65xbP5+9b9crfPjZZ8wJeLQ+zkGwW05DyiUpmH4gRpd4MQLA+mAm5dOys7cqueLZ7fsWdgn2B76g9XLZMJOZKTXJmlNZ3mxksVRNHptU079spdmXm+/d9Rp//wv7bfdIbiLgzUawWybuMpN84vWXXRSjP6GRucTyYQCwPliQN6eUPuoHZNUN7ZUmTiaHtJtrm6PyA/uKZth11r2sWNTMQnM6i82pVl4qha2lnvSPcx//Qva+Xa/wG3ZWZwe8lT7elUawWC6DRV+6vNS4pla23iwqtid4BACsdR5l5R6VHtNuhj3Zs39nJa+HvyGfvF9KyjP3rTfWbqZttmJsTrbypKQrklryl3EsfC57/7UvlYoJjr1eD15fv/mG6U6WWbBwTZqa1PIogjUArH0hyBsTSjc/WeGiq9uDJk62sNQOdg98XootSbUlO8xu0Zk2pdmMUU33cjl5jErhH/L3X/vymNuQvXjoo9L6neiYYLFc2v3rXP7kmLvE7x4A1gmT8pbSR79QCukCBk20A6Dnig9+tXguZphUVPAaeWxOtfJQDk9NS/pI61+u/Ud/77Mut2v3ZJ0BFit9rMuJcLEMOv3rDtYvPktuV7RyiUXEAGAdMJOypsKGRyjd8fzD952MTjPs2Hfkh74tJdU1Nc3JYplpop3O8mYrelpJXpKX/HP5v1w7+ND/ffIG2z2Sr6fpUQh2y2F38XsOMVxpQee08vXy8gKAdc6CvDWp5NJdsg0XSvFkJySWZpphH7xZao0veBTtemOyxEzWnGjllvvGUEvqG/t7PtP6wDOfN3t6lJU+zqXGq2QZ3Nievy4tJVt7K8FcylkbFgDWAXcppCpd/aOdOxbw5OIS7Q9+qX2by8bJMLMky92bY1mWpGFHYvpg6/27/mZ8eOcjbPdI7l4Pa7m8QrBbBrv2Fe/kPPftK30sAIBlYia1ppSc/yglW58qyRewLqwXz2+OKu7/upTSDLsQnXnwmo08tpq5p7X056vV5LON9177k2ZDcS1X7wh2y2F7Eeyi6Yr2h7U1+0kBANBmQZ5NK93+Q1KpVjTDnqx2iPMDX5emHmwPnFhXgzsXhZkFM7PmeJYl0pZyLfxT/i/P/D+j79x5TlG9W3sTGxPslsOgOsNgH+nOihMAsPaZlGcKtTOVXvXC9l0LOfUX28YHbpZiU1yuT4+Z0maWx+ZUlodq+OmeXvvP1nuv/QGz9sTGa2jeuzXzg6xWLpmZ/N76BT3uOienkg4Aa5+ZvDWpsOX7FM67oj133QIuuRYkj0X/ulAW1brTZypGzzbGW3mShkuspA+23n/tW314e9mGFNdK0yzBbokN1ouPXRvVe5akDXkUU50AwFpnktyVPua64vZC+sd1mmFHb5eP3V0Eu3W62sRSCFbMfRebnqQ9yetj9REfnRreeWmxasXOrp8skGC3xAbb/+Zq9Unqibw5AWBtM5NaTYWzNiu94jnt+xZyuW1Pc/LQV6XmIfrXLQEzC27y5liWhZI9I62GT0+/+5k/bEN7sm4fNUuwWyYxhP4QVM1d9LADgLXMEnlrUukVz5HVNhYVuIX0r2uHQP/e59tLjxHqloIVXaXSxmSWJ9J5pbJ/IHv/M9/Q7aNmCXZLbV8R40L0WjU1iy5nDjsAWMM8l5VqSh/TnrtuIS01Xnz698bDig9/k2bYZRDMklYrxjz3mNTCW1of2PXPB9/5Q2d2VqxY6eNbKILdUhso/rEQS0kwmYnhEwCwVlmQNyeVXPRYJZueqGLuuoU3w+rAPmnyfilh4MRyMLPgUdYcz7K0ku7u65u6YXr42its90juN3RXvzuC3TKxaJWiM+1KHwkAYMmYSXmrmOLEQnvuuoU30sQHviB5vvjHh2OamdR4PMuSkl2dlHXj5Ht37bRr92TdNKiCYLdMTNY1LwoAwKkwKWsp9J9fTEosLXDuOrXDYKsYOBFKi3+IOCEzpc3pLE8Te0QpsQ9n79n5Eza0J/Ph7pjMmGC3TFxGEywArGUhyFsTSi67VrbxovagiQVcZjvTnIzdKR+9U0oq9K9bISZLms08ylVNKsm7svft/FXbPZLL67baR8wS7JZLQrADgDXNXQollR63+/Dthe2g+P8Hvyy1xtuhkGC3Usws5Hn0VivGpFb6g9Z7d/6u2VDUoKy+ileqWLUHttYkljXFVCcAsDZZkDcnlFx0tZKt16gYNLHAAZXtZlt/4OaFN+FiSQQz8yhrTrbytLf0utb7dv2ZDSkODspXa+WOYLfURop/Wlk63cpccn7nALDmWLE2bPmJLylGssaFNtK4pCA1Dskf/ibNsKuImUyy0JzIsrQ3/YXme3e9o32/VmO4I2QssXauU5SmG7nLTObU1gFg7TCTWlNKzr1MyVU/omKV8AVeXtshzg/dKp96QLKSuFSsHu35Z5PmeJaV+tKXtd6/65/8i09IJcndV1W4Y6TmEhvYXrwzq8rHm25TSVAt570KAGuHBXlrWqWn/IysukGK+cKbYTv96/bfIsWWlNao2K0y7XCXNseyrNxf+onWd/rT0tjOn9SNg9FdMlsdSZyK3RIbbP+bqfdgMB9NgvEhDADWCgtFte78K1V64kt0StU6SZ3LsR+8TUV+WFVFIMxiprQ51spKvemPZYfsHTY05BoZWDXryxLsltjgUBHjejVx0GXjSfF+JdoBwFpgJs8aKj3tVVKlv+hbt+CBD97uozctH72j6KPnTKSwmpkpbY1lWdpT+unme679S9s9kmuwbqthnjuC3RIzFSNnbOiuaZcOJKG4b6WPCwBwmizIGxNKLn68So8daE93cgpLi3auCNMH5FMPSiEVl4ku0Knc9SUvb7171x/Z0FDU8MCK56oVP4B1YbCT4P0OM6PbBACsBWaymKn8jFdL6elU2dr968a/I+XT4tLcVZLmRJal/aVfar1315tWw9qyvHqWw44i2JnZt2Wrp4MlAOAUhUQ+dUjJlc9VuuOHilB3KtU6STPBbvL+YuAEc9h1DTOZXElrspWlteS3poZ3vcKu3ZOtZLgj2C2DG/cWwS66vilRYAeA7mZS3pLVNqry3OtPcbDEPKYekGKmVdBNCwtgJotRSTadx1LV/mL6Pbt+yK7dk7kPnGrSPy0Eu2Wwa1/n41j81mTTo0mJyHcA0J1CIp8eU2XXaxTOvayY3uS0wl17xYnGQRHqulMwWXRJLktK9s7Ge575eLORfHh4+cMdwW45jChK0kS5/K0s+sFSIhPBDgC6jyXyxpjSLU9R6ft+vt0Ee5qX0k6Wa46398XloRuZFPI8xjTYGSGJ7/X37Lx49+6R3Ov1Zc1aTFC8BNxlGpRpn0wDRVOsS1Lztv3jtuW2UrAnt3KGUABAdzHJc1lSUvn5Q1Kp2h4wcbpVtvZ1P5sQ9ZbuZrKk0cjzSm9pcz6V/z//4HOfpfF9mbtsufrXE+xOkbtMuxW0XaYdcu2Va1BuVvynzkeukbnPG6vroyG1J3trla1BAgA4vpDIJ/er+ty6kk1PPsUVJo4jZou3L6yYYJY0J7Ks3J8+tTk2/ceV3R9+VdHfbiRfju9PsDsJh0PcThvZt8d3jyhvh7e5f6QhyesK49p2jif52cqTs135BlPoCaYzoqsi8x2tzCU+lgFA9wiJfOqg0u3PV+kZr16cJtgjLUr1D6uBmdLWeJaVe9NXNt577ZfMRv7G6ztTG9qz5OmdV9A8Zgc5De7J5yufjr9l0wUhT7flnm1JQtiWRT1K7peY2dku32CyvjRYT7VkRYRr7yHPXZNNZzQ7AHQLC1LWkPWdq55XfFB2xgVFCFus0bBt+ad+RfG+z0ilXlaeWAPc5SGRWwjNmNkzyy/6+Ge9rmBDWtI/LvGizesK2iHTiGQjcytxh377UWeXWtOPdulqSVfn0Z8Qgm1218a+arGUhGKxxEQepdylPLpylxePaKbZ1aVgVOsAoEsUS797c1I9P/2PSq549uI3wcolmfLPvE7x3hulUh/Bbo2I7rFcSUKW+Z2lEJ+kH96zX3KZ2ZL1t1vXTbEzYW6vfHaC9t/ZdOZUFq6KuXaadE1sTj/Zgs6uVYLkRdWtlUuZu8amYi6Ty2Wyzpj1zoTEkoqpTWaQpAGgi4QgnzigyvOuX6JQp2IpMrN2oCtCHtaGYBaajTyv9JW2NMfjX1ZMP+bDuxOX4lItL7rugp1LpmGFkRHJhg5X5ibr2zYlZX9GK4svGGvYMyqJXVCrFr/26VZUFqWxqZmeraEd5GTWDm6z34e8JwGg+4VUPrFf5af8jMo7f6kd6paiwaV9fS+fIfmy9K/HMgpmSWsiy8q9pRc3333ty+3HRv7ahwcS7V6awRTrJoJ0qnO2e1aY+91tm6yRP78V7UUh+FN6y8kGmdRouZqZu0x5u/oW2tW3dfP7AoB1LaTyqYeVXnatai99pxRK7SvAElwGPJcsUbz1ncq/8kdSeSMBb41xKRaFXptMk+TJ9oKP/ZfX68GGhha9zX1NV+xcMg0oaPvhplb/vSv6Jxut55j7T1gzPqtaSc6qujTVihptxGhFv7hgRbNqSpQDgHUmFJMQJ+c/StWBt0tJud3nbWm7R1vPhVKoSEvbtx4rwKQQM8/LtaSvOd36O//6wDO0Q5kPyRa7SXZNxpZOc+vs6tz0mzZf2Yj20uD+k32VZLOsaGJt5crbv4Vga/T3AQA4SSGRNycV+s5V7WXDCuddsSQjYOdo798PfVvZx3+eK9Ea5q6s3J+mzdHWb1d+bM8bfHggsUVukl1TL5/5At3Umy95rmL+c1H2Qz0Vq7Uy13TmeTsfdypzAID1LiRSa0pW26jaS/9J4aKrZ5pJl1Z7wEQ2qdbHfkaavF+yklhabO1pT4ESLbE8yeNT7bo9X3SvB7PFa5JdM6HGB5R0pinxutJGsvU6d706SfSMUmKabEblrkxMNwIAOFJIpNa0VOlT7af/r5JNT1qaEbDH0h4Zm3/mNxTv+YRU3kA/uzUqusdKLQ3Nqfzz5Ycuf5rOfDhqYCQu1pJjXR9whgeUuMtsRLnXd6bjg1t+ZjLZ8p+l1EYqJT1jquU+Nh3z3OUmpYQ6AMAcnVBXqqrnv72jHeqy5Qt1kjr96uycq9q3qdatVcEsNKeyvNyXPrl17jd/yXaP5BoZWLRs0rUVO68raF8R6CRp4k2br3PZ63vT8KTorvGWRysmBl7OdyYAoJuERN6cklX6VPvJv1VyydOXt1LX0elnd/Cbyj7x8qXt04cV5y4PqVyuqVT2BLvuhm8u1ijZrhsVa5LisJJOP7rJoa1PT4LekAT9oMk01oi5TBaozAEAjiek8ukxhY0XqvaTf6tw8eNXJtRJ7RntXbbhEtnGy+QH9klpjRUo1igzWcw9lnvS3tZk/BN3PU+SNHT6++6q8ON1BVcxF92BN2zZPDa05R0WdFM5tR+cbHkcb8VopoTmVgDAcSUl+fQhJeddrtp//+eVDXWSinXLohRS2YVPl2JrhY4Dy8VkSWsyy0vV8ION9+96kdlQ9OGB034BdkUAcsm8rtSGFF3S1JsveXVPRZ/rq4SXtbKiD50V84F3xc8DAFgp1l5R4iGlm56s2sv+WeHcy1Y41HUOrbiEhUc+R1Y9qzgmrGnushjdQ/Tf9g+8oEd7R9z99LrJrfog5HUFk9yGlB36rS1PmRjc8ulqyf/Uzc4fm46ZzV7WCwCAY2kHJ5/Yr9JjXqTqS98p23BBMfp0pUOdpE7VznovlF3wNCmbWIapVrCSzCxkjTyW+kqXt7Kx19iQ4ukOpFjVgye83Zfu6/Xt5S3J5OtKZr9ZSqw21igqdMxBBwA4KSGRsoYUM5Wv/VWVn/na4v6lnnx4oWYPorjh5eqC+gtOk7s8KZl71KHUs6t13Sfv0aCss2LWQq3KV4y7zOvFRMMHf2vTEy5Jp27sLYc3tXKvjTdiHkwJoQ4AcFLagyRU7lP1J/66Heq8PXfcKrsMWiiqdhuvUHjks6UWVbu1zkyWZ9HTWnJmK0+GzOQarJ/y/lbZK7o90bAVa7tOvXnbqyqlcFMlsWvGpmMWJafZFQBwUiwU1a+J/Uouulo9P/dupTt+uN13zdojUVevcOXPStUz2wMpVvex4nRZyKayaGV7if/7s68yG4per59SRltVwe6GulIbUX5v/fJzJoa2vLOa6i+iq2e8aHpNWcsVAHBSOk2vzUmVn/4q9fyP9ys8YsfqGCRxIp2qXe9FSh713+lrtw6YikEUaTkpN6ZbbzzNfa08l+zGupJrh5Q9+Ftbn7ShrH8ol+zKsemYy+lLBwA4SRYkmXzqoMI521T9obcoedQPFI+ttv50x9VuKnZX/qlfUrz/cywztg6YtdeRDbrGXnDDzT48kNjukQX90Vf8Fe4uU1127ZCysfq2/7ah7B9Pg64cm46Zib50AICTUUxjomxa3hhV6fED6nn5B4pQ53F19qc7rnZTcUiUPPH1sr4LpXy6y34GLFR096SclJoNL6p2e7cveG25FQ1NXlfojPoYG9zy1lrJXt/MXK1cMYSVD50AgC4QEinP5Y1DSs7frvIzf1XpY64rHvO8u5sxO6NkH/qKspteoyLAhiKoYq2KoWSeZHqG/egNn1lo1W7FwtPwgBIbUrz7ly+ujQ9u/ue+Wnj9ZOaxFeWEOgDACXUGR0wdkkJQ5ZmvVe0V/16EupkqXReHOulwf7tzHqvk8b8m5VPtn4vGrLXK5Z6UkqQZ/ddO5fkr8srwASWdQRJnJq3hWsWuHZuKmaSEARIAgOPqTDTcnJC5K7n8Wao8+3UKF11dPN7tVbr5tH+meMe/KL/596VQKiqVrCW75rjkJsmCZdPN/An9u2/6ug8XU8CdzPPTJT6+o3RC3cNv2LS1lrbeV0nt6rGpmNkKHAsAoItYkMzkjXGZR6VbrlHpqa9Uur1YP10xb2+zxkKdVPxMHhW2/ogsqSr7wlukPJOSKgMq1hiTzF1ZqZaUylH/P0mvlAYkjZzs85dPe73XbPqtmx+lGD5USbRlrOmEOgDAMczqU9ackMdcySOfoPLTX6X00T9yeLOuGvF6GtqVO7//M8pv/j35xP1SpV+KURL97tYKlzwJphh9rOTVHfbiD9/j9XqwoaETlmiX7V3gRZ+67MAbt13luX2sFGzLKKEOADCf9ohQKcqnDkqtKSWbnqzqwNvV8/J/OxzqYrtatR5CnTRTubNHfL/Sa/9K4cKnSY2Da7P5eR0zyWLueak33RBD4+cl6UbdeFIv8mWp2M00v75x8+MqZfv3cmIXTDQ9D6wiAQDoMGsPFvBi2pLWtELPmUoue6ZKT3yJkkt3Ht62GyYaXkozFUpX/MY/Kt76Tvn0fqnU1w5/NM92O5diqWSh1Yz3lmu17fb8D4+6y8yOX5pd8mDnw0pst/IDb9p2VY/8P9JEhDoAQKHdb07uUt6UNydlSVl2ziVKH/UclR7/EwrnXXF4+5gXTbOMs5s7Onbiu8q/8Q+Kd31YyqakUo9kqaTI1ChdzOV5uVZK8kb2U+l1N77Tb9iZ2rV7suM9Z0nfGZ1K3VR98xZLwifSRFsJdQCwXrXnPeg0m8ZcyprybFoWEtmZj1R6yU6lO56vsOkpsmp/sZ23+4/R1Di/Wf0Lff8tit8aVvzefxZNtElFCuX247HdDY+g1y2KYJcmrcns4+UX73n2ilbsOpMPj7116/kh80/0lML20UYk1AHAmjV7wqr2F2btr70YxRlb8qxZ9BOrblA4a4uSTU9UsvWpSi7dKes58/DuYn64eRbH564i/LZ/V2N3Kd79EcXvfEw+fo8UG1KoSEmpXclTsb18Vs4j8K1GJrkl1spj/sTKj950y+zFHeazJAMX3GUy+UP1SzdYnv9LTzlsH52KeQiEOgBrwTE+E5/wo/KpfJY+1e+1jDpNfR6L0ZkepZjLY97+OpNCKqudqXDGhQoX7FCy5fuUbHqywvmXF1Wljpi3f7awvvvQLVQnQHfmtevfrLDjfyhc8VPyh76i+OCX5A98UT52l9Q81H5OUvyOLZmZ7HnumMrjBT0C4XKJrrxcTcr5uP+0pF/XjgE73tQnS3FqMB9QsBHlhwa3vG9DNVzXXveV0a/AqmbHvXnC7U92/8sRSI66zpzOhcdn/eOH7zvqojbPfUc+5zj78WPtZ0H9o05i29P+3cze3mb6yJkFqVSTlarFv5U+qecshTM3KTn3UtnZ2xTOuUTh7G1SWpm7y9kjW1lRYXG4S4pHNF+7/OBt8tE7pNHb5Qe/JZ+4V96aKPrlZZNSbM3aftbfYubvEg5XUa3d13Hm73asv13n/tmvHYLhySoGUYTQauZ3l2u1q040iGLRw5bXi2lNxga3/kFf1Qh1WCHznGCOe71YyMVkIeujzLfhSZ7ETumkd5xtj3lB7yQLP+LrWdudZEDxI/d7VNA53j5OxonC4cn8YU709zv8oM2+gM38Z+1Kx6xAM+ex+bY/fPvofR59e84+k9KsQ2tXsUIi61RbQiia1kKYe39n2/ZtC8e5f85z2vua2X97nxakUkVKyrN+U7OOPQRZpV+q9MnKvbLes+ZsO4d7u1/Y4YXuscjMJCWa8+HAgmzjZbKNlx3eLm/IGwek1oTUHJM3R6XmQak1LrUm5K3x9tfj8taUFKelrCHlDSk25Nl08XU2fbgvpKSjzxs6Igi2q4MzTe2z39uz36Czv16fwdCk0GrmsVxLNzWmms+S9D6NDARp/vVjFzVwtUfAZgev3/yqvor96kQjZiaaX7GIZqZD6Iz0mh0QZpvV/eC4YeJ4VZRZMeVE+zgqoMx335wf5Oi+SPPepyMqGDbrvDfPyW++++ft89S+HY4MIaEIFUfeH5JZ2ydHhJl5tj/Wfmb+KwKJzYSMdvNPSIvnhsOhomgmam8/O4SEY9w/J/Acvu/wPue5vxPUQtKuJln7V3Xs8DXf13acx44Z4DoXtzDr67Wi8x6dCRY26z8uDcvD5r6mZsJXu8KWVGQ9F8ze+sTyhpQ3i2CXd4JdU8om5a2xIghmnVA4MRMSlU3Lsykpny6CYD7VDoZT7UqhHw79M6+bzpq/nffGrPfQvNVCm3W7s681wOQK5rLsxyS9TwPbj5lmF+0M0hkBOzq09eml4J+IUSHz4le+WN8D65yF9nQIE7JST7uS0QkucztqH1UV6VzMZwcJC7I59x/59awQM892dsR28z3fZu6f+/2PChNHVlmOV3mZtc3s59kRYWducDni+3SCWidgzD5BzvzbOYke/z470XY4RSf6cHCM5yzg7kU3+0PDUR8ysDrNV5E/zt9tMQayxFY7GDblebO4nU21A+F40TTcDoQzX2eTUjZVBMNssgiRs5uPPUqeH/43torBIml1TYQ7l2KaWsiz+EBJ6XZ70cf3H6s5dlEqdvVihEY+Vt92nin+Y2KWttwjoQ6LJiTy6TGFDReq/NRXKNn2NFn/I+ZUX+YGmM6nOTv878zXhx+zeR+ffd/s/eDUHavp1ZcvdBzLUX/axfhbn8Q+5t1kvmrrIhwPL18c06m8zo5sKZnvTTzffZ3qdKn4T73zftcTHknMJC9GWCtmUj49KwC2A+HEfYr3fEL+8DeLOf26fC4/k0KrFWOllp7XnG49S9LwsZpjTzvYuWTaIRusK4wp/n1fJWwanWJaEyyikMinDim97FpVr3ub7MxHrvQR6fj9O44MKyd7QjmNq68d88ZpWMB+TrjpsZqKF/ZtAKwGNuefhb+J/YgvTyYYzvrQHVJJqZRUjzyiObfDpQPKv/w2xTv/XSr1dn3lLphFBTNT8iJJw8caGXvap9Qb6kqvHVI2Wt9yfX9PGBqbYrAEFpEFeXNC6ZbvU+2l/yiV+4pPaMdsDliscLQoGwIAFp3Pc/PIlgAvAmBsKfv4zxYjgZNKV4c7d3mamsXM96e16pX2/A8/OF9z7Gk1lg8PKLl2SNnk0LanlhJdPzkdczFYAovGJM9l5R5Vfvh3Doe6dgf7+f+zU/9PJ/sfAGDlHHFOPmpgUlJcJzyTQknhkc8uBmt0+fnbTJblHtNqcnbWmH6GJBXNsXOdcrBzyQa2y79X396Xu/9tmliSefHrPY3jBg4zk7emlFz8OIXzrzz8CQwAgBNqj4ztu7jdytPd/ewkSa6oUvDo/pxjbXLqFbvhYkmLHk3+fl/NHjXZjHk4zQogMIeZFHPZGRfNndoEAICTFTOdcLRv1/CgRm7m2vX1+kDZdo/kfsQPdkpBzOsKtlv5wfrm51ZK9qqJqZgHW4wx0MARLEhTh2Y1lQIAcLJM2n/LSh/EojGzkLWih2CX7XjC/kdLkobnZrkFhzH34urqf769L7XwR2YzXRG56mJxxShLq8rv/Yp86uHiFTbzyQsAgPl4e5BdIj90m/K7/kNKe4v57daAKOVJTxry3J8pSTp352lW7EaKJtjRByZ/s7dqj5psejQGTGBJuJSWFUfvU/Ojv6vDw9yP/Awxa7byRfsvb09yucT/zUyouZD//Nj/6cj/AKBbzVq5ZL7z87HOn+1rhY/dqfyzry9WtlhTy9a5Kbpy17MlSbv2zEmsC6qyeTERcRx/05arg/R5l9IYGSqIJWYmb06p/NgBlZ72SoWzNhcTTjJp8CKYb9qAE2xzrP2ccLMTbbCQSX0X8rc/xrYLevnwWgMW5jiTks9x5Gols+87RY2HFb+7R/l//b00+YCU1rp6mpMjucvLJbNmyx8sb0gvs+d87NDsaU8WPMTQXTY66G/rrSblsemYmzFgAkvMXVbuUfNL71Jr378pbLy4WCZmzhJWnbUDJQulo9YEtaPWF+2sVTrf/Ul7qbFjLIZ+rPVIj/o+86yLOnvt1SPXVj1qebIjh+8fuY/5lkDrbDPPPuZ1MpMFn+RJdl1nn/nWLD7W8l4nO0v/8Szkb7LQP8wCt1+s1TGwCpzE/HBH6Uw50vl69v069deHx6LSNmd92cP/+swSZBOzliCbkDcelo9/Rxq/RwrlNRfqJEkmtTL3kNg5rYn8akk3zV6F4qSDnQ8osSHlE8nm63orybPGGzE3VpfAcvEoq50hxVzxwdvks9+ofqITz5HbHPXgMW6exHOO2mS+2dJnrak6Z13V9mNz5mGyOc85vFD8yW8/d8m02dvYzPxOdpw1ao9ak3Zm7dlUM2vSzhNs512T9qg1bGftb05gPWI5uM5z57lv9vNt3jWAj16312bfd9Rav50l6DT3dzXz97O5j83ryJn4j7pxwru73uxmsJP6nWF5zV4TdvZ56sh5POc+tOC/n3u7iTQ7Ym3XqVnrvbZvtybk2YTUmmwvBda+3ZwoAlxsyWOrvXRYZ33Z1uG1Yee8vmb9HKEklfoON+GuMSaZu7JST5rmE/njJd1047kPzPyhTirYucs0KPf65upEtLe4uzyKcbBYXjGXZFKpdgqXCpv3y8U3T/+/mS/nCaBHfiJ2lxTbP2vxmM95bCH7nfNszW0u9bnPOOa+j7h9Mo/NG4znW2btiMmh2/+ecP3eU3js+PtsB+FZYdfCkQExmRWGjwi8R4ZYm3VfJ0Qe43l2ZBjtPD473M4J14e3P+E+w5EB9/B2NuuYZ1eYbZ7vX/RNmv/3a2ZSUpaSko5ZGe68lmc+dGBZzOlz2/nwJx33BOh5MeigsxZrNlVUw7JJKZuUtybbX7fva022Q9pkO5RNztyvfEre2dfM2q6zvp7zIWDW+3De9/Sslpm0KqlnvoOf+7OvwUA3h7kpd8njUyX98a4b98z8wCd1ifNhJbZb+djgltf0VcMfj07leTCjWgcsmhO8FU8pjJ5ugp2vCrUU3/vIiuk8a+/O+fIYj5/q2r0nE7jnVDtm/f+R33PO805uX0cfY+eL2Re22bePeEyaG1x1xLZH7uNYFbVj7sPmVjdnVVstJFJ1g6znLFnPmbKeMxU2XqTwiEcrnLNN1nuOlFZm/ZjtC+5MJRmLxw+/luerlGZTUvOQfOI++eT90tQDUuOAvDk+K5TNrqpNtQNYZ6DXPIMWZgeyOa0Fs+47siJ4zCruid7X822zfrkUy+UQWs14e+mQ77CX7Znu9LM7YcXOXSZT9N/ZdOZ4Q69rtNzNeEcCi+sEJ6xTOp8t0klwVZ5L7eivj3dWOqVC0bF3ePQjCw3BCz2Fnqjv0zG2PVG3gk5V4wQXT583xLbrwZ7L46yLf0hkSVlW7ZeduVnhvMuVXrpLyeYny87cVITD2d+bKt5pmB3mjgjLk/fLD31Lvn+ffPR2+fi98qnvFeEt5oerZjOVVjv6684Hgk5V2UqaCWjzHcuc45rv8VnHi9PjsrwVJemRzQ3hCklfleomDZ042GlEwaR8vBFe3lcNF1CtA7DyFnhxWK5g3HXXrNnVvJPbdL4HimJgZ4OiKuethvy+W5R/50tqfemfFfrOVbjwKqWP+gGl218g23B+8XQC3sLN/p11wlxrTH7wW/IHv6y4/2vyg7dJ0/sPb5uUir5noSwlR/4xT9xlY/5KM1aKmSx3ZeWetNQcaxbBbmSfSSfoY+eSaaBdrWvqF6nWAcBas4AL9bybHmMgkQWp1CMrW5EJmhPKvnWDsm9+TOGmP1e6/XkqPW63wkWPbT8/18zAIsyj04w9a7BP3pA/9FXFez4hf/CL8vH7pNgstkkqUqn3iOdTNVtb3GRSsPBoScOde49fsRtQMFM+Opi8sr9qF45OxTwwEhYAcELtADHTZTCRVfolM/nEQ2p++q/U+uI7VbrqhSo949UK517eflqkejdbZ0BVexCPpCLMffcm+f2flY/eWQxISMrt/ow1Hf7dr/EBBCj+1GaPmX3XMT8aefux/fVL+yvW+no5sYubuVyn2FsFAABJhzvax1zeGFPoPUelJ/20Ss/4BVn1jKIP2JpaKeBUzKrQSVLeUPzuHvkdH1B86GtFX7mkUgQ6hXaIoxK3vnheqiRJqxH3ljaNPc6eeHNLOl7FbljBdisfVb67r5I8sj0Z8Xp/pwEATldnrjNJVtsob02p8Ym3KfvmR1V54e8p2fwUzRkdvK7MbnJNpOmHFO/6sOJdH5Qf+rYkk9IeqXyGpPYSg1oba6BiYdwteOZy94t154YLJd3l9XqY9x3jUrEwxeDOZMzu+lxPyR4/2fJoVOsAAIvOigpdc1xKKio/+3UqP+1Vmumwv1763c1uhp7er/jtdyve/gH51APt6lzl8HaAJJfHcjkJrenWzvKPffImHx5I5g9qRd86n0jvfHaNUAcAWFJe9BMr9Upmavzb6zX97ldLeVaEurUeZGaPcm08rPhff6fs4y9Tvvdv5K2xojqXlHV4dQ9ghis1eRK2de6Yvyl2+8z0RK9MU5Pcfd1VwwEAy8uL1WWs9xy1vviP8uaEagNvl0q1oslxzVXu2oMcLEh5U/H29yreNiIfu1tKalJ54+GJgYFjMgVpiyTduPcBOyrYeV3BhhSn3rxpax7tOZPNKDOqdQCA5VBU76z3HGW3vF9TrWlVf/JvZKXa2mqW9bzdj87kD3xR+df/Uv7QV6WkWlToCHQ4WSZ5tG2StGvXPM2rN7bv85j+eG8l9ORR7QU6AQBYJp1wt++DavzLrxVVrTXRDNmp0iXyye8p/+JvK/vkL8kP7C0CXSi1Ax0jXHGSouSmiyVJN+6JcwKbd946f/WE0th3999cK9tV0y3PJUbDAgBWQEjlk/tVee71Ku/8pcOVrm40a3BEvOMDyvf+jTR5v1TuV7vssrLHh67TGTzRbOT7yrXa4+35H27MrdgNK7ik8fsfelq5ZFdNtdxFqAMArJSYyWpnqvnR31X2Xx8qQl3stgDUnt7FgjT9kPL/fKPyL7xFah5qN7symTBOkZt57pLsfMWpM6VjjHR16UcrJZOYHAcAsBqEVI1/e7189L7uGinrUcV6vInivXuUfeJ/KH7nI1J5g2Qp/ehwekzKoysEndmY9n5pbrAz263c/+TSitye32r5kY8DALD8PEqlmuKBu9X46O92zwCKTpUun1b+lf+l/LO/KZ96SCptoB8dFoVJFqM8TUMwOyLY+XDx9fiB5lPLiV0y3XJn7joAwKoQM1lto1pfGVF+x6fbPcJXcbWr3RfQJ+5VdtMvKX7zn6S02p6PbhUfN7qPyRWkoNLZ0jzBzWQvrJRMMpphAQCriUkxV/OG/3W4iXPVVb0OLwnmD3xB+Y3/U/7QV6TqmfSlw9Joz/FoIZ4ldaY26TTD1nembvacPKMZFgCwynguq/Qpv/3Tym+7sajaraaBFN4OmRYUv/XPyj71Wvn0AanUV6ysASwFkyuYojSrYlcv5qkbL9+9PZgum87cxdx1AIBVx+QxV/M//659c5XUIDy2B3W48i//ofIv/2ExgpemVyyHonh9jtQJdjvaIa6lp/dUQsml3Ah2AIDVZlbVLt6/d3WMkO3MT5c3lH++rvit/1eMemVuOiwHN5eZ3O0MqR3sRkaKx8z0A+1JsQl1AIDVKaTy6YPKvv6vxW1fwX52nVDXHFX2mdcp3vWhw2u8rrr+f1izTArBy5IUXLLdI8oP1i8+K8/9ia3MJSPYAQBWKY9SWlX2zY9LeVMKKzSPfifUTT2g7FO/LL/v0+1QR9MrVoIVwU7taU5MyeWVkl0wnTHNCQBgFfMoSyuKD92qeP++9n3LHKbmhLpfke//OqEOK8q9XbHr3BFCeGKlZCaJDgEAgNUtJPLpMeV3faG4vZytnp1QN31A2ad/XX7wW+1Jhxn5ihXiUpSXJCncuLdodvXo37+yRwUAwElySZYov+tzxe3lWo1ipk/dIWWf+XX5gf+Syv2EOqycIsUpmBXB7tohZf4nl1aC6ao8p38dAKAbuCwpKT50m9Sabk97ssRlO/fi+7QmlH/mN+QPfU2q9EuR5lesJDe5pKhUajfFTh2I57t0SSNziRGxAIBVz6WkJB97QPHQve27ljDYuRffM2bKPne94ve+KJXPINRhxZnM219EqR3sMsUtPSWrZVFuVOwAAKudu5Sk8skD8rHvde5cwm9YNMHmX/1j+b17pOpGml+xKrhUNMeaMqkzeCL4o0MwmTFwAgDQLUyet+QzFbsl+jaeS5Yo3vouxW/9s1TZyBJhWD06yc6LIdnFVCduO5QcfhgAgK5gpjj+4NLtvx3q/N4blX/tz4p1X1lNAquNSTHqcLCT7JLiJs2wAIDu4hP7l2jHsQh1h25T9sW3SiFdnkEawCmwoClJCnf/8sU1l1+Yx5lWWgAAukdzagl26pJMyqeVf/GtUmtcCmWqdVid3CXZmCSFMzeU+811YatY1o5gBwDoLnlj8ffpUTJT/rW3y/ffIqW9rCqB1cmK6U5MKoKd1DwvShvz6GJELACg+yzypaszWOKejyveNlJMa0Kow2rmkrxdsTOFLWlQspTT/wAAsGSSdPH21elXN/Ed5V9+m5SURZ86rGouk7tCooOSFKKFi0qJSawRCwDoRqXaou8yfuVPpamH2v3qCHZYxcykKHmMD0pSCLKz0sDnEQBAd7LaxsXZUXsd2Hj3hxW/u0cqb6AJFqtfu2KXpun3JCnI/Gwzk5xsBwDoMi5Zz1mLtCOTpg8o3vKXUqiIhix0AzNZ1opRTTsoScGlxXhHAACwIuyMC09/J8V0Ecr3/rV84l4pqdAEi1XPXZ4mphh1SOnkhCQFdz/bo0uMiAUAdJOYyyq9Cn3nFrftFC9j7SZYf+BmxTv+VSr10wSLLuFuicnkDyicdVCSgmQ9FJsBAF3FTMozWe85sv7zO3eewo7aExF7VP5f72hPdUKdA13C5EpMZvaAvfDfJt1lweRletcBALqLyWNL1neurO9czfSRWygvnhe/e5P8gZulUi+rS6C7BFOU7pck3bgzCZKVyHUAgK5iJsVc4dzLivVbT6k/XDsMxpbiN/5vex1YoMu4FFx3SpJulIKkMsEOANBdimCXPPJxxc1TCXbtARPx7o/ID9wipT1U69CVLOibkqQd53lwedl90RdkAQBg6XQGTpy/4xR30K7W5Q3Fb71LCiUxoyu6jsuUR0XFWzt3BWOiHgBAN2kHMjvjIiUXtoNdSBa2D4+STH7vjfKHb5WSGtU6dJViqpMQWo04XvLku5KkgREPkrWK+YkBAOgCFuRZQ8lFV0vlvlMLZBYkz5Xf/j7JEnEVRNcx95CaXLpfae997Xs9SMpohgUAdA+T3JVs/f7i5kKDXada99BX5Q/dIqVU69CVXIlJ0p3FVCf1YCYPZppmyh4AQHcwKW/JahuVbH5K+65TG80a7/qgFFuMhkX3KppcvyxJGtlnkhTkGuMlDQDoCmZS3lQ499JiqhNpgcHMi+2nHlC87zNU69DFzGWS3L4y+94QTeNWlOzoYAAAWN3M5Nm0ki3fVwyYWOjSX+0QF++5QZp6gNGw6Epe9KVLs8k8s6Q91UlbMPcxBfG6BgCsfu5SUla65Zr27QU9uRgoETPF73xUCuWF7gBYFdyltBTk7veXrFFMdbJ7JEpSkMIDKvqRAgCwelnRvy70naew6Ynt+xbQDNuexNgPfF3+8DekpEozLLqSmUclJpfvtes+M+Z1hc4EJyFYvC+LLhHtAACrmQV5a0rJxVfLes+ZWed1oeJdH5byBoMm0L3cXKnJgn1GkrRjYOaNEPKY3N+KLiuWFwMAYPXyqLC50wy7kP517UETjQPy+z7DhMTobubBW1Fm/qUjHwoe8vtaUU65DgCwqsUoK/co2fbU4vaCmmHbgybu/aR88j4poX8dupO7vJSE0JrOR9Ms3ixJ2jsy82IO5eD3B/cmc9kBAFYtMymbVjjnUoXzLj9830kLkkf5dz4iWSpW00T3crdSkGRftRd/8j5JsqHDL+jQmiyPu+lgYiZ3Pr4AAFYhC/KsqeTix8lKNSkuYNSfx2KalIPfVNx/i5RWZwZSAN3HolJzyW6SJL9hZzr70dBfbo1J9mAS5DKCHQBgNTLJTMnlz2zfXsjlqtg23v0fUjbVXhsW6FLmQY1oIY2fkiQ9eN6cN0OwobumTfrPtGwmKVuJYwQA4JiSknz6kJKLrlZy2TOLals42f51nbnrcvn+rzN3Hbqay/M0DdZsxAfSUq0YETswMqdfQeqSjYbw+1NTcaC/HM4Ya8ac1zyWjbkruphtB8DRXJLLpw6a9Z6t8gt/X1bukWK+gKqbqzjHSJ7W5NmEM38dCkGy7ho7WkpCYtVU1mpdb8//8KgPKzHTnOHh5nUFG1IcrW97WjX1vwzBdiRBXGex9FxSEhbwyRvAumKhWPLr4idIzxuUejef3v6yO6XPvl5qPtweeEEVY13LY7uvZpeIrpj7/XlTbym/+BNvd68Hs6GjfoBikViXmcnvqG+uXpwkz5x23ybvrhSLLhSjrPfsHtXOqMozZypFAIdFhVK/hyufO1XZ9YsNSVLekpLS6e32wZuT1t6/7FNjPFFISHbrlpmaByfyxlgjkZmCrerXQij+76HpRryhb/ee+zu57bhP8jpXVQAAgNXMhweO2w9hTlXOJdOwgvbupFqHZbBH0k7dfOE4rzcA83rC5S9w7RpcxD3eqJv/+l32hEXcI7rU5d9c1VW6ozx4nmtgJJ6wUgcAAAAAAAAAAAAAAAAAAAAAAAAAAAAAAAAAAAAAAAAAAAAAAAAAAAAAAAAAAAAAAAAAAAAAAAAAAAAAAAAAAAAAAAAAAAAAAAAAAAAAAAAAAAAAAAAAAAAAAAAAAAAAAAAAAAAAAAAAAAAAAAAAAAAAAAAAAAAAAAAAAAAAAAAAAAAAAAAAAAAAAAAAAAAAAAAAAAAAAAAAAAAAAAAAAAAAAAAAAAAAAAAAAAAAAAAAAAAAAAAAAAAAAAAAAAAAAAAAAAAAAAAAAAAAAAAAAAAAAAAAAAAAAAAAAAAAAAAAAAAAAAAAAAAAAAAAAAAAAAAAAAAAAAAAAAAAAAAAAAAAAAAAAAAAAAAAAAAAAAAAAAAAAAAAAAAAAAAAAAAAAAAAAAAAAAAAAAAAAAAAAAAAAAAAAAAAAAAAAAAAAAAAAAAAAAAAAAAAAAAAAAAAAAAAAAAAAAAAAAAAAAAAAAAAAAAAAAAAAAAAAAAAAAAAAAAAAAAAAAAAAAAAAAAAAAAAAAAAAAAAAAAAAAAAAAAAAAAAAAAAAAAAAAAAAAAAAAAAAAAAAAAAAAAAAAAAAAAAAAAAAAAAAAAAAAAAAAAAAAAAAAAAAAAAAAAAAAAAAAAAAAAAAAAAAAAAAAAAAAAAAAAAAAAAAAAAAAAAAAAAAAAAAAAAAAAAAAAAAAAAAAAAAAAAAAAAAAAAAAAAAAAAAAAAAAAAAAAAAAAAAAAAAAAAAAAAAAAAAAAAAAAAAAAAAAAAAAAAAAAAAAAAAAAAAAAAAAAAAAAAAAAAAAAAAAAAAAAAAAAAAAAAAAAAAAAAAAAAAAAAAAAAAAAAAAAAAAAAAAAAAAAAAAAAAAAAAAAAAAAAAAAAAAAAAAAAAAAAAAAAAAAAAAAAAAAAAAAAAAAAAAAAAAAAAAAAAAAAAAAAAAAAAAAAAAAAAAAAAAAAAAAAAAAAAAAAAABgQf4/kAGShWgi0GcAAAAASUVORK5CYII=;" vertex="1" parent="1">
                    <mxGeometry x="1038.6" y="560" width="70" height="70" as="geometry"/>
                </mxCell>
            </root>
        </mxGraphModel>
    </diagram>
</mxfile>